/* XPM */
static char *find_xpm[] = {
/* columns rows colors chars-per-pixel */
"16 16 86 1",
"  c black",
". c #010101",
"X c #030404",
"o c #050506",
"O c #060707",
"+ c #08090A",
"@ c #090A0B",
"# c #0D0E0F",
"$ c #0E0F11",
"% c #151719",
"& c #16181A",
"* c #181B1D",
"= c #191C1E",
"- c #1B1D20",
"; c #1D2023",
": c #202225",
"> c #212427",
", c #222528",
"< c #25292C",
"1 c #262A2E",
"2 c #282B2F",
"3 c #2B2F33",
"4 c #2D3236",
"5 c #2E3337",
"6 c #303439",
"7 c #33383D",
"8 c #34393E",
"9 c #383D42",
"0 c #3A3F45",
"q c #3B4146",
"w c #40464C",
"e c #41474D",
"r c #444A50",
"t c #464C53",
"y c #484F56",
"u c #4A5158",
"i c #4C525A",
"p c #4E555C",
"a c #555D65",
"s c #5B636C",
"d c #5D666E",
"f c #576371",
"g c #5E6770",
"h c #5F6871",
"j c #626B74",
"k c #646D77",
"l c #656F78",
"z c #667079",
"x c #67717B",
"c c #68727C",
"v c #6A747E",
"b c #6B757F",
"n c #586C82",
"m c #5B6D83",
"M c #6C7680",
"N c #6D7782",
"B c #6F7883",
"V c #707A85",
"C c #717B86",
"Z c #78838E",
"A c #748494",
"S c #798490",
"D c #7D8995",
"F c #7D8D9F",
"G c #7D91A6",
"H c #7B91AA",
"J c #828E9B",
"K c #838F9C",
"L c #85919D",
"P c #86929F",
"I c #8A97A4",
"U c #8B98A6",
"Y c #8E9BA8",
"T c #8197B0",
"R c #93A0AE",
"E c #94A1AF",
"W c #8EA4B7",
"Q c #96A3B1",
"! c #94A7BA",
"~ c #A2AEBA",
"^ c #A4B0BC",
"/ c #AAB4C0",
"( c #ADB8C2",
") c #AEB8C3",
"_ c #BAC3CC",
"` c None",
/* pixels */
"````````````````",
"````````````````",
"````K^L`RLa`````",
"````Z)a`cYK`````",
"``jIDP8`wvV80```",
"``JLCyrMdnGAy```",
"`E~NNH!WTFmfDX``",
"`LQbcks1yMckg ``",
"`p9u73;`=&:%#.``",
"`iP_/U8`<S(/Y$``",
"`tB_zh5`:V(lx+``",
"`eB_lx2`*D(lco``",
"`qV)cb4`,D~cb.``",
"`863<>-`$@OX  ``",
"````````````````",
"````````````````"
};
