/* XPM */
static char *replace_xpm[] = {
/* columns rows colors chars-per-pixel */
"16 16 94 2",
"   c #377A31",
".  c #327A7F",
"X  c #3F8539",
"o  c #499141",
"O  c #489159",
"+  c #5AA751",
"@  c #7AB671",
"#  c #7CB875",
"$  c #2E7995",
"%  c #1962D4",
"&  c #1A62D6",
"*  c #1A65D6",
"=  c #1A69D8",
"-  c #1B6CD8",
";  c #1C6ED9",
":  c #1E70D9",
">  c #1F70D9",
",  c #1F72DB",
"<  c #2373DA",
"1  c #2174DB",
"2  c #2374DB",
"3  c #2777DB",
"4  c #2874DA",
"5  c #2877DC",
"6  c #2A7BDD",
"7  c #2C7ADC",
"8  c #2C7EDF",
"9  c #2F7EDE",
"0  c #2E7EDF",
"q  c #3375DB",
"w  c #347ADC",
"e  c #327FDD",
"r  c #3782BD",
"t  c #46918E",
"y  c #499791",
"u  c #51A285",
"i  c #59AA83",
"p  c #52A390",
"a  c #72B2BC",
"s  c #3082DF",
"d  c #3182DF",
"f  c #3584DF",
"g  c #3585DF",
"h  c #3A83DE",
"j  c #3989E1",
"k  c #3989E2",
"l  c #3A8BE2",
"z  c #3C8BE2",
"x  c #3C8DE2",
"c  c #4287E0",
"v  c #408EE2",
"b  c #448DE2",
"n  c #4888E0",
"m  c #498BE1",
"M  c #4C8CE1",
"N  c #4C8FE1",
"B  c #4090E2",
"V  c #4190E2",
"C  c #4795E6",
"Z  c #4E92E1",
"A  c #4E91E3",
"S  c #4A96E4",
"D  c #4C94E5",
"F  c #4E9AE6",
"G  c #5092E3",
"H  c #5395E5",
"J  c #5597E4",
"K  c #5C93E3",
"L  c #5699E4",
"P  c #5698E5",
"I  c #559BE6",
"U  c #5898E5",
"Y  c #599BE5",
"T  c #5999E6",
"R  c #5C9EE6",
"E  c #639DE6",
"W  c #619EE6",
"Q  c #619FE6",
"!  c #5EA0E8",
"~  c #61A3E8",
"^  c #65A4E8",
"/  c #6DA4E8",
"(  c #6FA9E9",
")  c #70A2E7",
"_  c #71A4E6",
"`  c #88C580",
"'  c #8BC683",
"]  c #90CB88",
"[  c #90C5B6",
"{  c #B6DCB0",
"}  c #83B1EB",
"|  c #86B3EB",
" . c #88B5EC",
".. c None",
/* pixels */
"....C F ........................",
"....V v ........................",
"....D j g d ....................",
"....Y d 0 G e ..................",
"..d 0 ....2 h ..................",
"..9 3 ....p u ..................",
"..c , ..i ] ' + ..O ..B x l ....",
", ; - = y ` { # t S ~ z R ( L ..",
"..........+ @ [ I ^ k ..f Q U ..",
"............o a ! r ....0 W Z ..",
"..........o X   . $ s 8 G | 5 ..",
"..............f P H 6 3 E / : ..",
"............d T J ......M m ....",
"............b  .7 ....: _ w ....",
"............N } A < 4 n ) K q ..",
"............1 > ; - ....* & % .."
};
