/* XPM */
static char *add_xpm[] = {
/* columns rows colors chars-per-pixel */
"16 16 120 2",
"   c #34812C",
".  c #34822C",
"X  c #37842F",
"o  c #398530",
"O  c #3C8732",
"+  c #3D8834",
"@  c #408936",
"#  c #428D36",
"$  c #428B38",
"%  c #438F38",
"&  c #448C3A",
"*  c #478E3C",
"=  c #539645",
"-  c #509941",
";  c #579E45",
":  c #569848",
">  c #5D9C4D",
",  c #5F9E50",
"<  c #66A356",
"1  c #65AB55",
"2  c #68AB53",
"3  c #69A558",
"4  c #6BAA58",
"5  c #6CAA5A",
"6  c #6AAC5B",
"7  c #6EB558",
"8  c #6FB558",
"9  c #6FB559",
"0  c #74B75B",
"q  c #74B75C",
"w  c #70B859",
"e  c #72B95B",
"r  c #73BA5C",
"t  c #71BE5F",
"y  c #75AC61",
"u  c #77AE63",
"i  c #7AAF65",
"p  c #7CB167",
"a  c #78B464",
"s  c #77BC60",
"d  c #7CBA64",
"f  c #7DBC66",
"g  c #7DBE67",
"h  c #7EB269",
"j  c #7DB96A",
"k  c #7DB96B",
"l  c #7FB96D",
"z  c #79BD6E",
"x  c #70C163",
"c  c #79C164",
"v  c #7EC169",
"b  c #7CC36B",
"n  c #7AC66B",
"m  c #7EC76F",
"M  c #80B36A",
"N  c #83B56D",
"B  c #84B66E",
"V  c #87B870",
"C  c #87B871",
"Z  c #89BE78",
"A  c #8DBE7B",
"S  c #81CC75",
"D  c #8AC279",
"F  c #8FC27D",
"G  c #86C97A",
"H  c #85CD79",
"J  c #86C97C",
"K  c #89C87F",
"L  c #8ACF7D",
"P  c #8CCB81",
"I  c #8ECC84",
"U  c #92C580",
"Y  c #97C785",
"T  c #97CC85",
"R  c #98CB86",
"E  c #98CC87",
"W  c #93CD88",
"Q  c #98CC8A",
"!  c #8ED283",
"~  c #96D389",
"^  c #94D38A",
"/  c #95D48A",
"(  c #96D48B",
")  c #97D58B",
"_  c #99D18B",
"`  c #9DD892",
"'  c #A4CE94",
"]  c #A6CF96",
"[  c #A6D096",
"{  c #A0D995",
"}  c #A0D996",
"|  c #ABD49C",
" . c #AAD49D",
".. c #A5DB9B",
"X. c #AFDFA5",
"o. c #AFDFA6",
"O. c #B3D9A5",
"+. c #B4D9A5",
"@. c #B4DAA6",
"#. c #B2DBA8",
"$. c #B5DBA8",
"%. c #B7DAAA",
"&. c #B3DDA9",
"*. c #B4DDAA",
"=. c #B6DDAC",
"-. c #B5DFAC",
";. c #B8DDAF",
":. c #BBDCAF",
">. c #B7E0AF",
",. c #BEE2B6",
"<. c #BDE4B6",
"1. c #CBE6C3",
"2. c #C5E8C0",
"3. c #CEE9C9",
"4. c #D4EBCF",
"5. c #D7EED2",
"6. c #DCF1D8",
"7. c #E0F2DC",
"8. c gray100",
"9. c None",
/* pixels */
"9.9.9.9.9.9.9.9.9.9.9.9.9.9.9.9.",
"9.9.9.9.9.9.B M h u 9.9.9.9.9.9.",
"9.9.9.9.V ' 1.4.3.=.l 3 9.9.9.9.",
"9.9.9.V :.7.<...` &.2.D , 9.9.9.",
"9.9.V %.6.` W I / ) ! >.l : 9.9.",
"9.9.Y 5.{ ^ K 8.8.H v m >.; 9.9.",
"9.N =.o.P J z 8.8.6 s r _ U * 9.",
"9.h ,.) G 8.8.8.8.8.8.w v  .$ 9.",
"9.i *.L S 8.8.8.8.8.8.w g  .+ 9.",
"9.y Q ^ n x 1 8.8.w w w T A o 9.",
"9.9.2 *.c t s 8.8.w 7 q @.% 9.9.",
"9.9.< j #.s r w 7 7 q O.5 . 9.9.",
"9.9.9.> a %.E f d R @.5 . 9.9.9.",
"9.9.9.9.= - F [ ' Z # . 9.9.9.9.",
"9.9.9.9.9.9.% @ O X 9.9.9.9.9.9.",
"9.9.9.9.9.9.9.9.9.9.9.9.9.9.9.9."
};
