/* XPM */
static char *load_xpm[] = {
/* columns rows colors chars-per-pixel */
"16 16 72 1",
"  c #1B4C02",
". c #1E5104",
"X c #225406",
"o c #265909",
"O c #2A5D0B",
"+ c #2F620E",
"@ c #336711",
"# c #366715",
"$ c #3D6E19",
"% c #3B7117",
"& c #3C7316",
"* c #3D7517",
"= c #4B8A1F",
"- c #4E971C",
"; c #49A01D",
": c #53A31E",
"> c #4F8425",
", c #4B9A23",
"< c #4C9A24",
"1 c #4BA020",
"2 c #5FAA28",
"3 c #61A32C",
"4 c #6DC22E",
"5 c #6EC03F",
"6 c #71C63E",
"7 c #74CC3D",
"8 c #7FDE36",
"9 c #77D33C",
"0 c #78D43A",
"q c #79D33D",
"w c #79D03F",
"e c #79D33F",
"r c #7AD53C",
"t c #7BD53C",
"y c #7BD63C",
"u c #7EDD3B",
"i c #7DDA3C",
"p c #7EDC3C",
"a c #7FDD3C",
"s c #7EE833",
"d c #6BBC40",
"f c #6DBA44",
"g c #70BD47",
"h c #73BB4B",
"j c #74BF48",
"k c #75BF48",
"l c #74BC4B",
"z c #73B84E",
"x c #73B94F",
"c c #73BC4C",
"v c #77B854",
"b c #77B955",
"n c #74C643",
"m c #72C145",
"M c #75C444",
"N c #76C445",
"B c #77CA41",
"V c #76CC41",
"C c #78CA42",
"Z c #79D040",
"A c #81ED35",
"S c #82E439",
"D c #83E93A",
"F c #83EB3A",
"G c #85EB3A",
"H c #86ED39",
"J c #87ED39",
"K c #87EE3A",
"L c #88EF39",
"P c #91FC3D",
"I c #93FF3D",
"U c None",
/* pixels */
"UUUUUUUUUUUUUUUU",
"UUUUUU;<<1 UUUUU",
"UUUUUUfbbc.UUUUU",
"UUUUUUdxzgXUUUUU",
"UUUUUU5khmoUUUUU",
"UUUUUU6kmNOUUUUU",
"UUUUUU7NNV+UUUUU",
"UUUUUU9CVZ@UUUUU",
"UUU#&-0wwq:&%UUU",
"UUUUsSqqyqiAUUUU",
"UUUU$DauuuG=UUUU",
"UUUUU2HSSH4UUUUU",
"UUUUUUSLHHUUUUUU",
"UUUUUUUPIUUUUUUU",
"UUUUUUU>3UUUUUUU",
"UUUUUUUUUUUUUUUU"
};
