/* XPM */
static char *nloaded_xpm[] = {
/* columns rows colors chars-per-pixel */
"16 16 133 2",
"   c #D53E35",
".  c #D8473E",
"X  c #FA4225",
"o  c #FD4628",
"O  c #FE492C",
"+  c #FF4B2C",
"@  c #FF4F30",
"#  c #FF4F31",
"$  c #FF5032",
"%  c #FF5033",
"&  c #FF5537",
"*  c #FF593B",
"=  c #FF593C",
"-  c #FF5A3C",
";  c #FF5C3F",
":  c #D74840",
">  c #D84840",
",  c #D94B43",
"<  c #D94B44",
"1  c #DA4F47",
"2  c #DB554D",
"3  c #DD5951",
"4  c #DC5B53",
"5  c #DE5E54",
"6  c #FF5E40",
"7  c #FF5E41",
"8  c #DE625A",
"9  c #FF6346",
"0  c #FF6446",
"q  c #F96048",
"w  c #FF6748",
"e  c #FD654A",
"r  c #FF674E",
"t  c #FF694B",
"y  c #FF6E4F",
"u  c #FF704F",
"i  c #FF6E50",
"p  c #FF6F50",
"a  c #FF7355",
"s  c #FF7455",
"d  c #FF745A",
"f  c #FF7859",
"g  c #FF795A",
"h  c #FF7E5F",
"j  c #FF7F5F",
"k  c #E06A63",
"l  c #E46C63",
"z  c #E06C65",
"x  c #E4756C",
"c  c #FF7E60",
"v  c #E37871",
"b  c #FF8060",
"n  c #FF8365",
"m  c #FF8167",
"M  c #FF8969",
"N  c #FF8D6D",
"B  c #FF8E6E",
"V  c #FF8E6F",
"C  c #FF906F",
"Z  c #E78179",
"A  c #E5847D",
"S  c #FF8F73",
"D  c #F28B7D",
"F  c #F78D7D",
"G  c #FA8E7D",
"H  c #FF9373",
"J  c #FF9374",
"K  c #FF9876",
"L  c #FF9378",
"P  c #FC907F",
"I  c #FF9878",
"U  c #FF9978",
"Y  c #FF9D7C",
"T  c #FF9E7C",
"R  c #FFA07D",
"E  c #FFA07E",
"W  c #E68A85",
"Q  c #E88B83",
"!  c #E7918B",
"~  c #EA938C",
"^  c #F49486",
"/  c #FA9384",
"(  c #FF9584",
")  c #FF9987",
"_  c #F69689",
"`  c #FA9789",
"'  c #FF9B8A",
"]  c #E99792",
"[  c #E99892",
"{  c #EA9A95",
"}  c #EA9E98",
"|  c #ED9F98",
" . c #FFA281",
".. c #FFA581",
"X. c #FFA185",
"o. c #FFA784",
"O. c #FFA785",
"+. c #FFAA86",
"@. c #FFAB89",
"#. c #FFAF8B",
"$. c #EBA09B",
"%. c #EBA29D",
"&. c #EBA39E",
"*. c #FFA190",
"=. c #FAA596",
"-. c #FFAE91",
";. c #FFAA98",
":. c #FBAD9E",
">. c #FBAD9F",
",. c #FFBB9C",
"<. c #ECA5A0",
"1. c #EFACA5",
"2. c #EEADA6",
"3. c #FCB2A2",
"4. c #FFBFA0",
"5. c #FFBBA6",
"6. c #F0B1A9",
"7. c #FFBEAB",
"8. c #FBBAAC",
"9. c #FFC2A3",
"0. c #FFC4B1",
"q. c #FBC3B4",
"w. c #FCC8B7",
"e. c #FFCDB8",
"r. c #FFCEB9",
"t. c #FFCFBB",
"y. c #FCCDBC",
"u. c #FFD1BD",
"i. c #FCD1C1",
"p. c #FCD3C2",
"a. c #FFD6C1",
"s. c #FCD4C4",
"d. c None",
/* pixels */
"d.d.d.d.d.d.d.d.d.d.d.d.d.d.d.d.",
"d.d.d.d.d.&.<.&.&.} ] d.d.d.d.d.",
"d.d.d.d.6.a.a.u.e.e.w.$.d.d.d.d.",
"d.d.d.2.s.9.@.@.O.T -.q.~ d.d.d.",
"d.d.2.i.,.@.+. .T U C X.8.Q d.d.",
"d.{ y.,... .T U J B M b L :.z d.",
"d.[ e.R T U H B M n c f u ;.k d.",
"d.! 0.K H B M n c f a y w *.8 d.",
"d.W 7.B M n c f s p t 9 6 ' 4 d.",
"d.A 5.c c f s y t 0 7 - # ) 2 d.",
"d.v 3.S u y t 0 7 - & O r / > d.",
"d.d.Z >.n 7 7 * & % o w _ 5 d.d.",
"d.d.d.x =.d $ # O X q ^ 3 d.d.d.",
"d.d.d.d.l ` ( P G F D 3 d.d.d.d.",
"d.d.d.d.d.< 1 < : .   d.d.d.d.d.",
"d.d.d.d.d.d.d.d.d.d.d.d.d.d.d.d."
};
