/* XPM */
static char *remove_xpm[] = {
/* columns rows colors chars-per-pixel */
"16 16 113 2",
"   c #B74A2B",
".  c #B84A2A",
"X  c #BA4B2E",
"o  c #B84E2E",
"O  c #BC4B30",
"+  c #BE4F36",
"@  c #BC5032",
"#  c #BD5135",
"$  c #BE5338",
"%  c #C14D33",
"&  c #D04F3E",
"*  c #C45034",
"=  c #C0533A",
"-  c #CC523C",
";  c #C65542",
":  c #C75745",
">  c #CB5949",
",  c #CC5B4C",
"<  c #DB564B",
"1  c #D15E53",
"2  c #D75D51",
"3  c #E6564C",
"4  c #E6584C",
"5  c #E6594E",
"6  c #E9594D",
"7  c #E95B4F",
"8  c #E65650",
"9  c #E65A52",
"0  c #EA5C50",
"q  c #EC5F54",
"w  c #E75D59",
"e  c #CF6153",
"r  c #D66054",
"t  c #D7625C",
"y  c #D9635D",
"u  c #DA635F",
"i  c #EE6652",
"p  c #E0655C",
"a  c #E9635B",
"s  c #EA665C",
"d  c #EE6A5E",
"f  c #F06456",
"g  c #F3735D",
"h  c #DA6461",
"j  c #DC6463",
"k  c #DB6964",
"l  c #DE6A67",
"z  c #DD6A68",
"x  c #DF6A6A",
"c  c #E36B61",
"v  c #E36E63",
"b  c #E0696A",
"n  c #E27066",
"m  c #F27763",
"M  c #F37963",
"N  c #E47871",
"B  c #E27B75",
"V  c #E97B70",
"C  c #E87A75",
"Z  c #E97F78",
"A  c #F68268",
"S  c #F6846C",
"D  c #EE8A75",
"F  c #EA837D",
"G  c #EE847D",
"H  c #EF867E",
"J  c #F08570",
"K  c #F88670",
"L  c #F08C77",
"P  c #F88C76",
"I  c #F0837B",
"U  c #F18E7A",
"Y  c #F0917F",
"T  c #F7917E",
"R  c #F7937E",
"E  c #F9927E",
"W  c #FA937F",
"Q  c #F8947F",
"!  c #EE8C81",
"~  c #F48E81",
"^  c #ED938E",
"/  c #EE928F",
"(  c #FA9A87",
")  c #FA9D8B",
"_  c #F19C96",
"`  c #F19D96",
"'  c #FAA391",
"]  c #F4A09E",
"[  c #F4A29E",
"{  c #F5A39F",
"}  c #FBA99C",
"|  c #FAAB9D",
" . c #F3A7A3",
".. c #F5A6A1",
"X. c #F7ABA1",
"o. c #F6ABA2",
"O. c #F5ACA1",
"+. c #F5AFA5",
"@. c #F8AFA4",
"#. c #F2ADAA",
"$. c #F4B4AA",
"%. c #F8B6A8",
"&. c #F9B9AF",
"*. c #FABAAE",
"=. c #FCC7BA",
"-. c #F8C3BE",
";. c #F9CBC4",
":. c #F9D3CC",
">. c #FCD4CD",
",. c #FDDBD4",
"<. c #FDDCD8",
"1. c gray100",
"2. c None",
/* pixels */
"2.2.2.2.2.2.2.2.2.2.2.2.2.2.2.2.",
"2.2.2.2.2.2.z j h y 2.2.2.2.2.2.",
"2.2.2.2.b ^ -.:.;.$.n 1 2.2.2.2.",
"2.2.2.b #.<.&.' ) | =.V , 2.2.2.",
"2.2.b  .,.( Y U W W P %.v : 2.2.",
"2.2.F >.) R D S S S S M @.& 2.2.",
"2.l +.| L q q q q q q m ~ Z = 2.",
"2.k &.W J 1.1.1.1.1.1.6 d ` + 2.",
"2.u o.K A 1.1.1.1.1.1.6 s _ + 2.",
"2.t ! R g 6 6 6 6 6 6 5 I B X 2.",
"2.2.< o.f i 3 6 6 6 4 9 { * 2.2.",
"2.2.e c O.q q 6 5 3 3 ..r . 2.2.",
"2.2.2.> p ..I s w G { 2   2.2.2.",
"2.2.2.2.; - C / / N %   2.2.2.2.",
"2.2.2.2.2.2.$ # X o 2.2.2.2.2.2.",
"2.2.2.2.2.2.2.2.2.2.2.2.2.2.2.2."
};
