/* XPM */
static char *unload_xpm[] = {
/* columns rows colors chars-per-pixel */
"16 16 83 1",
"  c #480808",
". c #550706",
"X c #761212",
"o c #771312",
"O c #6E2121",
"+ c #6C2322",
"@ c #722E2E",
"# c #8D0E0D",
"$ c #920F0E",
"% c #9F0B0A",
"& c #8A1C1B",
"* c #8B1C1C",
"= c #911717",
"- c #9C1515",
"; c #921817",
": c #A50C0B",
"> c #BA0806",
", c #BB0807",
"< c #A01616",
"1 c #AD1514",
"2 c #A91E1D",
"3 c #AA1F1E",
"4 c #B41413",
"5 c #B01716",
"6 c #B81615",
"7 c #862A2A",
"8 c #8B2A2A",
"9 c #9D2C2B",
"0 c #8F3939",
"q c #913A3A",
"w c #A23636",
"e c #A73636",
"r c #AD3535",
"t c #AD3837",
"y c #A83F3F",
"u c #A93F3F",
"i c #AF3E3D",
"p c #B13432",
"a c #B23535",
"s c #B43736",
"d c #B63636",
"f c #B23E3E",
"g c #BF3C3C",
"h c #CC0E0D",
"j c #D60C0A",
"k c #D10F0E",
"l c #DC0D0B",
"z c #D80E0D",
"x c #D80F0D",
"c c #EB1311",
"v c #EF1513",
"b c #CB3332",
"n c #CE3332",
"m c #CB3433",
"M c #CE3432",
"N c #C33C3C",
"B c #DE3737",
"V c #D13A3A",
"C c #D43938",
"Z c #D63B3A",
"A c #D83938",
"S c #DE3C3B",
"D c #FF2927",
"F c #F22C2B",
"G c #F32E2D",
"H c #FF2B29",
"J c #EF3634",
"K c #EE3635",
"L c #E63A3A",
"P c #EC3A38",
"I c #F63C3A",
"U c #AC403F",
"Y c #B24141",
"T c #B34141",
"R c #B94140",
"E c #BB4545",
"W c #C74545",
"Q c #D64747",
"! c #E84140",
"~ c #EB4543",
"^ c #E84746",
"/ c #E14948",
"( c None",
/* pixels */
"((((((((((((((((",
"((((((>zz>((((((",
"((((jDJMMJHl((((",
"(((cI9(((((Pv(((",
"((hBZS((((((Lk((",
"((F((!V((((((G((",
"(%A(((~p(((((Z:(",
"(4s(((O^8((((r6(",
"(1t((((7/O(((e5(",
"(#N(((((wQ(((g$(",
"((b((((((fW((m.(",
"((-R((((((TYi<((",
"(((2T(((((@E3(((",
"((((=suq0Ua;((((",
"((((((o&*o (((((",
"(((((((((((((((("
};
