/* XPM */
static char *component_16[] = {
/* columns rows colors chars-per-pixel */
"16 16 127 2",
"   c #3D8D39",
".  c #3F8E3A",
"X  c #418F3C",
"o  c #41903C",
"O  c #42913D",
"+  c #42923E",
"@  c #44923F",
"#  c #459041",
"$  c #459440",
"%  c #469641",
"&  c #479642",
"*  c #499644",
"=  c #4A9945",
"-  c #4D9549",
";  c #4E9D48",
":  c #4F9E49",
">  c #529F4D",
",  c #51A04B",
"<  c #52A14C",
"1  c #55A44F",
"2  c #59B54F",
"3  c #59A752",
"4  c #5AA953",
"5  c #5DAB56",
"6  c #5EAD57",
"7  c #5BB651",
"8  c #5DB752",
"9  c #5FB853",
"0  c #61AF5A",
"q  c #62AC5C",
"w  c #63AD5D",
"e  c #60B955",
"r  c #61B956",
"t  c #61BA56",
"y  c #65B45E",
"u  c #63BA58",
"i  c #64BB58",
"p  c #64BB59",
"a  c #66BB5A",
"s  c #66BB5D",
"d  c #68BC5B",
"f  c #69BC5D",
"g  c #69BD5D",
"h  c #6ABD5E",
"j  c #6CBE5F",
"k  c #6CB565",
"l  c #6DB566",
"z  c #6AB862",
"x  c #6BB963",
"c  c #6BBD62",
"v  c #6DBF60",
"b  c #6EBC65",
"n  c #6FBF65",
"m  c #6FBD66",
"M  c #70B969",
"N  c #74BD6D",
"B  c #76BF6E",
"V  c #6FC062",
"C  c #71C164",
"Z  c #72C165",
"A  c #73C265",
"S  c #71C066",
"D  c #73C267",
"F  c #72C169",
"G  c #77C369",
"H  c #77C46D",
"J  c #78C66F",
"K  c #7AC072",
"L  c #7AC770",
"P  c #7CC376",
"I  c #7BC971",
"U  c #7DCA73",
"Y  c #7DCB73",
"T  c #7ECB74",
"R  c #80C877",
"E  c #80CD75",
"W  c #80CE76",
"Q  c #81CE76",
"!  c #81C67A",
"~  c #81C67B",
"^  c #83C77C",
"/  c #81CB78",
"(  c #87CB79",
")  c #82CD78",
"_  c #85C97C",
"`  c #84C87E",
"'  c #85C87E",
"]  c #83D079",
"[  c #87CA80",
"{  c #88CA80",
"}  c #88CA81",
"|  c #89CA82",
" . c #89CA83",
".. c #8ACB83",
"X. c #8BCC83",
"o. c #8CCC84",
"O. c #8DCD85",
"+. c #8ECD86",
"@. c #90CF88",
"#. c #91CF88",
"$. c #92CF8A",
"%. c #93CF8B",
"&. c #94CF8A",
"*. c #94CF8B",
"=. c #95CF8B",
"-. c #95D08C",
";. c #96D18D",
":. c #97D28D",
">. c #95D08F",
",. c #97D78E",
"<. c #98D18F",
"1. c #99D290",
"2. c #9CD493",
"3. c #9DD593",
"4. c #9ED595",
"5. c #A1D796",
"6. c #A1D797",
"7. c #A2D897",
"8. c #A2D798",
"9. c #A1D79A",
"0. c #A2D898",
"q. c #A3D899",
"w. c #A4D899",
"e. c #A6D99B",
"r. c #A7D99C",
"t. c #F6FBF5",
"y. c gray100",
/* pixels */
"y.y.y.y.y.y.y.y.y.y.y.y.y.y.y.y.",
"y.y.y.y.y.,.W Y 9.y.y.y.y.y.y.y.",
"y.y.y.y.t.) r.7.R y.y.y.y.y.y.y.",
"y.y.y.y.y.E 7.<.=.y.y.y.y.y.y.y.",
"y.] W W Y H 6.3.N N M l y.y.y.y.",
"y.W w.w.6.6.3.2.<.-.*.6 y.y.y.y.",
"y.Y q.6.( G A C A Z *.4 y.y.y.y.",
"y.L H _ 2.Z n j h a @.l < ; * y.",
"y.y.y.M 1.j h d a t n .. .[ % y.",
"y.y.y.x ;.h a u 9 9 c [ _ ` + y.",
"y.n x K @.a t 9 7 7 [ q * + . y.",
"y.z =.@.F O.O...[ s ` $ y.y.y.y.",
"y.y @.r O.l , ; q ~ ~ . y.y.y.y.",
"y.0 o.o. ., y.y.* ~ P . y.y.y.y.",
"y.5 3 1 , > y.y.@ o # - y.y.y.y.",
"y.y.y.y.y.y.y.y.y.y.y.y.y.y.y.y."
};
