/* XPM */
static char *function_16[] = {
/* columns rows colors chars-per-pixel */
"16 16 150 2",
"   c #205C1D",
".  c #215E1E",
"X  c #235C20",
"o  c #236620",
"O  c #246821",
"+  c #246921",
"@  c #256B22",
"#  c #266C22",
"$  c #266E23",
"%  c #296926",
"&  c #296E24",
"*  c #2A6028",
"=  c #2E682B",
"-  c #277023",
";  c #237420",
":  c #277124",
">  c #287324",
",  c #2A7726",
"<  c #2E712A",
"1  c #2E792A",
"2  c #2D7E2A",
"3  c #337E2F",
"4  c #397D36",
"5  c #5E6844",
"6  c #2E8329",
"7  c #2E852A",
"8  c #2D8929",
"9  c #2D8F28",
"0  c #30892B",
"q  c #318D2C",
"w  c #328C2D",
"e  c #3A9D33",
"r  c #389E33",
"t  c #3E9738",
"y  c #3E993A",
"u  c #3D9E38",
"i  c #38A133",
"p  c #39A134",
"a  c #39A534",
"s  c #3AA634",
"d  c #3AA835",
"f  c #3BAA36",
"g  c #3CAB36",
"h  c #3FA539",
"j  c #3FAE3A",
"k  c #3EB238",
"l  c #3FB73A",
"z  c #44AA3E",
"x  c #41AF3C",
"c  c #42AE3C",
"v  c #40B73A",
"b  c #42B33D",
"n  c #558940",
"m  c #5C9F42",
"M  c #539F4B",
"N  c #549E4D",
"B  c #528350",
"V  c #548651",
"C  c #609A46",
"Z  c #629C47",
"A  c #639D47",
"S  c #679E4D",
"D  c #788C5F",
"F  c #609B5D",
"G  c #49AE43",
"H  c #4BAC45",
"J  c #4DAC48",
"K  c #5DA141",
"L  c #5DA342",
"P  c #5DA044",
"I  c #54A24C",
"U  c #57A64E",
"Y  c #47B042",
"T  c #48B542",
"R  c #49B743",
"E  c #48B044",
"W  c #5FB74F",
"Q  c #56AD50",
"!  c #59AA51",
"~  c #59A952",
"^  c #6AA14D",
"/  c #6AA24E",
"(  c #70AA4D",
")  c #72AC4E",
"_  c #73AD4F",
"`  c #62A457",
"'  c #6DA351",
"]  c #73A857",
"[  c #7BB258",
"{  c #7EB45C",
"}  c #788D69",
"|  c #64A461",
" . c #68AD62",
".. c #6FA168",
"X. c #6FA06A",
"o. c #73A26B",
"O. c #64B760",
"+. c #76B260",
"@. c #79A675",
"#. c #7AA675",
"$. c #77C773",
"%. c #7EC272",
"&. c #80B55E",
"*. c #82AF6C",
"=. c #84B962",
"-. c #8CBC6D",
";. c #84B070",
":. c #84B071",
">. c #85B171",
",. c #82B577",
"<. c #8CB379",
"1. c #8CB478",
"2. c #91BE77",
"3. c #81C77E",
"4. c #9CAC87",
"5. c #96BF83",
"6. c #99BE86",
"7. c #95BF8E",
"8. c #99BE89",
"9. c #94B492",
"0. c #9AB799",
"q. c #A5B295",
"w. c #ADB8A0",
"e. c #8EC385",
"r. c #98C185",
"t. c #96C594",
"y. c #9DC094",
"u. c #A5CC8D",
"i. c #A8CE90",
"p. c #AAC897",
"a. c #ACCF94",
"s. c #A9CB9A",
"d. c #ADD49E",
"f. c #A3C4A1",
"g. c #A9C3A7",
"h. c #A9C4A8",
"j. c #A7DDA4",
"k. c #B8D7A4",
"l. c #B1DCAE",
"z. c #C2E3AF",
"x. c #C0E4BE",
"c. c #C6D6C5",
"v. c #CDEACC",
"b. c #CEEBCC",
"n. c #E0E8DF",
"m. c #EBEFE7",
"M. c #E4F4E3",
"N. c #E4F5E4",
"B. c #EFF4EF",
"V. c gray100",
/* pixels */
"V.V.V.V.V.V.V.l v.V.x.c V.V.V.V.",
"V.V.V.N.V.V.V.k $.m.l.z V.V.V.V.",
"V.V.V.v j.V.V.b G 4.n e q.V.V.V.",
"V.V.V.R b V.Y d s p %.z.D w.V.V.",
"V.V.V.v.g G H d.k.e.9 W p.q 8 7 ",
"R M.V.V.s h i.=.[ +.t 8 ` 5 V.V.",
"j d 3.J Q u.&.) K ! s.7.6 } V.V.",
"V.O.i r a.{ ) K U r.] 6.2 3 f.V.",
"V.V.u ! -.( m I r.' A 8., > $ @ ",
"V.V.y  .2.m M 1./ C ;.X.> B.V.9.",
"V.V.t.q ,.N 1./ C ;.4 $ h.V.V.V.",
"V.V.V.| ; y.*.S ;.#.@ + % 0.V.V.",
"V.V.V.V.F 1 X.o.< + g.c.=   n.V.",
"V.V.V.V.V.#.& + o V V.V.V.V.V.V.",
"V.V.V.V.V.V.V.V.B   n.V.V.V.V.V.",
"V.V.V.V.V.V.V.V.V.X * V.V.V.V.V."
};
