/* XPM */
static char *group_16[] = {
/* columns rows colors chars-per-pixel */
"16 16 174 2",
"   c #7A4C12",
".  c #7E4E12",
"X  c #784D15",
"o  c #794D16",
"O  c #794E16",
"+  c #7A4E16",
"@  c #7B4F16",
"#  c #7C5017",
"$  c #7D5017",
"%  c #7E5117",
"&  c #7F5218",
"*  c #825114",
"=  c #875414",
"-  c #8B5615",
";  c #8E5915",
":  c #805318",
">  c #815318",
",  c #825419",
"<  c #835419",
"1  c #85551A",
"2  c #86561A",
"3  c #88581B",
"4  c #8A591D",
"5  c #8F5D1E",
"6  c #925B16",
"7  c #965C17",
"8  c #995E17",
"9  c #915F1E",
"0  c #9B6117",
"q  c #95601F",
"w  c #99621F",
"e  c #926226",
"r  c #946327",
"t  c #956427",
"y  c #9C6420",
"u  c #9F6520",
"i  c #916329",
"p  c #926429",
"a  c #966528",
"s  c #976628",
"d  c #94652A",
"f  c #95662A",
"g  c #97672B",
"h  c #996729",
"j  c #996829",
"k  c #9A6829",
"l  c #98682B",
"z  c #9B6A2B",
"x  c #9A692C",
"c  c #9B6A2C",
"v  c #9C6B2C",
"b  c #9D6C2E",
"n  c #8C6839",
"m  c #966A31",
"M  c #946B38",
"N  c #986D38",
"B  c #98703F",
"V  c #A16820",
"C  c #A46E29",
"Z  c #A66F2B",
"A  c #A5783F",
"S  c #A87A3F",
"D  c #C86530",
"F  c #C86731",
"G  c #C96832",
"H  c #C96932",
"J  c #CA6B33",
"K  c #CA6D34",
"L  c #CB6E34",
"P  c #CB6E35",
"I  c #CC7036",
"U  c #CC7137",
"Y  c #CD7237",
"T  c #CD7338",
"R  c #CE7438",
"E  c #CE763A",
"W  c #CF773B",
"Q  c #D07A3C",
"!  c #D07B3C",
"~  c #D17C3D",
"^  c #D17D3E",
"/  c #D37F3F",
"(  c #98784E",
")  c #AA7C41",
"_  c #A6845B",
"`  c #AA875B",
"'  c #AB885A",
"]  c #B08C5F",
"[  c #B38E5F",
"{  c #AA8A61",
"}  c #B58F60",
"|  c #B08E67",
" . c #B79060",
".. c #B99160",
"X. c #BB9260",
"o. c #BC9360",
"O. c #BC9361",
"+. c #BC9461",
"@. c #BE9664",
"#. c #BC9A6F",
"$. c #D48040",
"%. c #D48240",
"&. c #D58341",
"*. c #D58542",
"=. c #D68743",
"-. c #D78944",
";. c #D88A44",
":. c #D88C47",
">. c #D98D47",
",. c #DA8F48",
"<. c #DA9149",
"1. c #DB924A",
"2. c #DC944B",
"3. c #DC964C",
"4. c #DD984D",
"5. c #DE994D",
"6. c #DE9B4F",
"7. c #DC9451",
"8. c #DF9D55",
"9. c #E09C4F",
"0. c #E19E50",
"q. c #E2A051",
"w. c #E2A252",
"e. c #E3A354",
"r. c #E3A554",
"t. c #E4A655",
"y. c #E5A957",
"u. c #E3A459",
"i. c #E6AA58",
"p. c #E7AE59",
"a. c #E6AC5E",
"s. c #E9B25B",
"d. c #DA9874",
"f. c #DA9875",
"g. c #DA9975",
"h. c #DB9B76",
"j. c #DC9E77",
"k. c #DD9F78",
"l. c #E19E62",
"z. c #DDA079",
"x. c #DEA27A",
"c. c #DEA37B",
"v. c #DFA67C",
"b. c #D9B177",
"n. c #E3A366",
"m. c #E5A769",
"M. c #E6AB6E",
"N. c #E9B362",
"B. c #EBB865",
"V. c #E0A87E",
"C. c #E2AB7F",
"Z. c #E0AD7E",
"A. c #E8B071",
"S. c #EAB475",
"D. c #EBB87A",
"F. c #EEBC7D",
"G. c #C1A889",
"H. c #C6AE90",
"J. c #E3AD80",
"K. c #E4AF81",
"L. c #E3B280",
"P. c #E5B783",
"I. c #E6BD85",
"U. c #EFBF80",
"Y. c #E8C188",
"T. c #EAC68B",
"R. c #EDC88D",
"E. c #EECC8F",
"W. c #F1C383",
"Q. c #F2C587",
"!. c #F4CC8F",
"~. c #F7F3EF",
"^. c #FAF7F4",
"/. c gray100",
/* pixels */
"/./././././././././././././././.",
"/./././././././././././././././.",
"/.^.#.z z h a a t t e a m H././.",
"~.b S o.+.+.X. . . .} ' ' N G./.",
"A ) @.Z V u u y q 9 5 4 B _ M { ",
"v b.C 0 8 7 6 ; - = * .   n { , ",
"c E.!.Q.W.U.F.D.S.A.M.m.n.l.K., ",
"c R.B.s.p.y.r.0.8.3.<.:.*.$.J.> ",
"h T.N.y.t.w.0.3.<.:.;.%./ ! x.& ",
"g Y.a.w.0.5.2.,.;.*.%.! W T k.. ",
"a I.u.8.3.<.,.*.%.~ Q E U L h.# ",
"d P.8.<.,.-.%.$.Q E Y L J F f.# ",
"p L.7.-.*.%.! W T T L H F F f.X ",
"i J.J.J.V.v.x.k.k.d.d.d.f.f.f.X ",
"` 3 1 1 , , > & $ $ o o o X X ( ",
"/./././././././././././././././."
};
