/* XPM */
static char *instance_16[] = {
/* columns rows colors chars-per-pixel */
"16 16 116 2",
"   c #E05445",
".  c #E2634C",
"X  c #E57253",
"o  c #E67C57",
"O  c #EDB416",
"+  c #E6802C",
"@  c #D7D106",
"#  c #D7D207",
"$  c #D8D206",
"%  c #D8D207",
"&  c #D9D207",
"*  c #DBD408",
"=  c #EFC50F",
"-  c #EFC613",
";  c #EFC614",
":  c #EFC716",
">  c #DCD338",
",  c #EBC72B",
"<  c #F1CD30",
"1  c #F3F130",
"2  c #BCBF55",
"3  c #EA8F5F",
"4  c #EB9663",
"5  c #EB9A65",
"6  c #ECA067",
"7  c #F0B471",
"8  c #F1BE75",
"9  c #C3C457",
"0  c #F3D347",
"q  c #F3D54F",
"w  c #F3D657",
"e  c #C9C268",
"r  c #DBC97D",
"t  c #F4D960",
"y  c #F4DA66",
"u  c #E3CE73",
"i  c #F4CD7C",
"p  c #F6DE73",
"a  c #F6DE78",
"s  c #F6F567",
"d  c #729ADE",
"f  c #749DDD",
"g  c #769DE3",
"h  c #789EE3",
"j  c #78A2E3",
"k  c #7BA3E5",
"l  c #7EA4E5",
"z  c #7FA5E5",
"x  c #9EAF85",
"c  c #9FB194",
"v  c #A0B186",
"b  c #AAB786",
"n  c #A1B394",
"m  c #ADBC97",
"M  c #E3DD83",
"N  c #F6DC83",
"B  c #F4DC89",
"V  c #F7E180",
"C  c #F7E181",
"Z  c #F7E182",
"A  c #F7E184",
"S  c #F7E286",
"D  c #F7E289",
"F  c #F5E28C",
"G  c #F6E28D",
"H  c #F1E19B",
"J  c #C5C2B5",
"K  c #C5C3BA",
"L  c #C3C2BE",
"P  c #E8DEB5",
"I  c #F1E2A4",
"U  c #F0E3A8",
"Y  c #EFEBB7",
"T  c #83A9E5",
"R  c #85AAE6",
"E  c #98AFE8",
"W  c #98B0E7",
"Q  c #92B2E9",
"!  c #92B2EA",
"~  c #93B4E9",
"^  c #96B6E8",
"/  c #95B4EB",
"(  c #98B7EA",
")  c #98B8EA",
"_  c #99B9EB",
"`  c #9DBBED",
"'  c #AFBEEA",
"]  c #A6C1EE",
"[  c #AAC3EE",
"{  c #AFC8EF",
"}  c #B2C2ED",
"|  c #BBCEF1",
" . c #CACACA",
".. c #DBD8CD",
"X. c gray83",
"o. c #D9D8D6",
"O. c #DAD9D7",
"+. c #DCDBD7",
"@. c #DDDDDD",
"#. c #E0DFDC",
"$. c #EBE3C2",
"%. c #FBF0C4",
"&. c #E3E2DF",
"*. c #FCF6DC",
"=. c gray89",
"-. c #E4E4E3",
";. c #E7E7E7",
":. c #EAEAEA",
">. c gray92",
",. c #ECECEC",
"<. c #EEEEEE",
"1. c #F6F6F6",
"2. c gray98",
"3. c gray99",
"4. c #FDFDFD",
"5. c gray100",
/* pixels */
"5.5.5.Y > 5.5.5.5.5.5.Y > 5.5.5.",
"5.5.5.* 1 M 5.5.5.5.5.* 1 M 5.5.",
"5.5.5.% s % 5.Y > 5.5.% s # 5.5.",
"5.5.5.m 9 b  .% 1 e X.c 2 x 5.5.",
"5.1.@.` { ~ 1.# s # :.R ( f 1.5.",
"5...=./ [ ~ 5.n 2 v 5.j Q d ..5.",
"5.L 5.' ~ | 5.R ( k 5.E g ' K 5.",
"5.J 2.5.5.5.5.k ^ j 5.5.5.:.r 5.",
"5.u o.-.5.5.5.W h } 5.<.o.P , 5.",
"5.- A +.<.-.&.-.-.=.:.#.H A = 5.",
"5.+ 5 B $.I S S S G U G N 6 + 5.",
"5.O 3 X 4 7 i N N i 7 4 X 3 O 5.",
"5.- C 8 5 o .     . o 5 8 C ; 5.",
"5.y q C S S S S A D A A C q y 5.",
"5.*.a - 0 t p C C p t 0 ; a *.5.",
"5.5.5.%.D w < : : < w D %.5.5.5."
};
