/* XPM */
static char *signal_16[] = {
/* columns rows colors chars-per-pixel */
"16 16 99 2",
"   c #DAA223",
".  c #DAA323",
"X  c #DBA424",
"o  c #DBA524",
"O  c #DBA625",
"+  c #DCA726",
"@  c #DCA927",
"#  c #DEAB2B",
"$  c #DEAC29",
"%  c #DFAE2B",
"&  c #DFAF2B",
"*  c #DDA82C",
"=  c #DEAA2E",
"-  c #DFAE2D",
";  c #E0B12C",
":  c #E0B22D",
">  c #E1B42E",
",  c #E2B62F",
"<  c #EBB62F",
"1  c #E3B831",
"2  c #E4BB33",
"3  c #E5BD35",
"4  c #E4BB3D",
"5  c #E6C036",
"6  c #E7C238",
"7  c #EEC238",
"8  c #E8C43A",
"9  c #E9C73B",
"0  c #EFC739",
"q  c #E9C93C",
"w  c #EACA3D",
"e  c #EACB3E",
"r  c #EBCC3F",
"t  c #F0C83A",
"y  c #F0C93C",
"u  c #F0CB3D",
"i  c #F1CD3F",
"p  c #F1CE3F",
"a  c #E3B448",
"s  c #E4B64A",
"d  c #E6BA4C",
"f  c #E7BC4F",
"g  c #ECBC4A",
"h  c #E6B951",
"j  c #E7BD55",
"k  c #ECCE40",
"l  c #E7C04A",
"z  c #ECCD4F",
"x  c #F0CA40",
"c  c #F2CE41",
"v  c #F1CF45",
"b  c #F2D042",
"n  c #F3D243",
"m  c #F3D344",
"M  c #F3D445",
"N  c #F4D647",
"B  c #F3D54A",
"V  c #F4D848",
"C  c #EBC756",
"Z  c #EAC658",
"A  c #EFD45B",
"S  c #EDCB62",
"D  c #F1D964",
"F  c #F3D56E",
"G  c #EECC70",
"H  c #EFC97A",
"J  c #F0CC7C",
"K  c #F1CE7E",
"L  c #F1CF7F",
"P  c #EFD070",
"I  c #F2DA75",
"U  c #F3D77F",
"Y  c #F7E172",
"T  c #F1CE80",
"R  c #F2D283",
"E  c #F2D384",
"W  c #F3D786",
"Q  c #F4D788",
"!  c #F4D989",
"~  c #F5DB8A",
"^  c #F5DB8B",
"/  c #F5DC8A",
"(  c #F5DC8C",
")  c #F6DF8E",
"_  c #F5E180",
"`  c #F6E08D",
"'  c #F8E68E",
"]  c #F7E291",
"[  c #F7E391",
"{  c #F8E693",
"}  c #F8E594",
"|  c #F9E993",
" . c #F9E897",
".. c #F9E998",
"X. c #F9EA99",
"o. c #F9EB99",
"O. c #FAEB9A",
"+. c #FAED9A",
"@. c None",
/* pixels */
"@.@.@.@.@.@.@.@.@.@.@.@.@.@.@.@.",
"@.@.@.k k r e 9 9 6 3 3 2 2 @.@.",
"@.@.@.r +...} } ] ) ^ C 1 @.@.@.",
"@.@.r D O.V M c 0 ( S 1 @.@.@.@.",
"@.@.e | Y M c u ( P 4 @.@.@.@.@.",
"@.@.A ..N b u F U l @.@.@.@.@.@.",
"@.9 _ ' b x t ( Z @.@.@.@.@.@.@.",
"@.z ..B n k 7 Q > : $ $ @ O . @.",
"9 I { { ` ( ^ Q E U J J a . @.@.",
"5 5 3 2 2 > W < g J h * . @.@.@.",
"@.@.@.@.@.: G R T s X @.@.@.@.@.",
"@.@.@.@.@.$ E j =   @.@.@.@.@.@.",
"@.@.@.@.$ f d + @.@.@.@.@.@.@.@.",
"@.@.@.@.- # @ @.@.@.@.@.@.@.@.@.",
"@.@.@.$ @ @.@.@.@.@.@.@.@.@.@.@.",
"@.@.@.@.@.@.@.@.@.@.@.@.@.@.@.@."
};
