/* XPM */
static char *add_new_item_xpm[] = {
/* columns rows colors chars-per-pixel */
"16 16 195 2",
"   c #D79D22",
".  c #DEAE31",
"X  c #D9AA3B",
"o  c #DCAF3F",
"O  c #DFB53D",
"+  c #DFB63C",
"@  c #E5BD35",
"#  c #E1B838",
"$  c #E8C53A",
"%  c #EAC93D",
"&  c #9AA076",
"*  c #ADA86A",
"=  c #AAB276",
"-  c #DCBF59",
";  c #DFBD5E",
":  c #E3B543",
">  c #E2B244",
",  c #E5B752",
"<  c #E6BA51",
"1  c #E8BC58",
"2  c #D6B873",
"3  c #E2C644",
"4  c #E0C14E",
"5  c #F2CF47",
"6  c #E2C553",
"7  c #E8C250",
"8  c #E9C352",
"9  c #E3C856",
"0  c #E5CB58",
"q  c #E6CE59",
"w  c #ECD35D",
"e  c #F4D85F",
"r  c #EDCF66",
"t  c #ECC76D",
"y  c #EFD368",
"u  c #F2D260",
"i  c #F1D96B",
"p  c #F0D86E",
"a  c #F1CF7D",
"s  c #F3DE74",
"d  c #F1D378",
"f  c #F0D07D",
"g  c #F2D67D",
"h  c #2A60B7",
"j  c #2C62B7",
"k  c #2D64B9",
"l  c #2E64B9",
"z  c #2E65B9",
"x  c #2F65BA",
"c  c #3065BA",
"v  c #3066BA",
"b  c #3166BB",
"n  c #3167BB",
"m  c #3369BC",
"M  c #366FBF",
"N  c #567BA3",
"B  c #4279BF",
"V  c #3B76C1",
"C  c #3B76C4",
"Z  c #3F7CC5",
"A  c #457EC2",
"S  c #407CC4",
"D  c #6B8794",
"F  c #779CA2",
"G  c #4280C5",
"H  c #4280C6",
"J  c #4682C4",
"K  c #4582C6",
"L  c #4683C6",
"P  c #4985C4",
"I  c #4B88C5",
"U  c #4B89C5",
"Y  c #4F8BC7",
"T  c #4D8BC8",
"R  c #4F8CC8",
"E  c #4F8DC8",
"W  c #4F8CC9",
"Q  c #6492DB",
"!  c #6594DB",
"~  c #5CB3E9",
"^  c #4FB2F7",
"/  c #51B2F7",
"(  c #52B3F7",
")  c #53B2F8",
"_  c #53B4F8",
"`  c #7DB0E1",
"'  c #7DB2E2",
"]  c #61BCFB",
"[  c #63BDFB",
"{  c #65BEFB",
"}  c #62BCFC",
"|  c #62BDFC",
" . c #60BEFC",
".. c #67BDFC",
"X. c #64BEFC",
"o. c #68BFFD",
"O. c #90B8B8",
"+. c #D7C083",
"@. c #DAC687",
"#. c #D8C58C",
"$. c #D2C090",
"%. c #E6D18A",
"&. c #F4D784",
"*. c #F4D981",
"=. c #F3D984",
"-. c #F5DE85",
";. c #F4D788",
":. c #F4DC89",
">. c #F6E389",
",. c #F7E38D",
"<. c #F6E090",
"1. c #F8E690",
"2. c #F8E793",
"3. c #F8E796",
"4. c #CFCEAF",
"5. c #D1C5A5",
"6. c #D4C9A9",
"7. c #D9D0A5",
"8. c #D4D0AA",
"9. c #84B6E2",
"0. c #BED2DF",
"q. c #93D4FF",
"w. c #94D5FF",
"e. c #95D6FF",
"r. c #96D6FF",
"t. c #98D7FF",
"y. c #9BD6FF",
"u. c #9ED7FF",
"i. c #A0D8FF",
"p. c #B3D2F1",
"a. c #B5D4F3",
"s. c #B8D6F4",
"d. c #BBD6F5",
"f. c #B4D8F6",
"g. c #BBD8F6",
"h. c #BCD9F4",
"j. c #BDDAF6",
"k. c #DEDED1",
"l. c #D3DADE",
"z. c #C8D7E0",
"x. c #CCDFF1",
"c. c #C1DBF8",
"v. c #C2DCF8",
"b. c #C3DDF9",
"n. c #C5DFF9",
"m. c #C6DFFA",
"M. c #C7DFFA",
"N. c #C7E0FA",
"B. c #C8E0FA",
"V. c #C8E0FB",
"C. c #C9E0FB",
"Z. c #C8E1FB",
"A. c #C9E1FB",
"S. c #CBE1FB",
"D. c #C9E2FB",
"F. c #CCE1FB",
"G. c #C9E5FA",
"H. c #CCE2FC",
"J. c #CDE2FC",
"K. c #CEE2FC",
"L. c #CDE6FC",
"P. c #D7E6F2",
"I. c #DFE9F4",
"U. c #DCEAF6",
"Y. c #DEEAF6",
"T. c #DEEBF6",
"R. c #DFECF7",
"E. c #D1E4FC",
"W. c #D3E5FC",
"Q. c #D2E6FC",
"!. c #E8EDED",
"~. c #E9EFF5",
"^. c #ECF2F7",
"/. c #EAF1F8",
"(. c #EAF2FA",
"). c #EBF3FA",
"_. c #ECF2F8",
"`. c #EDF3F8",
"'. c #EDF4F8",
"]. c #EEF4F8",
"[. c #EDF4FA",
"{. c #EFF4FA",
"}. c #F0F4F8",
"|. c #F2F6FA",
" X c #F2F7FB",
".X c #F3F7FB",
"XX c #F4F7FB",
"oX c #F3F7FC",
"OX c #F4F8FC",
"+X c #F5F9FC",
"@X c #F7FAFD",
"#X c #F8FBFD",
"$X c #F8FBFF",
"%X c #FDFEFE",
"&X c None",
/* pixels */
"&X&X&XT R R R R R R Y I C &X&X&X",
"&X&XP ^.[.`.`.`.`.`.^.P.' ! &X&X",
"&X&XI |.N.D.D.V.n.c.s.$Xf.' Q &X",
"&X&XF w q 0 9 6 4 - 0.@XL.G.9.B ",
"&X&X= s >.-.*.d 8 4.s.~.^.|./.A ",
"&X&X3 1.u <.*.8 6.M.j.d.a.p.}.J ",
"&X% i 3.5 :.# 7.Q.L.M.v.g.g.`.L ",
"&X$ 1.,.u =.# @.#.+.$.z.n.v.`.L ",
"$ p y r =.;.a 1 <   5.x.M.n.(.S ",
"&X@ & %.O f t > 2 l.E.J.J.C.OXS ",
"&X&XG !.. < X 6.E.E.J.D.C.N.@XC ",
"&X&XS ; : * ~ _ ) ) ( ( ^ ^ @XM ",
"&X&XD o O.u.u.t.t.r.w.w.q.o.@Xm ",
"&X&XN k...} { ..X.X.] ] _ o.#Xk ",
"&X&Xm (.U.~.U.U.U.).[.(.|.@X%Xh ",
"&X&X&Xn n n n n n k k k k k j &X"
};
