/* XPM */
static char *edit_dmsl_xpm[] = {
/* columns rows colors chars-per-pixel */
"16 16 155 2",
"   c black",
".  c #070709",
"X  c #33322B",
"o  c #3A3A38",
"O  c #4B055A",
"+  c #4B065A",
"@  c #520B5D",
"#  c #530C5D",
"$  c #500C5E",
"%  c #510E5F",
"&  c #560D5E",
"*  c #510F60",
"=  c #590F60",
"-  c #561261",
";  c #561363",
":  c #581664",
">  c #591765",
",  c #601362",
"<  c #601F6A",
"1  c #60206B",
"2  c #66246D",
"3  c #6C266E",
"4  c #6B2E69",
"5  c #68286F",
"6  c #7B236E",
"7  c #752C72",
"8  c #702E74",
"9  c #6B3378",
"0  c #7E387B",
"q  c gray27",
"w  c #454547",
"e  c #464649",
"r  c gray33",
"t  c #585859",
"y  c #65405E",
"u  c #636366",
"i  c #717172",
"p  c #8D2B74",
"a  c #8E2C75",
"s  c #8F2D76",
"d  c #912D75",
"f  c #823477",
"g  c #843577",
"h  c #893177",
"j  c #823976",
"k  c #8E3078",
"l  c #8E3B7C",
"z  c #953A7E",
"x  c #953C7F",
"c  c #816D7F",
"v  c #7A4180",
"b  c #784482",
"n  c #7A4785",
"m  c #7F4A86",
"M  c #9A3C80",
"N  c #814180",
"B  c #884081",
"V  c #8B4D87",
"C  c #964B88",
"Z  c #86508A",
"A  c #90558B",
"S  c #915F91",
"D  c #925C92",
"F  c #9B5D92",
"G  c #A85992",
"H  c #896B85",
"J  c #8B7A88",
"K  c #8C6196",
"L  c #956191",
"P  c #946196",
"I  c #946397",
"U  c #956696",
"Y  c #966995",
"T  c #926E94",
"R  c #9D6799",
"E  c #99699B",
"W  c #9D6D9A",
"Q  c #9C709C",
"!  c #A4689B",
"~  c #A7699C",
"^  c #A277A3",
"/  c #A975A2",
"(  c #A079A5",
")  c #A07AA6",
"_  c #A17BA7",
"`  c #A578A5",
"'  c #A97BA7",
"]  c #B175A3",
"[  c #B07EA4",
"{  c gray51",
"}  c #838383",
"|  c #8E8A91",
" . c #948193",
".. c #A982AC",
"X. c #B082AC",
"o. c #B284AD",
"O. c #BF87AF",
"+. c #B188AF",
"@. c #AF8AB2",
"#. c #AD8FB4",
"$. c #B689B1",
"%. c #B88FB5",
"&. c #B290B5",
"*. c #B392B4",
"=. c #B492B6",
"-. c #B69BB9",
";. c #BC9DBE",
":. c #A2A2A4",
">. c gray65",
",. c #ACACAF",
"<. c #B0A9B0",
"1. c #B3ADB2",
"2. c #B1B1B2",
"3. c gray70",
"4. c #B4B3B7",
"5. c #BEB9BE",
"6. c gray",
"7. c #C89CBD",
"8. c #C3C2BD",
"9. c #C2A5C3",
"0. c #C5A5C2",
"q. c #C7ABC7",
"w. c #C8ABC0",
"e. c #CBA9C7",
"r. c #C8AAC6",
"t. c #C7AFC9",
"y. c #C8ADC8",
"u. c #CAB4CC",
"i. c #D3B4CC",
"p. c #D1B4CE",
"a. c #D4B5CC",
"s. c #D6B6CD",
"d. c #CDBFD0",
"f. c #CEBCD2",
"g. c #CEBDD2",
"h. c #CFBED4",
"j. c #D0BED3",
"k. c #D6BCD3",
"l. c #C5C3C1",
"z. c #C5C5C6",
"x. c #CACACB",
"c. c #CBCBCC",
"v. c #CFCFD0",
"b. c #D6C1D4",
"n. c #D2CBD1",
"m. c #D3CED3",
"M. c #DBCED8",
"N. c #D5D5D7",
"B. c #DBD6DE",
"V. c #D9D9DB",
"C. c #DEDEE0",
"Z. c #E1E1E1",
"A. c #E4E4E4",
"S. c #E6E6E6",
"D. c None",
/* pixels */
"D.D.D.D.D.D.D.Z.B.g.g.D.D.D.D.D.",
"D.D.C.S.b.#.K 9 + + v 6.D.D.D.D.",
"D.h.n * $ $ ; : - $ & n.D.D.D.D.",
"D.j.: 1 < _ _ m _ 2 & u.D.D.D.D.",
"D.5.& 2 v &.@...P Z > Q | S.D.D.",
"D.>.8 I ;.9.u.-.t.` ` j 4.l.D.D.",
"D.} D 3 =.q.U 7 &.%.D 4 V.X D.D.",
"D.r +.0 ' r.X.B 0.$.R  .8.o D.D.",
"D.D.b.V W o.i.k.e./ T N.H 3.D.D.",
"D.D.z.6 f W ! / ~ A J z.l c.D.D.",
"D.D.:.C h F D g Y j c.y p i.D.D.",
"D.D.i ] k x k p a H ,.[ a.<.D.D.",
"D.D.D.7.d M G 7.w.x.u q   D.D.D.",
"D.D.D.M.a.1.} q t 2.. D.D.D.D.D.",
"D.D.D.        D.v.e D.D.D.D.D.D.",
"D.D.D.D.D.D.D.D.D.D.D.D.D.D.D.D."
};
