/* XPM */
static char *profile_xpm[] = {
/* columns rows colors chars-per-pixel */
"16 16 124 2",
"   c #5C330F",
".  c #4B2E13",
"X  c #5B3315",
"o  c #713E0E",
"O  c #663B11",
"+  c #6E4015",
"@  c #754112",
"#  c #7D4211",
"$  c #724419",
"%  c #6B4522",
"&  c #253C6A",
"*  c #2D3E68",
"=  c #6D647A",
"-  c #873E0C",
";  c #874A0F",
":  c #874B0F",
">  c #8A480F",
",  c #8A4A0F",
"<  c #974B0F",
"1  c #874B11",
"2  c #854C15",
"3  c #8D4812",
"4  c #904B10",
"5  c #964E11",
"6  c #935311",
"7  c #995812",
"8  c #9B5812",
"9  c #9F5812",
"0  c #9B5E1F",
"q  c #925B2A",
"w  c #9A622D",
"e  c #A76823",
"r  c #A76D34",
"t  c #AE7434",
"y  c #CD7925",
"u  c #C77429",
"i  c #CA772A",
"p  c #CE7C28",
"a  c #CE7E2E",
"s  c #D17D29",
"d  c #A87B4D",
"f  c #A97B4E",
"g  c #B8977C",
"h  c #C89C71",
"j  c #D3A26D",
"k  c #D1A97F",
"l  c #EAB378",
"z  c #EDB87E",
"x  c #1F3D9F",
"c  c #1F40A0",
"v  c #1C46BE",
"b  c #1C48BC",
"n  c #2141A7",
"m  c #2245AA",
"M  c #2244AB",
"N  c #2246AC",
"B  c #2449B1",
"V  c #244FB2",
"C  c #2050B3",
"Z  c #3560BF",
"A  c #425088",
"S  c #44548A",
"D  c #58669F",
"F  c #616186",
"G  c #4A5EA4",
"H  c #1F49C5",
"J  c #1F4CC4",
"K  c #438DFF",
"L  c #4E97FE",
"P  c #539EFD",
"I  c #539CFE",
"U  c #509FFF",
"Y  c #54A0FD",
"T  c #55A3FF",
"R  c #57A2FE",
"E  c #59A5FE",
"W  c #59A8FE",
"Q  c #5AA8FE",
"!  c #5BACFF",
"~  c #5DACFE",
"^  c #5EB1FE",
"/  c #5FB6FF",
"(  c #78AEF8",
")  c #61B2FE",
"_  c #60B7FF",
"`  c #63B6FF",
"'  c #61B9FE",
"]  c #62B9FE",
"[  c #64B9FE",
"{  c #68BFFE",
"}  c #7AB7FF",
"|  c #63C0FF",
" . c #6DC7FE",
".. c #69C9FF",
"X. c #72D4FF",
"o. c #828FBC",
"O. c #949EB3",
"+. c #DFB589",
"@. c #EEBA82",
"#. c #EFBC83",
"$. c #E4B78A",
"%. c #E5BB8E",
"&. c #F1C597",
"*. c #F8CC9C",
"=. c #EECAA6",
"-. c #EECDA7",
";. c #EACCAB",
":. c #F6CFA5",
">. c #F6D0A7",
",. c #F6D0A8",
"<. c #F7D4AF",
"1. c #80A9FE",
"2. c #84BBF5",
"3. c #80C1FF",
"4. c #98D1FF",
"5. c #ABC8FC",
"6. c #A4E4FF",
"7. c #EEDFCD",
"8. c #F7E8D9",
"9. c #C3D6F3",
"0. c #C6D7F6",
"q. c #D4E2F4",
"w. c #D6E4F6",
"e. c None",
/* pixels */
"e.e.e.e.e.e.e.e.e.e.e.e.e.e.e.e.",
"e.e.e.e.e.e.3 4 , # X e.e.e.e.e.",
"e.e.e.e.e.5 7 7 6 , o . e.e.e.e.",
"e.e.e.e.< 9 , : 1 2 @   e.e.e.e.",
"e.e.e.e.- g $.h + $ % O e.e.e.e.",
"e.e.e.e.0 8.&.%.k +.7.e e.e.e.e.",
"e.e.e.e.q =.;.>.,.;.-.w e.e.e.e.",
"e.e.e.e.& r *.<.<.:.t * e.e.e.e.",
"e.e.e.e.b q.d d d d 0.B e.e.e.e.",
"e.e.e.J w.6.X...{ _  .0.H e.e.e.",
"e.e.S 5.4. .{ [ ^ W Y } 1.A e.e.",
"e.s l O._ ` ) ~ T P L K o.@.i e.",
"e.s @.D 2.! W R P T P ( G #.i e.",
"e.e.y F Z ' ' ' ' ' ' B = a j e.",
"e.e.e.e.C n M N M n x V e.e.e.e.",
"e.e.e.e.e.e.e.e.e.e.e.e.e.e.e.e."
};
