/* XPM */
static char *profile_conf_add_xpm[] = {
/* columns rows colors chars-per-pixel */
"16 16 114 2",
"   c #376B19",
".  c #3A6D1D",
"X  c #3B6D1E",
"o  c #3D6E20",
"O  c #774E26",
"+  c #4C7B31",
"@  c #976330",
"#  c #538C28",
"$  c #578F2D",
"%  c #5E8746",
"&  c #618A49",
"*  c #668E4F",
"=  c #6F8C5F",
"-  c #72965D",
";  c #B6804D",
":  c #BD9A75",
">  c #81AB61",
",  c #87B960",
"<  c #87BA60",
"1  c #8BBA62",
"2  c #8DBA64",
"3  c #8CBC65",
"4  c #8FBC67",
"5  c #8FBB6A",
"6  c #7696A6",
"7  c #779BB1",
"8  c #569DDB",
"9  c #7F9BCD",
"0  c #78ABCF",
"q  c #79ABD4",
"w  c #5DAEF7",
"e  c #54A5F9",
"r  c #5CA6FF",
"t  c #60A5E0",
"y  c #69A9E4",
"u  c #6AAEE6",
"i  c #74AFE4",
"p  c #74B6EC",
"a  c #64BBFF",
"s  c #65BCFF",
"d  c #78BAF3",
"f  c #66C0FF",
"g  c #BA9A82",
"h  c #94A689",
"j  c #A6BD99",
"k  c #A9BD9E",
"l  c #8A94AC",
"z  c #B9B5A2",
"x  c #B5B1B3",
"c  c #B6B6B6",
"v  c #B7B7B7",
"b  c #B9B9B9",
"n  c #BBBBBB",
"m  c #BCBCBC",
"M  c gray",
"N  c gray75",
"B  c #B1D390",
"V  c #B1D692",
"C  c #B2D295",
"Z  c #B4D495",
"A  c #B6D49C",
"S  c #F3C89D",
"D  c #C5C3B0",
"F  c #F8CEA1",
"G  c #D0E6BA",
"H  c #81ADCF",
"J  c #94B6C6",
"K  c #8EBCEF",
"L  c #88C2EF",
"P  c #89C8FA",
"I  c #8DC9F8",
"U  c #8ECCFB",
"Y  c #8ECCFC",
"T  c #C0C0C0",
"R  c gray76",
"E  c #C3C3C3",
"W  c #C5C5C5",
"Q  c #CBCBCB",
"!  c gray80",
"~  c #CECECE",
"^  c gray82",
"/  c LightGray",
"(  c gray83",
")  c gray84",
"_  c #D7D7D7",
"`  c #D8D8D8",
"'  c #DADADA",
"]  c gray86",
"[  c #DDDDDD",
"{  c #DFDFDF",
"}  c #E1E1E1",
"|  c #E2E2E2",
" . c gray89",
".. c #E4E4E4",
"X. c gray90",
"o. c #E6E6E6",
"O. c #EAEAEA",
"+. c gray92",
"@. c #ECECEC",
"#. c gray93",
"$. c #EEEEEE",
"%. c #EFEFEF",
"&. c #F1F1F1",
"*. c #F3F3F3",
"=. c #F4F4F4",
"-. c gray96",
";. c #F6F6F6",
":. c gray97",
">. c #F8F8F8",
",. c #F9F9F9",
"<. c gray98",
"1. c gray99",
"2. c gray100",
"3. c None",
/* pixels */
"3.3.3.3.3.3.3.3.3.3.3.3.3.3.3.3.",
"3.3.3.3.3.3.3.3.3.3.3.3.3.3.3.3.",
"3.3.3.3.3.3.3.3.3.3.3.3.3.3.3.3.",
"3....... . .{ [ ] ] ) / / ~ Q 3.",
"O.<.<.<.<.<.<.>.=.<.=.=.=.*.=.W ",
"..2.Y L 7 6 0 Y ] 2.p u t 8 2.R ",
"..2.Y g ; @ O I ) =.=.=.*.$.2.N ",
" .2.Y x S S : Y ] =.c c c c 2.N ",
"[ 2.P 9 z D l d ] $.%.$.O.O.2.b ",
"[ 2.q K f e r i ] $.h - * % j c ",
"] 2.J y a s w H ) k > C G 5 $ = ",
") 2.2.2.2.=.$.O.O.& B V 2.4 4 X ",
") 2. .Q  .2.2.2.2.+ A 2.2.2.C   ",
"/ ~ Q 3.W R N N b X 1 , 2., 4 . ",
"3.3.3.3.3.3.3.3.3.. # 2 C 2 #   ",
"3.3.3.3.3.3.3.3.3.3.          3."
};
