/* XPM */
static char *profile_add_xpm[] = {
/* columns rows colors chars-per-pixel */
"16 16 124 2",
"   c #5C330F",
".  c #4B2E13",
"X  c #5B3315",
"o  c #713E0E",
"O  c #663B11",
"+  c #376B19",
"@  c #3A6E22",
"#  c #6E4015",
"$  c #754112",
"%  c #7D4211",
"&  c #724419",
"*  c #6B4522",
"=  c #4C7B31",
"-  c #253C6A",
";  c #2D3E68",
":  c #2D575C",
">  c #873E0C",
",  c #874A0F",
"<  c #874B0F",
"1  c #8A480F",
"2  c #8A4A0F",
"3  c #974B0F",
"4  c #874B11",
"5  c #854C15",
"6  c #8D4812",
"7  c #904B10",
"8  c #964E11",
"9  c #935311",
"0  c #995812",
"q  c #9B5812",
"w  c #9F5812",
"e  c #9B5E1F",
"r  c #925B2A",
"t  c #9A622D",
"y  c #A76823",
"u  c #A76D34",
"i  c #AE7434",
"p  c #CD7925",
"a  c #CE7C28",
"s  c #D17D29",
"d  c #A87B4D",
"f  c #A97B4E",
"g  c #538C28",
"h  c #578F2D",
"j  c #578342",
"k  c #5D884A",
"l  c #668E4F",
"z  c #729760",
"x  c #B8977C",
"c  c #81AB61",
"v  c #87B960",
"b  c #87BA60",
"n  c #8BBA62",
"m  c #8DBA64",
"M  c #8CBC65",
"N  c #8FBC67",
"B  c #8FBB6A",
"V  c #C89C71",
"C  c #D1A97F",
"Z  c #EAB378",
"A  c #1F40A0",
"S  c #1C46BE",
"D  c #1C48BC",
"F  c #2245AA",
"G  c #2244AB",
"H  c #2246AC",
"J  c #2050B3",
"K  c #3560BF",
"L  c #44548A",
"P  c #58669F",
"I  c #616186",
"U  c #1F4CC4",
"Y  c #619BA7",
"T  c #78ABAE",
"R  c #539CFE",
"E  c #57A2FE",
"W  c #59A5FE",
"Q  c #5AA8FE",
"!  c #5BACFF",
"~  c #5DACFE",
"^  c #5EB1FE",
"/  c #5FB6FF",
"(  c #61B2FE",
")  c #60B7FF",
"_  c #63B6FF",
"`  c #61B9FE",
"'  c #62B9FE",
"]  c #64B9FE",
"[  c #68BFFE",
"{  c #63C0FF",
"}  c #6DC7FE",
"|  c #69C9FF",
" . c #72D4FF",
".. c #949EB3",
"X. c #DFB589",
"o. c #EEBA82",
"O. c #E4B78A",
"+. c #E5BB8E",
"@. c #B1D390",
"#. c #B1D692",
"$. c #B2D295",
"%. c #B4D495",
"&. c #B6D49C",
"*. c #F1C597",
"=. c #F8CC9C",
"-. c #EECAA6",
";. c #EECDA7",
":. c #EACCAB",
">. c #F6CFA5",
",. c #F6D0A7",
"<. c #F6D0A8",
"1. c #F7D4AF",
"2. c #D0E6BA",
"3. c #84BBF5",
"4. c #98D1FF",
"5. c #ABC8FC",
"6. c #A4E4FF",
"7. c #EEDFCD",
"8. c #F7E8D9",
"9. c #C3D6F3",
"0. c #D4E2F4",
"q. c #D6E4F6",
"w. c gray100",
"e. c None",
/* pixels */
"e.e.e.e.e.e.e.e.e.e.e.e.e.e.e.e.",
"e.e.e.e.e.e.6 7 2 % X e.e.e.e.e.",
"e.e.e.e.e.8 0 0 9 2 o . e.e.e.e.",
"e.e.e.e.3 w 2 < 4 5 $   e.e.e.e.",
"e.e.e.e.> x O.V # & * O e.e.e.e.",
"e.e.e.e.e 8.*.+.C X.7.y e.e.e.e.",
"e.e.e.e.r -.:.,.<.:.;.t e.e.e.e.",
"e.e.e.e.- u =.1.1.>.i ; e.e.e.e.",
"e.e.e.e.D 0.d d d d 9.D e.e.e.e.",
"e.e.e.U q.6. .| [ ) T z l k e.e.",
"e.e.L 5.4.} { ] ^ Y z %.2.N h + ",
"e.s Z ..) _ ( ~ W k #.#.w.M N + ",
"e.s o.P 3.! Q E R = &.w.w.w.$.+ ",
"e.e.p I K ' ' ' ' @ n b w.b N + ",
"e.e.e.e.J A G H G : g m $.m g + ",
"e.e.e.e.e.e.e.e.e.e.+ + + + + e."
};
