/* XPM */
static char *profile_root_xpm[] = {
/* columns rows colors chars-per-pixel */
"16 16 133 2",
"   c #2E652B",
".  c #2D7E27",
"X  c #396935",
"o  c #69572D",
"O  c #2C5574",
"+  c #96540F",
"@  c #9D5F15",
"#  c #945723",
"$  c #8F5732",
"%  c #996B23",
"&  c #9F6F22",
"*  c #825E40",
"=  c #905B41",
"-  c #925D41",
";  c #925D43",
":  c #956142",
">  c #966043",
",  c #956144",
"<  c #986744",
"1  c #9A6950",
"2  c #A77A41",
"3  c #A57355",
"4  c #937464",
"5  c #92776B",
"6  c #94796D",
"7  c #3E843B",
"8  c #5A8F5A",
"9  c #64A356",
"0  c #67A759",
"q  c #64A45C",
"w  c #68A859",
"e  c #619660",
"r  c #7F8C75",
"t  c #74B46B",
"y  c #70B06D",
"u  c #79C96A",
"i  c #7BCB6A",
"p  c #BF8331",
"a  c #E5A619",
"s  c #E4A51B",
"d  c #E5A71D",
"f  c #D49723",
"g  c #D39725",
"h  c #D28434",
"j  c #DF913F",
"k  c #DEA021",
"l  c #DFA321",
"z  c #E5AE34",
"x  c #E6AD3B",
"c  c #898354",
"v  c #9E8F6F",
"b  c #89947D",
"n  c #AE8063",
"m  c #AC8571",
"M  c #DE964E",
"N  c #E69B4C",
"B  c #C4986C",
"V  c #D6A472",
"C  c #D6A67C",
"Z  c #E6B865",
"A  c #E7AD73",
"S  c #E7B27D",
"D  c #83CB70",
"F  c #88CD72",
"G  c #8ECD71",
"H  c #89CD75",
"J  c #8FCE76",
"K  c #8ECE77",
"L  c #8FCE78",
"P  c #91CE76",
"I  c #97CE77",
"U  c #94CF79",
"Y  c #9FD07C",
"T  c #0939A8",
"R  c #254385",
"E  c #2348A9",
"W  c #3755A4",
"Q  c #756680",
"!  c #7E7387",
"~  c #556FB4",
"^  c #3470CB",
"/  c #3F7ACD",
"(  c #5273CD",
")  c #597EC8",
"_  c #417CD1",
"`  c #417ED2",
"'  c #417ED3",
"]  c #5B7DD6",
"[  c #7592A0",
"{  c #7D9EA7",
"}  c #5788DE",
"|  c #4D93FD",
" . c #4D97FF",
".. c #7594E4",
"X. c #55A0FD",
"o. c #57A7FF",
"O. c #5BA7FE",
"+. c #56B4FF",
"@. c #5FB0FE",
"#. c #5EB0FF",
"$. c #5DB2FF",
"%. c #5CB4FF",
"&. c #5FB8FF",
"*. c #73AFE7",
"=. c #61B7FF",
"-. c #66BAFF",
";. c #5EC0FF",
":. c #65CAFF",
">. c #939984",
",. c #85BF82",
"<. c #A29FB3",
"1. c #86AAAD",
"2. c #CCAC93",
"3. c #E3B181",
"4. c #DBBFA7",
"5. c #ABD89D",
"6. c #B1D5A4",
"7. c #F6C88D",
"8. c #E7C092",
"9. c #F1C596",
"0. c #F3C696",
"q. c #FBD0A1",
"w. c #F2D1AC",
"e. c #FDD7AE",
"r. c #E4CFB6",
"t. c #E7D0B8",
"y. c #F5D4B0",
"u. c #9CCAF7",
"i. c #92C5FF",
"p. c #84D6FF",
"a. c #B2D7FD",
"s. c #C0E8FF",
"d. c None",
/* pixels */
"d.d.d.d.d.d.d.d.d.g s k & d.d.d.",
"d.d.d.d.d.d.d.d.l a a a a % d.d.",
"d.d.d.d.d.d.d.@ z Z 7.x l g d.d.",
"d.d.d.d.d.d.d.+ t.9.q.0.r.h d.d.",
"d.d.d.d.d.d.d.d.V w.e.w.8.$ d.d.",
"d.d.d.d.: - , o 5 A 3.S m   d.d.",
"d.d.d., = = = = v >.>.r 6.i 7 d.",
"d.d.$ 1 n C 3 - < Y U K H 5.t X ",
"d.d.# 4.9.q.9.r.2 K H D i u e M ",
"d.d.d.V w.e.w.8.c U K K U t 8 N ",
"d.d.d.6 A S S B O q 0 0 9 7 Q d.",
"d.d.( s.1.{ [ u...T d.d.d.d.d.d.",
"d.~ a.p.:.;.+.o.i.] R d.d.d.d.d.",
"h 2.*.&.@.X.X. .| <.M d.d.d.d.d.",
"j m } -.+.#.%.%.} ! N d.d.d.d.d.",
"d.d.W ^ } _ _ / E 4 d.d.d.d.d.d."
};
