/* XPM */
static char *profile_conf_xpm[] = {
/* columns rows colors chars-per-pixel */
"16 16 94 2",
"   c #774E26",
".  c #976330",
"X  c #B6804D",
"o  c #BD9A75",
"O  c #7696A6",
"+  c #779BB1",
"@  c #569DDB",
"#  c #7F9BCD",
"$  c #78ABCF",
"%  c #79ABD4",
"&  c #5DAEF7",
"*  c #54A5F9",
"=  c #5CA6FF",
"-  c #60A5E0",
";  c #69A9E4",
":  c #6AAEE6",
">  c #74AFE4",
",  c #74B6EC",
"<  c #64BBFF",
"1  c #65BCFF",
"2  c #78BAF3",
"3  c #66C0FF",
"4  c #BA9A82",
"5  c #8A94AC",
"6  c #B9B5A2",
"7  c gray69",
"8  c #B2B2B2",
"9  c #B5B1B3",
"0  c #B4B4B4",
"q  c gray71",
"w  c #B6B6B6",
"e  c #B7B7B7",
"r  c #B9B9B9",
"t  c #BBBBBB",
"y  c #BCBCBC",
"u  c gray",
"i  c gray75",
"p  c #F3C89D",
"a  c #C5C3B0",
"s  c #F8CEA1",
"d  c #81ADCF",
"f  c #94B6C6",
"g  c #8EBCEF",
"h  c #88C2EF",
"j  c #89C8FA",
"k  c #8DC9F8",
"l  c #8ECCFB",
"z  c #8ECCFC",
"x  c #C0C0C0",
"c  c gray76",
"v  c #C3C3C3",
"b  c #C5C5C5",
"n  c #CBCBCB",
"m  c gray80",
"M  c #CECECE",
"N  c gray82",
"B  c #D2D2D2",
"V  c LightGray",
"C  c gray83",
"Z  c #D5D5D5",
"A  c gray84",
"S  c #D7D7D7",
"D  c #D8D8D8",
"F  c #DADADA",
"G  c gray86",
"H  c #DDDDDD",
"J  c #DFDFDF",
"K  c #E1E1E1",
"L  c #E2E2E2",
"P  c gray89",
"I  c #E4E4E4",
"U  c gray90",
"Y  c #E6E6E6",
"T  c gray91",
"R  c #E9E9E9",
"E  c #EAEAEA",
"W  c gray92",
"Q  c #ECECEC",
"!  c gray93",
"~  c #EEEEEE",
"^  c #EFEFEF",
"/  c gray94",
"(  c #F1F1F1",
")  c #F3F3F3",
"_  c #F4F4F4",
"`  c gray96",
"'  c #F6F6F6",
"]  c gray97",
"[  c #F8F8F8",
"{  c #F9F9F9",
"}  c gray98",
"|  c gray99",
" . c gray100",
".. c None",
/* pixels */
"................................",
"................................",
"................................",
"..I I I P P H H G G A V V M n ..",
"T } } } } } [ [ _ } _ _ _ ) _ b ",
"I  .z h + O $ z G  ., : - @  .c ",
"I  .z 4 X .   k A _ _ _ ) ~  .i ",
"P  .z 9 p s o k G _ r q q q  .i ",
"H  .j # 6 a 5 2 G ~ ) ~ T T  .r ",
"H  .% g 3 * = > G ~ q r q r  .q ",
"G  .f ; 1 1 & d A ~ T I T T  .q ",
"A  . . . ._ ~ T T T )  . . . .8 ",
"A  .P n H  . . . . . .A q V  .7 ",
"V M n ..b b c i r r q q ..8 7 7 ",
"................................",
"................................"
};
