/* XPM */
static char *save_all_xpm[] = {
/* columns rows colors chars-per-pixel */
"16 16 119 2",
"   c #84BF51",
".  c #84BF54",
"X  c #98C96F",
"o  c #99C971",
"O  c #2E5FA6",
"+  c #3A69AA",
"@  c #3E6AAB",
"#  c #3368BA",
"$  c #446DAB",
"%  c #4470B0",
"&  c #577EBB",
"*  c #537FC1",
"=  c #517FC3",
"-  c #5D84BF",
";  c #5380C5",
":  c #5481C4",
">  c #5583C6",
",  c #5884C3",
"<  c #5B86C7",
"1  c #5D88C8",
"2  c #5F89C9",
"3  c #618AC7",
"4  c #668EC7",
"5  c #6089C9",
"6  c #618BC9",
"7  c #628BC8",
"8  c #618BCB",
"9  c #658DCA",
"0  c #658DCC",
"q  c #6C8BCD",
"w  c #688ECD",
"e  c #6990CD",
"r  c #6E93CC",
"t  c #6F96CC",
"y  c #7398CE",
"u  c #688BD3",
"i  c #6E8AD7",
"p  c #6D8BDA",
"a  c #6C8DDC",
"s  c #6E97D4",
"d  c #7197D0",
"f  c #7198D0",
"g  c #7399D1",
"h  c #7599D1",
"j  c #759AD0",
"k  c #779AD2",
"l  c #779BD2",
"z  c #779CD2",
"x  c #739AD4",
"c  c #7A9DD3",
"v  c #799CD5",
"b  c #7B9ED4",
"n  c #779ED9",
"m  c #789ED8",
"M  c #789FD8",
"N  c #799FDB",
"B  c #7B9CDD",
"V  c #79A0D9",
"C  c #7AA0D9",
"Z  c #7DA2D9",
"A  c #7CA3DB",
"S  c #7BA1DC",
"D  c #7DA3DE",
"F  c #7EA5DD",
"G  c #708FE1",
"H  c #C7EE87",
"J  c #C7EE8C",
"K  c #D7F4A2",
"L  c #D7F6A2",
"P  c #80A3D5",
"I  c #82A4D6",
"U  c #85A2DD",
"Y  c #80A6DD",
"T  c #85A8DD",
"R  c #8FAEDA",
"E  c #91B6D6",
"W  c #81A7E1",
"Q  c #81A7E2",
"!  c #8CAFE4",
"~  c #92B5E6",
"^  c #9CBCE0",
"/  c #97B6EA",
"(  c #96B2EE",
")  c #9AB6EF",
"_  c #99B8EA",
"`  c #9BBDED",
"'  c #9EBCEE",
"]  c #A1BEEA",
"[  c #A1BFEA",
"{  c #A1BFEF",
"}  c #9EC0EF",
"|  c #B3C7E3",
" . c #BBCDE6",
".. c #BACEEF",
"X. c #B0CDF3",
"o. c #B8D2F4",
"O. c #FFFFDD",
"+. c #E9F4E4",
"@. c #E5F1ED",
"#. c #E6F1ED",
"$. c #E6F0EF",
"%. c #E6F1EF",
"&. c #E8F3EA",
"*. c LightYellow",
"=. c #EAF3F3",
"-. c #EDF5F3",
";. c #EDF1F8",
":. c #F2F6FB",
">. c #F1F8FF",
",. c #F7FBFF",
"<. c #FAFBFD",
"1. c #FAFCFD",
"2. c #FBFCFD",
"3. c #FBFCFE",
"4. c #FCFDFE",
"5. c #FDFDFE",
"6. c #FEFFFF",
"7. c gray100",
"8. c None",
/* pixels */
"8.8.8.8.8.8.8.8.8.8.8.8.8.8.8.8.",
"8.s b f I w e k f 6 8.8.8.8.8.8.",
"8.0 X.7.| 7.7.7.7.] 1 8.8.8.8.8.",
"8.< } Z c P R k k c f 7 8.8.8.8.",
"8.1 } k o.7. .7.7.:.-.' 6 8.8.8.",
"8.9 _ 1 ` s b f I w w k f 6 8.8.",
"8.6 ~ 6 ' 0 X.7.| 7.7.7.7.] 6 8.",
"8.: / y ] < ` 7.r 7.7.<.>.! 3 8.",
"8.; ) t E 1 ` 3.3.7.<.<.<.T & 8.",
"8.: ..4 ^ 9 _ F F A A N N m , 8.",
"8.# < ; ( 7 ~ W W D S N N x & 8.",
"8.8.8.> ..: / =.#.#.#.#.-.b % 8.",
"8.8.8.# , ; ) &.. X o . +.B + 8.",
"8.8.8.8.8.> ..O.H K L J O.U @ 8.",
"8.8.8.8.8.# , u G p p p q $ O 8.",
"8.8.8.8.8.8.8.8.8.8.8.8.8.8.8.8."
};
