/* XPM */
static char *script_conf_xpm[] = {
/* columns rows colors chars-per-pixel */
"16 16 178 2",
"   c #0D3248",
".  c #0B354D",
"X  c #16394E",
"o  c #183B4F",
"O  c #073C5A",
"+  c #053F5F",
"@  c #103C55",
"#  c #183C51",
"$  c #243142",
"%  c #243143",
"&  c #043F61",
"*  c #18435B",
"=  c #32455D",
"-  c #33465F",
";  c #044062",
":  c #054163",
">  c #144C6C",
",  c #164D6D",
"<  c #184F6E",
"1  c #1B5271",
"2  c #354861",
"3  c #354962",
"4  c #354963",
"5  c #364963",
"6  c #364A63",
"7  c #364A64",
"8  c #374A64",
"9  c #374B65",
"0  c #265A78",
"q  c #2F607C",
"w  c #32637F",
"e  c #435968",
"r  c #4D5F6B",
"t  c #56606E",
"y  c #556D7B",
"u  c #386782",
"i  c #3D6B86",
"p  c #3F6C87",
"a  c #446E86",
"s  c #4C778F",
"d  c #53788C",
"f  c #527B92",
"g  c #527C93",
"h  c #567E95",
"j  c #667B88",
"k  c #607E8F",
"l  c #5E849A",
"z  c #688697",
"x  c #63889D",
"c  c #688CA0",
"v  c #7A9AAC",
"b  c #7F9DAF",
"n  c #82949F",
"m  c #979797",
"M  c #8498A3",
"N  c #8A9DA7",
"B  c #8B99AD",
"V  c #969DA5",
"C  c #8E9CB1",
"Z  c #8F9EB2",
"A  c #909EB2",
"S  c #909FB3",
"D  c #919FB4",
"F  c #949EB4",
"G  c #88A4B4",
"H  c #92A1B6",
"J  c #93A2B6",
"K  c #93A2B7",
"L  c #95AFBD",
"P  c #9AA8BD",
"I  c #A0A7B2",
"U  c #A7ADB1",
"Y  c #A6AFB4",
"T  c #A7B2C1",
"R  c #A1B6C2",
"E  c #A0B6C3",
"W  c #AAB7C7",
"Q  c #AFBCC5",
"!  c #A3B2C8",
"~  c #AFBBC9",
"^  c #A8B8CE",
"/  c #B9BFC7",
"(  c #B5BFCB",
")  c #A7B7D7",
"_  c #ADBDD3",
"`  c #AFBFDE",
"'  c #A8BAE0",
"]  c #BDC1C7",
"[  c #BBC1C9",
"{  c #BCC4C9",
"}  c #BCC3CC",
"|  c #B6C1D0",
" . c #B7C7D7",
".. c #BCC8D6",
"X. c #BFCFD7",
"o. c #B2C2D8",
"O. c #B8C6E5",
"+. c #B2C3E8",
"@. c #BACBED",
"#. c #C0C7CF",
"$. c #C1C8CD",
"%. c #C0CBD1",
"&. c #C2C8D6",
"*. c #C3CDD8",
"=. c #C0CDDF",
"-. c #C1CDDF",
";. c #C3D1DA",
":. c #CCD1DB",
">. c #CDD3DA",
",. c #CDD3DB",
"<. c #CFD6DE",
"1. c #D3D6D9",
"2. c #D1D4DA",
"3. c #D6D9DB",
"4. c #D6D9DD",
"5. c #D5DADD",
"6. c gray85",
"7. c #DBDCDD",
"8. c #DFDFDF",
"9. c #C4CFE5",
"0. c #C1D0E1",
"q. c #C6D3E2",
"w. c #CDD5E1",
"e. c #C3D0EB",
"r. c #CED7E9",
"t. c #CBD9E9",
"y. c #D4DBE0",
"u. c #D3DDE3",
"i. c #D1D9E4",
"p. c #DBDFE3",
"a. c #DDDFE2",
"s. c #D0DBE9",
"d. c #D0DFEF",
"f. c #C1D0F0",
"g. c #C8D5F2",
"h. c #DFE0E2",
"j. c #DEE0E3",
"k. c #DCE1E5",
"l. c #DDE3EA",
"z. c #DFE7EB",
"x. c #D8E3EF",
"c. c #DCE4ED",
"v. c #D4E2F2",
"b. c #E1E1E1",
"n. c #E2E4E6",
"m. c #E4E5E6",
"M. c #E4E6E7",
"N. c #E1E5E8",
"B. c #E2E5E9",
"V. c #E5E7E9",
"C. c #E1E8ED",
"Z. c #E6ECEF",
"A. c #E9E9E9",
"S. c #EAEAEA",
"D. c #EAEBEB",
"F. c #ECECEC",
"G. c #EAEFF2",
"H. c #E8EDF4",
"J. c #EFF0F0",
"K. c gray95",
"L. c #F0F1F4",
"P. c #F1F3F4",
"I. c #F1F4F6",
"U. c #F2F4F6",
"Y. c #F4F4F4",
"T. c #F4F4F5",
"R. c #F6F6F6",
"E. c #F4F7F8",
"W. c #F9F9F9",
"Q. c #F8F9FB",
"!. c #F9FAFB",
"~. c gray98",
"^. c #F9FBFC",
"/. c #FDFDFD",
"(. c #FDFEFE",
"). c #FEFEFE",
"_. c gray100",
"`. c None",
/* pixels */
"`.`.`.`.S.8.`.`.`.`.`.`.`.`.`.`.",
"`.`.o.H.G L E.=._ ^ ! <.`.`.`.`.",
"`.`.=.).X.q z /.W.^.P 2 T `.`.`.",
"`.C.z.).^.l e /.K.T.H | 2 T `.`.",
").E B H.X.s N R.A.F.B 5 7 9 `.`.",
"`.y.X . 0 i > y.D.7.n.9.e.7 `.`.",
"`.6.5.U X.* + q Z.h.2.k.O.2 `.`.",
"`.`.W T.J.X.@ + p U.y.,.o.2 `.`.",
"`.`.H V.3.m.R & < f ^.,.) 2 `.`.",
"`.`.C m.2.] a.v & > c U.).[ `.`.",
"`.`.C l.2...( a.k O : u l x b.`.",
"`.`.C z.i.*.( [ W.a   r M o { `.",
"`.`.H x.s.q...( L.g y B.&.n Y `.",
"`.`.H v.d.t.0. .W.1 d p.F V m `.",
"`.`.H g.f.@.+.` r.Q # j ,.% `.`.",
"`.`.K 7 2 2 5 - = P L.m.t % `.`."
};
