/* XPM */
static char *select_xpm[] = {
/* columns rows colors chars-per-pixel */
"16 16 22 1",
"  c #005206",
". c #00CC0F",
"X c #00D210",
"o c #00D710",
"O c #00E711",
"+ c #00E911",
"@ c #00EB12",
"# c #00EF12",
"$ c #00F612",
"% c #00FA13",
"& c #00FC13",
"* c #00FF13",
"= c #14FF26",
"- c #15FF26",
"; c #69996D",
": c #56FF63",
"> c #63FF6F",
", c #65FF70",
"< c #82FF8B",
"1 c #87FF90",
"2 c #8DFF95",
"3 c None",
/* pixels */
"3333333333333333",
"3333333333333333",
"333333;  ;333333",
"333333 2> ;33333",
"333333 &&= ;3333",
"333333; &-- ;333",
"33;     >&-- ;33",
"33 2111<:&&-# 33",
"33 @XXXO$&&@o 33",
"33;     &&@X ;33",
"333333; >@X ;333",
"333333 ,&X ;3333",
"333333 @. ;33333",
"333333;  ;333333",
"3333333333333333",
"3333333333333333"
};
