/* XPM */
static char *auto_complete_index_xpm[] = {
/* columns rows colors chars-per-pixel */
"12 12 43 1",
"  c #003399",
". c #1E4EA9",
"X c #2857AF",
"o c #295AB0",
"O c #3563B5",
"+ c #5A9AD7",
"@ c #5B9BD8",
"# c #5C9BD8",
"$ c #78AFE3",
"% c #79B0E3",
"& c #79B0E4",
"* c #7BB2E5",
"= c #7DB2E5",
"- c #7CB3E7",
"; c #7CB4E9",
": c #ACBDDE",
"> c #82B7EA",
", c #8ABDEE",
"< c #8EC2F3",
"1 c #8BC0F4",
"2 c #91C3F1",
"3 c #90C4F6",
"4 c #9DC9F2",
"5 c #99CDFF",
"6 c #9DCFFE",
"7 c #9FD0FE",
"8 c #B5C4E1",
"9 c #BECBE5",
"0 c #BFD8EF",
"q c #A1D0FE",
"w c #A3D1FE",
"e c #AFD6FC",
"r c #B2D8FB",
"t c #C2D9F0",
"y c #C5DBF1",
"u c #CDE3F9",
"i c #D2E6F8",
"p c #D2E6F9",
"a c #D3E7FA",
"s c #D5E8FB",
"d c #DEEDFA",
"f c #E7F1FB",
"g c gray100",
/* pixels */
"ggggga=fgggg",
"ggggu$,%dggg",
"ggga%35<%agg",
"ggs*155q4ogg",
"gg=2657r. gg",
"gg@>rqrX  gg",
"gg@@;eO   gg",
"gg#@@    9gg",
"gg0+@   8ggg",
"gggt+  8gggg",
"ggggy :ggggg",
"gggggggggggg"
};
