/* XPM */
static char *auto_complete_attr_xpm[] = {
/* columns rows colors chars-per-pixel */
"12 12 29 1",
"  c #4D2704",
". c #502903",
"X c #5C2E01",
"o c #5E2F01",
"O c #602F01",
"+ c #623001",
"@ c #663200",
"# c #62360D",
"$ c #6F3B09",
"% c #6E3C0E",
"& c #743F0B",
"* c #713D0C",
"= c #754211",
"- c #7D4815",
"; c #834B16",
": c #834C18",
"> c #844D1A",
", c #864F1B",
"< c #864F1C",
"1 c #87501C",
"2 c #A36427",
"3 c #A46427",
"4 c #A56528",
"5 c #CA9C4A",
"6 c #D6A54F",
"7 c #D7A850",
"8 c #E1B156",
"9 c #FFCC66",
"0 c gray100",
/* pixels */
"000000000000",
"00000,=<0000",
"0000,1=<<000",
"000,,$@*<<00",
"00,,&@@o#600",
"00:%+@O 8900",
"003- o 79900",
"0032;.599900",
"002239999900",
"002429999000",
"000249990000",
"000029900000"
};
