/* XPM */
static char *auto_complete_function_xpm[] = {
/* columns rows colors chars-per-pixel */
"12 12 58 1",
"  c #712472",
". c #752775",
"X c #7A2B7B",
"o c #7C2D7D",
"O c #7C2E7C",
"+ c #7E2E7E",
"@ c #7E307F",
"# c #7F3080",
"$ c #8D358E",
"% c #953896",
"& c #9C3C9D",
"* c #9F3C9F",
"= c #8E468F",
"- c #904E91",
"; c #965297",
": c #A74FA8",
"> c #A650A7",
", c #A850A9",
"< c #A950AA",
"1 c #A952AA",
"2 c #BB6FBC",
"3 c #BC70BD",
"4 c #CB67CC",
"5 c #D16AD2",
"6 c #D26BD3",
"7 c #D16DD2",
"8 c #D36ED4",
"9 c #D56FD5",
"0 c #CF88CF",
"q c #DD98DE",
"w c #E698E7",
"e c #E990EA",
"r c #EB91EC",
"t c #EE9DEF",
"y c #FA98FB",
"u c #FA99FB",
"i c #FA9BFB",
"p c #FA9FFB",
"a c #E3ACE3",
"s c #E2AFE2",
"d c #EEA5EF",
"f c #EEBEEE",
"g c #FAABFB",
"h c #FAAEFB",
"j c #E4CAE4",
"k c #E6CCE6",
"l c #E8D1E8",
"z c #EBD1EB",
"x c #ECD2EC",
"c c #EDD8ED",
"v c #F0D4F0",
"b c #F0D5F0",
"n c #F2DBF2",
"m c #F0E3F0",
"M c #F2E0F3",
"N c #F3E3F3",
"B c #F4E6F4",
"V c gray100",
/* pixels */
"VVVVVVVVVVVV",
"VVVVn0mVVVVV",
"VVVn0a0mVVVV",
"VVv0fhr0mVVV",
"VV0sgiye0BVV",
"VV:2diyiw-VV",
"VV,62dpt;OVV",
"VV<592q=*+VV",
"VVj<58@*$+VV",
"VVVl<4+%XvVV",
"VVVVc<#.lVVV",
"VVVVVx kVVVV"
};
