/* XPM */
static char *auto_complete_const_xpm[] = {
/* columns rows colors chars-per-pixel */
"16 16 57 1",
"  c #334863",
". c #374B66",
"X c #374B67",
"o c #3B506A",
"O c #3C506A",
"+ c #415670",
"@ c #475B75",
"# c #485B75",
"$ c #485C75",
"% c #4F627B",
"& c #4F627C",
"* c #204186",
"= c #21448B",
"- c #234998",
"; c #2550A6",
": c #2857B6",
"> c #3C65BC",
", c #566982",
"< c #5F7188",
"1 c #5E7089",
"2 c #5E7189",
"3 c #677890",
"4 c #667990",
"5 c #2B5FC4",
"6 c #2F65D0",
"7 c #326AD9",
"8 c #366FDF",
"9 c #3971E2",
"0 c #3A73E2",
"q c #416DC8",
"w c #4775D5",
"e c #4D7EE2",
"r c #6F8097",
"t c #77879E",
"y c #77879F",
"u c #78879E",
"i c #77889E",
"p c #0099FF",
"a c #0D9EFF",
"s c #20A5FF",
"d c #36AFFF",
"f c #5385ED",
"g c #588DF6",
"h c #5E93FD",
"j c #6398FF",
"k c #679BFF",
"l c #689DFF",
"z c #4EB8FF",
"x c #6EA0FF",
"c c #70A2FF",
"v c #71A3FF",
"b c #67C3FF",
"n c #7FCDFF",
"m c #95D5FF",
"M c #A8DDFF",
"N c #B5E2FF",
"B c gray100",
/* pixels */
"BBBBBBBBBBBBBBBB",
"BBBBBBBBBBBBBBBB",
"BBir31,%@+O.  BB",
"BBBBBBBBBBBBBBBB",
"BBur31,&@+BBBBBB",
"BBBBBBBBBBBBBBBB",
"BBvvxljhgfewq>BB",
"BBkNMmnbzdsap*BB",
"BB998765:;-=**BB",
"BBBBBBBBBBBBBBBB",
"BByr31,%$+o. BBB",
"BBBBBBBBBBBBBBBB",
"BByr31,%$+O.  BB",
"BBBBBBBBBBBBBBBB",
"BBBBBBBBBBBBBBBB",
"BBBBBBBBBBBBBBBB"
};
