/* XPM */
static char *auto_complete_namespace_xpm[] = {
/* columns rows colors chars-per-pixel */
"12 12 12 1",
"  c gray4",
". c gray20",
"X c gray30",
"o c #646464",
"O c #888888",
"+ c gray73",
"@ c gray75",
"# c gray87",
"$ c gray91",
"% c #EEEEEE",
"& c #F8F8F8",
"* c gray100",
/* pixels */
"*%O.&*&.O%**",
"&O.#***#.O&*",
"&X.&***&.X&*",
"&X.&***&.X&*",
"&.+*****+.&*",
" o&*****&o *",
"& @*****@ &*",
"&X &***& X&*",
"&X &***& X&*",
"&O $***$ O&*",
"*%O.&*&.O%**",
"************"
};
