/* XPM */
static char *auto_complete_global_var_xpm[] = {
/* columns rows colors chars-per-pixel */
"12 12 71 1",
"  c black",
". c #050000",
"X c #150000",
"o c #00001F",
"O c #270700",
"+ c #311400",
"@ c #3D2601",
"# c #3F280B",
"$ c #000025",
"% c #00043C",
"& c #4A2B0A",
"* c #532200",
"= c #4B351B",
"- c #7A4206",
"; c #784B17",
": c #00004E",
"> c #002054",
", c #002D65",
"< c #2B5659",
"1 c #5B647C",
"2 c #AF7F41",
"3 c #C58854",
"4 c #CA8A6C",
"5 c #D4B074",
"6 c #EABD79",
"7 c #0D528E",
"8 c #3D5F84",
"9 c #5A6684",
"0 c #6583A0",
"q c #499BE1",
"w c #6FAEE4",
"e c #8B8394",
"r c #B8B8AF",
"t c #B8B1BF",
"y c #C9BEB9",
"u c #FFD9A6",
"i c #FBDCAE",
"p c #FFDDAD",
"a c #FFE5B3",
"s c #B0ABC4",
"d c #A7C3DD",
"f c #8EC6E9",
"g c #9ACCE8",
"h c #94CFF3",
"j c #B9DBEF",
"k c #BFD9F0",
"l c #B7F0FF",
"z c #FFEEC3",
"x c #FFF0C6",
"c c #F4ECDE",
"v c #FFF4D1",
"b c #FFF7DB",
"n c #C3D5E6",
"m c #C9D8E3",
"M c #C8E4F3",
"N c #DFF1F6",
"B c #DFF2FB",
"V c #FFFFEC",
"C c #EDEEF1",
"Z c #EFF4F5",
"A c #E6FFFF",
"S c #F8F6F5",
"D c #FFFDF6",
"F c #F4F6F9",
"G c #F2FEFF",
"H c #FFFFFC",
"J c #FCFFFF",
"K c #FDFFFF",
"L c #FFFFFE",
"P c #FFFEFF",
"I c gray100",
/* pixels */
"IIIIIIIIIIII",
"IS5OqIb;7GII",
"D2. ,Ai*%gII",
"II3X:lv->dII",
"II6+$hI41jII",
"IIu@ofVrsBII",
"IIp# wytNIII",
"IIx= 8eMFIII",
"IIz&o9jCJIII",
"IIa<0mZIIIII",
"IIIcnIIIIIII",
"IIIIIIIIIIII"
};
