/* XPM */
static char * expression_editor_xpm[] = {
"18 19 264 2",
"  	c None",
". 	c #A6B9D0",
"+ 	c #A3B7CF",
"@ 	c #A2B6CE",
"# 	c #A1B5CD",
"$ 	c #A0B4CC",
"% 	c #9FB3CB",
"& 	c #9EB2CA",
"* 	c #9DB1C9",
"= 	c #9CB0C8",
"- 	c #9BAFC7",
"; 	c #9AAEC6",
"> 	c #9DB0C7",
", 	c #A9BBD1",
"' 	c #E6EBF2",
") 	c #FDFEFF",
"! 	c #FDFDFD",
"~ 	c #FCFDFD",
"{ 	c #FBFCFD",
"] 	c #FCFCFD",
"^ 	c #FBFBFD",
"/ 	c #FAFBFC",
"( 	c #F9FBFC",
"_ 	c #F9FBFD",
": 	c #E3E8EE",
"< 	c #9EAFC6",
"[ 	c #F7F9FC",
"} 	c #F6F9FC",
"| 	c #F5F8FC",
"1 	c #F5F8FB",
"2 	c #F5F9FC",
"3 	c #F7FAFC",
"4 	c #F3F7FB",
"5 	c #F0F5FA",
"6 	c #EFF4F9",
"7 	c #EEF2F9",
"8 	c #F7F9FB",
"9 	c #95A9C1",
"0 	c #F9FAFC",
"a 	c #F2F6FB",
"b 	c #F1F5FA",
"c 	c #F2F5FB",
"d 	c #F4F7FA",
"e 	c #D9E4EF",
"f 	c #769FCA",
"g 	c #2E6DAF",
"h 	c #2063AA",
"i 	c #3C77B4",
"j 	c #8FB0D1",
"k 	c #ECF0F3",
"l 	c #EAF0F6",
"m 	c #E8EFF7",
"n 	c #F2F6F9",
"o 	c #93A7BF",
"p 	c #F6F9FB",
"q 	c #EDF2F9",
"r 	c #ECF1F8",
"s 	c #EDF3F9",
"t 	c #9EBAD7",
"u 	c #2C69A9",
"v 	c #1E5FA3",
"w 	c #487CB2",
"x 	c #5586B5",
"y 	c #89A9C8",
"z 	c #E2E8ED",
"A 	c #E1EAF4",
"B 	c #EFF4F8",
"C 	c #91A5BD",
"D 	c #F3F7FA",
"E 	c #E7EEF7",
"F 	c #E8EEF7",
"G 	c #ECF2F8",
"H 	c #C7D6E6",
"I 	c #1C5A9A",
"J 	c #2A64A0",
"K 	c #BCCBD4",
"L 	c #DBDFDB",
"M 	c #E2E5E1",
"N 	c #B5C7D2",
"O 	c #376DA4",
"P 	c #D9DFE1",
"Q 	c #D9E2EC",
"R 	c #ECF2F7",
"S 	c #8FA3BB",
"T 	c #F0F4F8",
"U 	c #E1EBF5",
"V 	c #E5EDF5",
"W 	c #376A9E",
"X 	c #1A5490",
"Y 	c #B9C7CF",
"Z 	c #D0D6D6",
"` 	c #D3DADF",
" .	c #E1E7EC",
"..	c #EFF2F1",
"+.	c #D1D7D8",
"@.	c #CFDAE6",
"#.	c #E9F0F5",
"$.	c #8DA1B9",
"%.	c #EDF2F7",
"&.	c #DCE7F3",
"*.	c #E4ECF5",
"=.	c #98B0C9",
"-.	c #174C83",
";.	c #89A2B8",
">.	c #DBDFDD",
",.	c #D5DCE2",
"'.	c #DDE6EE",
").	c #E8EFF5",
"!.	c #AABDD0",
"~.	c #406B96",
"{.	c #C7CFD2",
"].	c #C8D4E2",
"^.	c #E6EDF4",
"/.	c #8B9FB7",
"(.	c #99ADC5",
"_.	c #D9E5F1",
":.	c #E4ECF4",
"<.	c #4F7398",
"[.	c #144476",
"}.	c #CDD5D4",
"|.	c #E6EAE7",
"1.	c #D7E0E7",
"2.	c #B0C1D2",
"3.	c #7A96B1",
"4.	c #93A7B7",
"5.	c #BFC8D1",
"6.	c #C3D1E2",
"7.	c #E3ECF3",
"8.	c #8A9EB6",
"9.	c #97ABC3",
"0.	c #E7EEF5",
"a.	c #D6E3F0",
"b.	c #123D69",
"c.	c #204971",
"d.	c #93A5B3",
"e.	c #BFC8CD",
"f.	c #BAC7D6",
"g.	c #C1D2E6",
"h.	c #E1EAF2",
"i.	c #889CB4",
"j.	c #E5EDF3",
"k.	c #D4E1EF",
"l.	c #ADBBCA",
"m.	c #0F335B",
"n.	c #1D3F64",
"o.	c #48637D",
"p.	c #48637E",
"q.	c #6F8498",
"r.	c #7A8EA0",
"s.	c #9DACB7",
"t.	c #C5CED2",
"u.	c #BAC4CE",
"v.	c #B7C6D5",
"w.	c #BCCDE2",
"x.	c #BFD2E8",
"y.	c #DFE8F1",
"z.	c #869AB2",
"A.	c #94A8C0",
"B.	c #E3EBF2",
"C.	c #D1DFEE",
"D.	c #AAB8C5",
"E.	c #0C2C4D",
"F.	c #465E74",
"G.	c #E3E7DE",
"H.	c #CED5D7",
"I.	c #C3CDD4",
"J.	c #BFCBD4",
"K.	c #BCC9D5",
"L.	c #BAC8D7",
"M.	c #B9CADD",
"N.	c #BCCDE4",
"O.	c #BDD0E7",
"P.	c #BDD0E8",
"Q.	c #DDE7F0",
"R.	c #8498B0",
"S.	c #92A6BE",
"T.	c #E0EAF1",
"U.	c #CCDBEC",
"V.	c #C2CDD8",
"W.	c #092440",
"X.	c #263E55",
"Y.	c #DEE3DE",
"Z.	c #CDD8E0",
"`.	c #C6D5E3",
" +	c #C4D3E4",
".+	c #C4D3E5",
"++	c #C5D5E7",
"@+	c #C2D4E9",
"#+	c #BFD2E9",
"$+	c #BDD1E8",
"%+	c #BCD0E8",
"&+	c #8397AF",
"*+	c #90A4BC",
"=+	c #DEE8F0",
"-+	c #C6D6EA",
";+	c #D6E1ED",
">+	c #24384C",
",+	c #061C34",
"'+	c #5F6E79",
")+	c #DDE5E8",
"!+	c #D9E4ED",
"~+	c #D8E4EF",
"{+	c #D7E3EF",
"]+	c #AAB9C8",
"^+	c #B0C0D2",
"/+	c #C2D3E8",
"(+	c #8195AD",
"_+	c #8EA2BA",
":+	c #C1D3E9",
"<+	c #A1ACB6",
"[+	c #04162A",
"}+	c #223243",
"|+	c #414F5E",
"1+	c #223244",
"2+	c #7A8998",
"3+	c #BDCEE0",
"4+	c #BCCFE6",
"5+	c #8094AC",
"6+	c #8CA0B8",
"7+	c #BED1E8",
"8+	c #C4D6EA",
"9+	c #CDDAE9",
"0+	c #AAB4BB",
"a+	c #4B565F",
"b+	c #021020",
"c+	c #111E2D",
"d+	c #3B4752",
"e+	c #6C7881",
"f+	c #ADB9C4",
"g+	c #B6C7D9",
"h+	c #BACEE4",
"i+	c #7F93AB",
"j+	c #E2EBF2",
"k+	c #BED2E9",
"l+	c #C6D5E6",
"m+	c #C7D3DE",
"n+	c #C7D1D7",
"o+	c #C5CFD2",
"p+	c #C3CDD1",
"q+	c #BFC9D1",
"r+	c #B8C4CF",
"s+	c #B3C2D3",
"t+	c #B6C8DD",
"u+	c #BCCEE6",
"v+	c #7D91A9",
"w+	c #93A5BA",
"x+	c #DBE1E4",
"y+	c #DEE7F0",
"z+	c #DDE5EC",
"A+	c #D9E2E9",
"B+	c #D6DFE4",
"C+	c #D5DEE3",
"D+	c #D5DDE4",
"E+	c #D6DFE6",
"F+	c #D7E1E9",
"G+	c #DAE4ED",
"H+	c #D7DDE1",
"I+	c #8799AF",
"J+	c #8FA1B7",
"K+	c #8599B1",
"L+	c #8296AE",
"M+	c #7E92AA",
"N+	c #7C90A8",
"O+	c #8698AE",
"  . + @ @ # $ $ % & & * = - - ; >   ",
", ' ) ! ~ ~ ~ { { ] { ^ / ( ( _ : < ",
"@ ~ [ } | 1 1 2 [ 3 [ } 4 5 6 7 8 9 ",
"$ 0 a b b c d e f g h i j k l m n o ",
"% p q r s b t u v w x v v y z A B C ",
"& D E F G H I J K L M N I O P Q R S ",
"= T U V R W X Y Z `  ...X X +.@.#.$.",
"- %.&.*.=.-.;.>.,.'.).!.-.~.{.].^./.",
"(.l _.:.<.[.}.|.1.2.3.[.[.4.5.6.7.8.",
"9.0.a.^.b.b.b.b.b.b.b.c.d.e.f.g.h.i.",
"9 j.k.l.m.n.o.p.q.r.s.t.u.v.w.x.y.z.",
"A.B.C.D.E.F.G.H.I.J.K.L.M.N.O.P.Q.R.",
"S.T.U.V.W.X.Y.Z.`. +.+++@+#+$+%+Q.&+",
"*+=+-+;+>+,+'+)+!+~+{+]+^+/+O.%+Q.(+",
"_+Q.:+U.<+[+[+}+|+|+1+[+2+3+4+%+Q.5+",
"6+Q.7+8+9+0+a+b+b+c+d+e+f+g+h+%+Q.i+",
"8.j+#+k+@+l+m+n+o+p+q+r+s+t+u+#+j+v+",
"w+x+j+Q.y+y+z+A+B+C+D+E+F+G+Q.j+H+I+",
"  J+K+R.R.&+L+(+(+5+i+i+M+v+v+N+O+  "};
