/* XPM */
static char *line_numbers_xpm[] = {
/* columns rows colors chars-per-pixel */
"16 16 38 1",
"  c gray1",
". c #070707",
"X c #0C0C0C",
"o c gray7",
"O c gray9",
"+ c #1E1E1E",
"@ c gray14",
"# c gray15",
"$ c gray17",
"% c #2D2D2D",
"& c #343434",
"* c #3C3C3C",
"= c #434343",
"- c gray29",
"; c #515151",
": c #535353",
"> c #585858",
", c gray35",
"< c #606060",
"1 c #656565",
"2 c gray42",
"3 c gray44",
"4 c #747474",
"5 c #777777",
"6 c #3E72D4",
"7 c #73A3E3",
"8 c #75A5E3",
"9 c #77A6E3",
"0 c #7CAAE5",
"q c #81ACE5",
"w c #86AFE7",
"e c #89B2E7",
"r c #8DB4E9",
"t c #9ABCEB",
"y c #9DBFED",
"u c #A2C1EE",
"i c #A2C3EE",
"p c None",
/* pixels */
"pppppppppppppppp",
"ppippppppppppppp",
"piippppppppppppp",
"ppippp54321<,:pp",
"piiupppppppppppp",
"pppppppppppppppp",
"pytppppppppppppp",
"ppprpppppppppppp",
"ppeppp>;-=*&%#pp",
"pwq0pppppppppppp",
"pppppppppppppppp",
"p987pppppppppppp",
"pp7ppppppppppppp",
"ppp7pp$@+OoX. pp",
"p776pppppppppppp",
"pppppppppppppppp"
};
