/* XPM */
static char *toggle_view_xpm[] = {
/* columns rows colors chars-per-pixel */
"16 16 94 2",
"   c #5171A9",
".  c #5172A9",
"X  c #5373A9",
"o  c #5373AA",
"O  c #5475AB",
"+  c #5475AC",
"@  c #5676AD",
"#  c #5779AE",
"$  c #587AB0",
"%  c #587BB1",
"&  c #5A7CB2",
"*  c #5C7EB4",
"=  c #5C7EB5",
"-  c #5E81B7",
";  c #5F83B9",
":  c #6085BA",
">  c #6185BB",
",  c #6387BD",
"<  c #6488BE",
"1  c #668BC0",
"2  c #688EC3",
"3  c #6F90C1",
"4  c #6C92C8",
"5  c #6C94C9",
"6  c #6E94CA",
"7  c #6F96CB",
"8  c #6F97CC",
"9  c #7A9AC4",
"0  c #7099CE",
"q  c #729ACF",
"w  c #739CD1",
"e  c #739DD2",
"r  c #759ED4",
"t  c #76A0D5",
"y  c #79A2D8",
"u  c #79A3D9",
"i  c #7AA4DA",
"p  c #7AA4DB",
"a  c #7AA6DC",
"s  c #7BA7DC",
"d  c gray65",
"f  c #85ACDD",
"g  c #8DB1DD",
"h  c #92B9E8",
"j  c #D7D9DF",
"k  c #D8DCDF",
"l  c #DBDDDF",
"z  c #DDE0E0",
"x  c #DEE7F2",
"c  c gray88",
"v  c #E0E1E1",
"b  c #E4EAF3",
"n  c #E7EBF5",
"m  c #E8ECF6",
"M  c #EAEFF6",
"N  c #EAF0F7",
"B  c #EBF2F7",
"V  c #EDF3F7",
"C  c #ECF2F8",
"Z  c #EFF3FA",
"A  c #EEF4F8",
"S  c #F0F5F9",
"D  c #F2F5FB",
"F  c #F1F6FB",
"G  c #F2F7FA",
"H  c #F3F7FB",
"J  c #F4F7FB",
"K  c #F4F8FB",
"L  c #F5F8FB",
"P  c #F5F9FB",
"I  c #F7F9FB",
"U  c #F6FAFB",
"Y  c #F7FAFB",
"T  c #F6FBFB",
"R  c #F7FBFC",
"E  c #F7FCFC",
"W  c #F9FBFB",
"Q  c #F8FBFC",
"!  c #F9FBFC",
"~  c #F9FCFC",
"^  c #F8FDFD",
"/  c #FAFCFC",
"(  c #FAFDFD",
")  c #FBFDFD",
"_  c #FAFEFE",
"`  c #FBFEFE",
"'  c #FCFDFD",
"]  c #FCFEFE",
"[  c #FDFEFE",
"{  c #FCFFFF",
"}  c #FDFFFF",
"|  c #FEFFFF",
" . c gray100",
".. c None",
/* pixels */
"................................",
"..g s a i y t r e q 0 7 5 9 ....",
"f h h h h h h h h h h h h h 3 ..",
"s s s s s s s s s s s s s s 1 ..",
"p  . . . . . . . . . . . . ., ..",
"u  .! Q I J G S V M n b x  .: ..",
"y  .( / ! U L J F A B N m  .- ..",
"t  .' ) ( ~ R P K H D Z C  .= ..",
"r d v d c d z d l d k d j d & ..",
"w  .] ] ] ) ) ( ^ W Y U K  .$ ..",
"8  .{ } ] ] ` ( ( ( ( E T  .+ ..",
"6  . .| } [ ] ] ] ] _ _ ~  .o ..",
"4  . . . . . . . . . . . . .. ..",
"  2 1 < > ; * & % # @ O X     ..",
"................................",
"................................"
};
