/* XPM */
static char *cog[] = {
/* columns rows colors chars-per-pixel */
"16 16 80 1",
"  c #494949",
". c #4E4E4E",
"X c #515151",
"o c #535353",
"O c #585858",
"+ c #5B5B5B",
"@ c gray38",
"# c #626262",
"$ c #646464",
"% c DimGray",
"& c gray42",
"* c #6D6D6D",
"= c gray43",
"- c #6F6F6F",
"; c #797979",
": c #808080",
"> c #818181",
", c gray51",
"< c #838383",
"1 c gray52",
"2 c gray53",
"3 c #898989",
"4 c gray55",
"5 c gray56",
"6 c gray61",
"7 c gray62",
"8 c #A0A0A0",
"9 c gray63",
"0 c gray64",
"q c #A5A5A5",
"w c gray65",
"e c #A7A7A7",
"r c gray66",
"t c #AAAAAA",
"y c #ACACAC",
"u c gray69",
"i c #B1B1B1",
"p c #B2B2B2",
"a c gray71",
"s c #B7B7B7",
"d c #B9B9B9",
"f c gray73",
"g c #BCBCBC",
"h c gray74",
"j c gray",
"k c gray75",
"l c #C0C0C0",
"z c #C1C1C1",
"x c gray76",
"c c #C3C3C3",
"v c gray77",
"b c #C5C5C5",
"n c #C6C6C6",
"m c gray78",
"M c #C8C8C8",
"N c gray79",
"B c #CACACA",
"V c #CBCBCB",
"C c gray80",
"Z c #CDCDCD",
"A c #CECECE",
"S c gray81",
"D c gray82",
"F c #D2D2D2",
"G c gray83",
"H c #D5D5D5",
"J c gray84",
"K c #D8D8D8",
"L c gray85",
"P c gray86",
"I c gainsboro",
"U c #DDDDDD",
"Y c gray87",
"T c #E2E2E2",
"R c #E4E4E4",
"E c gray90",
"W c #E7E7E7",
"Q c #E9E9E9",
"! c gray93",
"~ c None",
/* pixels */
"~~~~~~~Mv~~~~~~~",
"~~~~~~MWWy~~~~~~",
"~~DAM~vILa~yq0~~",
"~~I!IlkJJyyMQf~~",
"~~lIJLLJJLDAM;~~",
"~~vJAMf60lMla3~~",
"MvlLAf<~~5vlA53<",
"vQJMAq~~~~ylfvI&",
"kTJvAp~~~~rlflD#",
"050DvM0~~5lff#Oo",
"~~yvlvMrqlkar&~~",
"~~qJvADMMAvkM-~~",
"~~kIq11vl--rJ;~~",
"~~<-$~<MM$~O. ~~",
"~~~~~~<kpO~~~~~~",
"~~~~~~~Oo~~~~~~~"
};
