/* XPM */
static char *book_clear_xpm[] = {
/* columns rows colors chars-per-pixel */
"16 16 194 2",
"   c #2A3E57",
".  c #795959",
"X  c #A9440D",
"o  c #B94403",
"O  c #B94503",
"+  c #BB4205",
"@  c #BC4204",
"#  c #BC4205",
"$  c #BD4D04",
"%  c #A84814",
"&  c #AE4C18",
"*  c #AD4F1C",
"=  c #B95825",
"-  c #DD6401",
";  c #E16803",
":  c #EE7600",
">  c #EA7905",
",  c #F87600",
"<  c #EF7F18",
"1  c #FF7711",
"2  c #FF7F18",
"3  c #C86528",
"4  c #CB6B2D",
"5  c #CF743B",
"6  c #E67721",
"7  c #9F7C73",
"8  c #927B78",
"9  c #967E78",
"0  c #FF8621",
"q  c #EB8A40",
"w  c #FF924D",
"e  c #F49D63",
"r  c #F5A872",
"t  c #3E5D84",
"y  c #375B8F",
"u  c #3C5C88",
"i  c #385C90",
"p  c #385D90",
"a  c #395D91",
"s  c #3A5E92",
"d  c #3B5F92",
"f  c #3C6093",
"g  c #3D6094",
"h  c #3E6194",
"j  c #3F6295",
"k  c #436493",
"l  c #406396",
"z  c #416496",
"x  c #436597",
"c  c #436697",
"v  c #456797",
"b  c #446698",
"n  c #456798",
"m  c #456799",
"M  c #466898",
"N  c #466899",
"B  c #476999",
"V  c #47699A",
"C  c #486A99",
"Z  c #486A9B",
"A  c #496A9B",
"S  c #4A6B9A",
"D  c #496B9C",
"F  c #4A6B9C",
"G  c #4A6C9C",
"H  c #4B6C9C",
"J  c #4B6C9D",
"K  c #4B6D9D",
"L  c #4C6D9D",
"P  c #5478A3",
"I  c #577EA6",
"U  c #5979A6",
"Y  c #5A7BA7",
"T  c #5B7CA8",
"R  c #5C7CA8",
"E  c #5C7DA8",
"W  c #5D7EA8",
"Q  c #5E7EA9",
"!  c #5E7FAA",
"~  c #5F7FAB",
"^  c #5F80AB",
"/  c #5B85AA",
"(  c #6080AB",
")  c #6181AC",
"_  c #6282AC",
"`  c #608BAF",
"'  c #6592B4",
"]  c #699AB8",
"[  c #6F9FBD",
"{  c #7091B5",
"}  c #7897BA",
"|  c #7897BB",
" . c #568CC0",
".. c #5A90C1",
"X. c #5C92C2",
"o. c #5E94C2",
"O. c #6197C3",
"+. c #6298C4",
"@. c #6399C5",
"#. c #6699C6",
"$. c #679AC6",
"%. c #689BC6",
"&. c #699DC7",
"*. c #6A9DC7",
"=. c #6B9EC8",
"-. c #6D9EC8",
";. c #6E9FC9",
":. c #6EA0C9",
">. c #72A4C1",
",. c #76A1C5",
"<. c #76A7C6",
"1. c #7AA1C4",
"2. c #7DA5C6",
"3. c #71A2CA",
"4. c #74A3CB",
"5. c #74A4CB",
"6. c #75A4CB",
"7. c #76A5CB",
"8. c #75A4CC",
"9. c #77A6CC",
"0. c #7BA7CB",
"q. c #78A6CD",
"w. c #7BA4CE",
"e. c #7FA7CF",
"r. c #7FA9CB",
"t. c #7AA8CD",
"y. c #7CA9CE",
"u. c #7DAACF",
"i. c #7FABCF",
"p. c #F6B58D",
"a. c #F7B58D",
"s. c #FECDAE",
"d. c #FED6B8",
"f. c #81A8C7",
"g. c #83ABCB",
"h. c #87ABC8",
"j. c #85A9CA",
"k. c #85ABCC",
"l. c #88ACCB",
"z. c #88ADCB",
"x. c #8AAECA",
"c. c #8EB0CB",
"v. c #8EB0CE",
"b. c #81AAD0",
"n. c #82ADD0",
"m. c #83AED1",
"M. c #85ADD1",
"N. c #87AFD2",
"B. c #89AFD1",
"V. c #87B0D1",
"C. c #88B0D2",
"Z. c #8AB1D2",
"A. c #8AB3D4",
"S. c #92B4D0",
"D. c #93B7D1",
"F. c #96B7D2",
"G. c #90B4D4",
"H. c #90B5D4",
"J. c #94B8D2",
"K. c #96B8D6",
"L. c #95BDD4",
"P. c #9BBBD5",
"I. c #9FBFD7",
"U. c #9BBBD8",
"Y. c #9BBFD9",
"T. c #A0BFDA",
"R. c #A4C2D9",
"E. c #A5C2D9",
"W. c #A6C5DB",
"Q. c #A9C7DF",
"!. c #A9C8DD",
"~. c #B9C5D8",
"^. c #ADC9E0",
"/. c #B0CBE2",
"(. c #B3CEE3",
"). c #B5D0E4",
"_. c #B6D1E6",
"`. c #B9D4E6",
"'. c #D0D7E1",
"]. c #D1D8E2",
"[. c #D3DAE3",
"{. c #D4DBE4",
"}. c #D6DCE6",
"|. c #D6DDE7",
" X c #D7DEE8",
".X c #DFEAF3",
"XX c #E5E7EB",
"oX c #EFEFEF",
"OX c #E0EBF4",
"+X c #E1ECF4",
"@X c #E2ECF4",
"#X c #E4EDF5",
"$X c gray100",
"%X c None",
/* pixels */
"%X%XL K J G D A Z V N n k t %X%X",
"%XL K | _ ) ( ~ ! W R L c u %X%X",
"%XK } ~. X|.}.{.[.].'.XXoX  %X%X",
"%XH E.{ ^ Q Q E T Y U D z   %X%X",
"%XF !.L.`._.).(./.^.Q.T.S   %X%X",
"%XA W.<.Y.D.c.x.h.g.V.U.C   %X%X",
"%XZ R.>.J.#X@X+XOX.Xr.K.B   %X%X",
"%XV I.[ H.z.f.2.1.,.0.G.M   %X%X",
"%XN P.] A.N.n.u.q.5.8.Z.v   %X%X",
"%Xm F.' m.i.t.7.3.-.9 = # X %X%X",
"%Xb S.` y.9.4.:.*.8 5 a.d.r 4 %X",
"%Xx v./ 6.3.=.%.@.* p.w 1 0 q o ",
"%Xz l.I ;.&.#.O.X.# s.$X$X$X< @ ",
"%Xl j.P $.+.o... .& e 2 , : ; O ",
"%Xj k.B.C.M.b.e.w.7 3 6 > - $ %X",
"%Xh g f d s a p i y . % + O %X%X"
};
