/* XPM */
static char *book_prev_xpm[] = {
/* columns rows colors chars-per-pixel */
"16 16 107 2",
"   c #205E1D",
".  c #246321",
"X  c #296925",
"o  c #2F702A",
"O  c #11406D",
"+  c #154471",
"@  c #164572",
"#  c #194976",
"$  c #1D4C79",
"%  c #21517D",
"&  c #3B8035",
"*  c #42883B",
"=  c #4F9947",
"-  c #56A14D",
";  c #5CA953",
":  c #64AA5B",
">  c #62B158",
",  c #68B85D",
"<  c #7BBE71",
"1  c #7CBE76",
"2  c #71C365",
"3  c #74C768",
"4  c #80C17A",
"5  c #83C17A",
"6  c #82C27D",
"7  c #86C87B",
"8  c #87C97C",
"9  c #8ACC7F",
"0  c #245482",
"q  c #295A87",
"w  c #2E608D",
"e  c #336593",
"r  c #366590",
"t  c #396893",
"y  c #386B98",
"u  c #3D709E",
"i  c #4276A3",
"p  c #4377A5",
"a  c #497DAB",
"s  c #4A7EAB",
"d  c #4A7EAC",
"f  c #4F83B0",
"g  c #4E83B1",
"h  c #5488B6",
"j  c #5D8BB3",
"k  c #588DBA",
"l  c #738FAA",
"z  c #7490AB",
"x  c #6A94B8",
"c  c #6A95BB",
"v  c #6097C5",
"b  c #6399C6",
"n  c #639AC8",
"m  c #649BC9",
"M  c #74A0C6",
"N  c #7BA6CB",
"B  c #7DA9CE",
"V  c #A5A5A5",
"C  c gray65",
"Z  c #A7A7A7",
"A  c gray71",
"S  c #87C581",
"D  c #89C682",
"F  c #8BCD80",
"G  c #8EC987",
"H  c #90CA89",
"J  c #95CC8E",
"K  c #98CE90",
"L  c #9DD094",
"P  c #9FD296",
"I  c #A1D398",
"U  c #A3D49A",
"Y  c #A5D59C",
"T  c #A7D69E",
"R  c #ABD8A2",
"E  c #80ACD0",
"W  c #82AED3",
"Q  c #AFC4D7",
"!  c #B1C6D9",
"~  c #C6C6C6",
"^  c #CACACA",
"/  c #CBCBCB",
"(  c gray80",
")  c #CDCDCD",
"_  c LightGray",
"`  c gray83",
"'  c #D5D5D5",
"]  c #D7D7D7",
"[  c #D2D8DD",
"{  c #D8D8D8",
"}  c #DFDFDF",
"|  c #DFE5EB",
" . c gray89",
".. c #E7E7E7",
"X. c gray93",
"o. c #EEEEEE",
"O. c #EFEFEF",
"+. c #F1F1F1",
"@. c gray95",
"#. c #F3F3F3",
"$. c #F4F4F4",
"%. c gray96",
"&. c #F8F8F8",
"*. c #F9F9F9",
"=. c gray98",
"-. c gray99",
";. c None",
/* pixels */
";.;.;.;.;.;.;.;.;.;.;.;.;.;.;.;.",
";.;.;.;.;.;.;.;.;.;.;.;.;.;.;.;.",
";.;.;.;.;.;.m W W B N M ;.;.c c ",
";.;.;.3 ;.n m *.*.*.&.! f s Q &.",
";.;.3 2 ;.n v *.) _ ~ @.[ ..-./ ",
";.3 F 8 , > - = * o o ' A } %.+.",
"3 9 R Y U I J H D 6 X ` Z { %./ ",
"2 7 Y I L K G D S 3 . _ Z [ %.O.",
";., < 5 : = * & o X   _ C ] $.^ ",
";.;.; - ;.k s *.+.X..._ C ] $.X.",
";.;.;.= ;.h p *.*.*.*.+. .#.*.*.",
";.;.;.;.;.f u y e w q 0 l l @ O ",
";.;.;.;.;.d j j j j j j 0 $ j j ",
";.;.;.;.;.p u y e w q 0 t r + O ",
";.;.;.;.;.;.;.;.;.;.;.0 # @ 0 ;.",
";.;.;.;.;.;.;.;.;.;.;.;.;.;.;.;."
};
