/* XPM */
static char *book_next_xpm[] = {
/* columns rows colors chars-per-pixel */
"16 16 107 2",
"   c #246321",
".  c #296925",
"X  c #35782F",
"o  c #012E5B",
"O  c #03315E",
"+  c #063461",
"@  c #073562",
"#  c #0A3865",
"$  c #0B3966",
"%  c #0D3C69",
"&  c #0E3C68",
"*  c #123F6C",
"=  c #11406D",
"-  c #154471",
";  c #164470",
":  c #164572",
">  c #1A4874",
",  c #194976",
"<  c #1D4C79",
"1  c #21517D",
"2  c #42883B",
"3  c #498B44",
"4  c #4A8C45",
"5  c #499141",
"6  c #4F9947",
"7  c #50914A",
"8  c #5C9D55",
"9  c #56A14D",
"0  c #5CA953",
"q  c #5EA159",
"w  c #62A35A",
"e  c #62B158",
"r  c #68B85D",
"t  c #6DBE61",
"y  c #7CBE76",
"u  c #71C365",
"i  c #74C768",
"p  c #80C17A",
"a  c #82C27D",
"s  c #245482",
"d  c #265784",
"f  c #295A87",
"g  c #2C5D8B",
"h  c #336391",
"j  c #326492",
"k  c #366590",
"l  c #396893",
"z  c #386997",
"x  c #4A7EAC",
"c  c #5E87AB",
"v  c #4E83B1",
"b  c #5D8BB3",
"n  c #628BAF",
"m  c #738FAA",
"M  c #7490AB",
"N  c #6690B4",
"B  c #6A94B8",
"V  c #6A95BB",
"C  c #74A0C6",
"Z  c #7BA6CB",
"A  c #A5A5A5",
"S  c gray65",
"D  c #A7A7A7",
"F  c gray71",
"G  c gray74",
"H  c #87C581",
"J  c #93CB8B",
"K  c #98CE90",
"L  c #9ACF93",
"P  c #9DD094",
"I  c #9FD296",
"U  c #A1D398",
"Y  c #A3D49A",
"T  c #A5D59C",
"R  c #A7D69E",
"E  c #A9D7A0",
"W  c #ABD8A2",
"Q  c #AEDAA5",
"!  c #AFC4D7",
"~  c #B1C6D9",
"^  c #C5C5C5",
"/  c #C6C6C6",
"(  c gray79",
")  c gray80",
"_  c LightGray",
"`  c gray83",
"'  c #D5D5D5",
"]  c #D7D7D7",
"[  c #D2D8DD",
"{  c #D8D8D8",
"}  c gainsboro",
"|  c #DFDFDF",
" . c #DFE5EB",
".. c gray89",
"X. c #E7E7E7",
"o. c #E9E9E9",
"O. c #EAEAEA",
"+. c #EEEEEE",
"@. c #F1F1F1",
"#. c gray95",
"$. c #F3F3F3",
"%. c #F4F4F4",
"&. c gray96",
"*. c #F8F8F8",
"=. c #F9F9F9",
"-. c gray99",
";. c None",
/* pixels */
";.;.;.;.;.;.;.;.;.;.;.;.;.;.;.;.",
";.;.;.;.;.;.;.;.;.;.;.;.;.;.;.;.",
"Z C ;.;.V B N n c j ;.;.;.;.;.;.",
"*.~ v x ~ *.*.*.*.g z ;.6 ;.;.;.",
"/ #.[  .*.) ( G *.d h ;.5 2 ;.;.",
"O.' F ..&.i i u t r e q w 8 X ;.",
"/ _ D { &.i Q W T T P L H H 7 . ",
"O._ D ' &.u W T U P K J H i 4   ",
"^ _ D { $.t r e 0 9 6 5 q 3   ;.",
"X._ D ] %.+.O.} *.$ > ;..   ;.;.",
"&.#...$.*.*.*.O.*.+ : ;.  ;.;.;.",
"f s M m : = % # + O * ;.;.;.;.;.",
"b b 1 < b b b b b b & ;.;.;.;.;.",
"f s l k : = & $ + O o ;.;.;.;.;.",
";.s > : s ;.;.;.;.;.;.;.;.;.;.;.",
";.;.;.;.;.;.;.;.;.;.;.;.;.;.;.;."
};
