/* XPM */
static char *book_toggle_xpm[] = {
/* columns rows colors chars-per-pixel */
"16 16 115 2",
"   c #012E5B",
".  c #03315E",
"X  c #063461",
"o  c #073562",
"O  c #0A3865",
"+  c #0B3966",
"@  c #0D3C69",
"#  c #0E3C68",
"$  c #103E6B",
"%  c #123F6C",
"&  c #11406D",
"*  c #154471",
"=  c #164470",
"-  c #164572",
";  c #1A4874",
":  c #194976",
">  c #1A4A77",
",  c #1D4C79",
"<  c #1E4D7A",
"1  c #20507D",
"2  c #21517D",
"3  c #23537F",
"4  c #245482",
"5  c #265784",
"6  c #285884",
"7  c #295A87",
"8  c #2C5D8B",
"9  c #2D5E8A",
"0  c #2E608D",
"q  c #336391",
"w  c #326492",
"e  c #336593",
"r  c #366590",
"t  c #396893",
"y  c #386997",
"u  c #386B98",
"i  c #3D709E",
"p  c #4276A3",
"a  c #4377A5",
"s  c #497DAB",
"d  c #4A7EAB",
"f  c #4A7EAC",
"g  c #5E87AB",
"h  c #4F83B0",
"j  c #4E83B1",
"k  c #5389B7",
"l  c #5488B6",
"z  c #5D8BB3",
"x  c #588DBA",
"c  c #588EBC",
"v  c #5C91BE",
"b  c #628BAF",
"n  c #738FAA",
"m  c #7490AB",
"M  c #6690B4",
"N  c #6A94B8",
"B  c #6A95BB",
"V  c #5C93C1",
"C  c #6095C2",
"Z  c #6097C5",
"A  c #6298C6",
"S  c #6399C6",
"D  c #639AC8",
"F  c #649BC9",
"G  c #74A0C6",
"H  c #7BA6CB",
"J  c #7DA9CE",
"K  c #A5A5A5",
"L  c gray65",
"P  c #A7A7A7",
"I  c gray71",
"U  c gray73",
"Y  c #BBBBBB",
"T  c gray74",
"R  c #80ACD0",
"E  c #82AED3",
"W  c #AFC4D7",
"Q  c #B1C6D9",
"!  c #C5C5C5",
"~  c #C6C6C6",
"^  c gray78",
"/  c gray79",
"(  c #CACACA",
")  c #CBCBCB",
"_  c gray80",
"`  c #CDCDCD",
"'  c LightGray",
"]  c gray83",
"[  c #D5D5D5",
"{  c #D7D7D7",
"}  c #D2D8DD",
"|  c #D8D8D8",
" . c gainsboro",
".. c gray87",
"X. c #DFDFDF",
"o. c #DFE5EB",
"O. c gray89",
"+. c #E7E7E7",
"@. c #E9E9E9",
"#. c #EAEAEA",
"$. c gray92",
"%. c #ECECEC",
"&. c gray93",
"*. c #EEEEEE",
"=. c #EFEFEF",
"-. c #F1F1F1",
";. c gray95",
":. c #F3F3F3",
">. c #F4F4F4",
",. c gray96",
"<. c #F8F8F8",
"1. c #F9F9F9",
"2. c gray98",
"3. c gray99",
"4. c None",
/* pixels */
"4.4.4.4.4.4.4.4.4.4.4.4.4.4.4.4.",
"4.4.4.4.4.4.4.4.4.4.4.4.4.4.4.4.",
"4.F E R J H G 4.4.B N M b g w 4.",
"S D 2.2.2.<.Q j f W 1.1.1.1.8 y ",
"S Z 2.` ( ~ ;.} o.3._ / T 1.5 q ",
"S V 2.;.=.#.[ I X.,.-.%...1.1 9 ",
"A c 2._ ( ! ] P | ,.) ^ Y <.> 6 ",
"C k 2.-.&.@.] L | ,.=.$. .<.* 3 ",
"v j 1._ / ! ' L | >.( ~ U <.$ < ",
"x s 1.-.&.+.' K { >.*.#. .<.+ ; ",
"l a 1.1.1.<.-.O.:.<.1.<.@.<.o = ",
"h i u e 0 7 4 m n - & @ O X . % ",
"d z z z z z z 2 , z z z z z z # ",
"p i u e 0 7 4 t r - & @ O X .   ",
"4.4.4.4.4.4.4 : * 4 4.4.4.4.4.4.",
"4.4.4.4.4.4.4.4.4.4.4.4.4.4.4.4."
};
