/* XPM */
static char * dragger_xpm[] = {
"16 16 18 1",
" 	c None",
".	c #313131",
"+	c #303030",
"@	c #2C2C2C",
"#	c #FFFFFF",
"$	c #2D2D2D",
"%	c #2B2B2B",
"&	c #282828",
"*	c #292929",
"=	c #232323",
"-	c #1F1F1F",
";	c #1A1A1A",
">	c #161616",
",	c #121212",
"'	c #111111",
")	c #0D0D0D",
"!	c #080808",
"~	c #040404",
"                ",
"                ",
"                ",
"   .........+   ",
"   @#$@##@##@@% ",
"   &#####*##&*& ",
"   ==#########= ",
"  ---#########- ",
"  ;###########; ",
"  >##########>> ",
"  ,'#########'  ",
"    )#######))  ",
"     !######!   ",
"     ~######~   ",
"                ",
"                "};
