/* XPM */
static char * fit_to_window_xpm[] = {
"16 16 76 1",
" 	c #BBD5F6",
".	c #82A3CD",
"+	c #5B81B3",
"@	c #7FA1CD",
"#	c #FFFFFF",
"$	c #FDFDFD",
"%	c #F9FBFC",
"&	c #F6F7F9",
"*	c #F2F4F6",
"=	c #6A696A",
"-	c #E9EDF0",
";	c #E5E9ED",
">	c #E0E5EA",
",	c #DCE1E7",
"'	c #D8DFE4",
")	c #4C5F74",
"!	c #D2E3FA",
"~	c #FAFBFB",
"{	c #F6F8F9",
"]	c #696A69",
"^	c #676767",
"/	c #646464",
"(	c #E4E9ED",
"_	c #D8DFE5",
":	c #D6DCE3",
"<	c #D3E4FA",
"[	c #FAFAFB",
"}	c #F1F4F6",
"|	c #656564",
"1	c #E5E8ED",
"2	c #E0E5E9",
"3	c #DCE2E7",
"4	c #D8DEE5",
"5	c #D5E5FA",
"6	c #FCFDFD",
"7	c #FAFBFC",
"8	c #616261",
"9	c #E9ECF0",
"0	c #E4E8ED",
"a	c #D9DFE5",
"b	c #D5DCE2",
"c	c #6A6969",
"d	c #EDF0F3",
"e	c #525252",
"f	c #69696A",
"g	c #656464",
"h	c #616161",
"i	c #EDF0F4",
"j	c #555555",
"k	c #525253",
"l	c #4F5050",
"m	c #4D4C4D",
"n	c #BAD1EF",
"o	c #F2F5F6",
"p	c #EEF0F3",
"q	c #4C4D4D",
"r	c #A9C6EA",
"s	c #555556",
"t	c #E0E4EA",
"u	c #D5DCE3",
"v	c #AFCAEC",
"w	c #525352",
"x	c #B8D0F0",
"y	c #FDFDFE",
"z	c #50504F",
"A	c #4D4D4D",
"B	c #C2D8F3",
"C	c #CCDFF7",
"D	c #FCFDFE",
"E	c #D4E4FA",
"F	c #D8E8FC",
"G	c #698DBD",
"H	c #7A9BC9",
"I	c #678BBC",
"J	c #5C82B4",
"K	c #799BC8",
" .++++++++++++. ",
"@#$%&*=-;>,')!+@",
"+#$~{]^/(>,_:<<+",
"+#$[{}|-1234)55+",
"+#67&*890>,ab55+",
"+#c~{*d90>e4)55+",
"+f^gh*i-jklm:nn+",
"+#|[&op-0>q_)rr+",
"+#$~&*s-0t,_uvv+",
"+#67&ow9(>3_)xx+",
"+#y7&wzA0>,'bBB+",
"+#$~{*q-(>3_)CC+",
"+)D){)p)(),)uEE+",
"+FFFFFFFFFFFFFF+",
"G+FFFFFFFFFFFF+G",
"HIJJJJJJJJJJJJIK"};
