/* XPM */
static char * image_xpm[] = {
"16 16 70 1",
" 	c None",
".	c #666666",
"+	c #4D4D4D",
"@	c #6D6D6D",
"#	c #CCCCCC",
"$	c #333333",
"%	c #999999",
"&	c #646464",
"*	c #989898",
"=	c #606060",
"-	c #C6C6C6",
";	c #939393",
">	c #555555",
",	c #777777",
"'	c #898989",
")	c #767676",
"!	c #BEBEBE",
"~	c #5D5D5D",
"{	c #525252",
"]	c #818181",
"^	c #717171",
"/	c #A5A5A5",
"(	c #B5B5B5",
"_	c #585858",
":	c #4E4E4E",
"<	c #7C7C7C",
"[	c #8A8A8A",
"}	c #686868",
"|	c #B3B3B3",
"1	c #C3C3C3",
"2	c #AAAAAA",
"3	c #545454",
"4	c #494949",
"5	c #8D8D8D",
"6	c #727272",
"7	c #B7B7B7",
"8	c #6F6F6F",
"9	c #9F9F9F",
"0	c #4F4F4F",
"a	c #444444",
"b	c #5E5E5E",
"c	c #5A5A5A",
"d	c #A4A4A4",
"e	c #7D7D7D",
"f	c #FFFFFF",
"g	c #99CCFF",
"h	c #5B6C7D",
"i	c #4A4A4A",
"j	c #3F3F3F",
"k	c #535353",
"l	c #888888",
"m	c #464646",
"n	c #336699",
"o	c #454545",
"p	c #3A3A3A",
"q	c #858585",
"r	c #6699CC",
"s	c #414141",
"t	c #363636",
"u	c #747474",
"v	c #3B3B3B",
"w	c #6B6B6B",
"x	c #728394",
"y	c #3C3C3C",
"z	c #353535",
"A	c #6C6C6C",
"B	c #676767",
"C	c #6A6A6A",
"D	c #393939",
"E	c #343434",
"       ....     ",
"      +@##@+    ",
" ....$$%%%%$$   ",
"&*##*&&&&&&&&&& ",
"=-------------;=",
">>>>,%')..)'%%!~",
"{,{.%]^/##/^]$(_",
":^:<[}|1111|}[23",
"4}456578$$875690",
"aba;cd@efgh@dc;i",
"jkjl+%mnnnnm%+lo",
"pipeaqkrrrrkqaes",
"tatuv=wxggxw=vuy",
"z$sAzjBC..CBjzkD",
"z:..Ezy3..3yzzz ",
" $$$$  $$$$     "};
