/* XPM */
static char * Lens_xpm[] = {
"32 32 191 2",
"  	c None",
". 	c #BABABA",
"+ 	c #BBBBBB",
"@ 	c #BEBEBE",
"# 	c #BCBCBC",
"$ 	c #D5D5D5",
"% 	c #E8E8E8",
"& 	c #F8F8F8",
"* 	c #F7F7F7",
"= 	c #F6F6F6",
"- 	c #F4F4F4",
"; 	c #E9E9E9",
"> 	c #D6D6D6",
", 	c #C1C1C1",
"' 	c #B9B9B9",
") 	c #B8B8B8",
"! 	c #D1D1D1",
"~ 	c #FCFCFC",
"{ 	c #FBFBFB",
"] 	c #FAFAFA",
"^ 	c #F0F2F4",
"/ 	c #EAEEF0",
"( 	c #F3F3F3",
"_ 	c #F0F0F0",
": 	c #D8D8D8",
"< 	c #B5B5B5",
"[ 	c #E2E2E2",
"} 	c #FFFFFF",
"| 	c #FEFEFE",
"1 	c #E6ECF0",
"2 	c #BACCD8",
"3 	c #A0B8C9",
"4 	c #A4BBCC",
"5 	c #A9BFCF",
"6 	c #9CB5C7",
"7 	c #B1C4D2",
"8 	c #D0DAE1",
"9 	c #F2F2F2",
"0 	c #F1F1F1",
"a 	c #E4E4E4",
"b 	c #BFBFBF",
"c 	c #B6B6B6",
"d 	c #DDDDDD",
"e 	c #FCFCFD",
"f 	c #BFCFDB",
"g 	c #B3C6D4",
"h 	c #DBE4EB",
"i 	c #F6F9FB",
"j 	c #F7FBFD",
"k 	c #F3F9FC",
"l 	c #F0F7FB",
"m 	c #D8E6EE",
"n 	c #BBCEDC",
"o 	c #A9BFCE",
"p 	c #E5E9EB",
"q 	c #E5E5E5",
"r 	c #CCCCCC",
"s 	c #FAFAFB",
"t 	c #B2C5D3",
"u 	c #C8D6E0",
"v 	c #FDFEFE",
"w 	c #FAFCFE",
"x 	c #EBF5FA",
"y 	c #E7F2F9",
"z 	c #E3F0F8",
"A 	c #C1D5E2",
"B 	c #A1B9CA",
"C 	c #E1E6E9",
"D 	c #DADADA",
"E 	c #EEEEEE",
"F 	c #C5D3DD",
"G 	c #DEEEF7",
"H 	c #D9EBF5",
"I 	c #BED4E3",
"J 	c #A6BCCC",
"K 	c #EEEFF0",
"L 	c #C4C4C4",
"M 	c #CBCBCB",
"N 	c #F9F9F9",
"O 	c #ECEFF2",
"P 	c #9DB6C8",
"Q 	c #FCFDFD",
"R 	c #D4E8F4",
"S 	c #CFE6F3",
"T 	c #B1CADA",
"U 	c #CBD6DF",
"V 	c #DCDCDC",
"W 	c #B3B3B3",
"X 	c #B1B1B1",
"Y 	c #C8D5DF",
"Z 	c #CFDCE4",
"` 	c #CAE3F1",
" .	c #BFDBEB",
"..	c #A6BDCC",
"+.	c #E5ECF2",
"@.	c #C4E0F0",
"#.	c #BFDDEF",
"$.	c #A0BACC",
"%.	c #E9EDEF",
"&.	c #ECECEC",
"*.	c #F5F5F5",
"=.	c #A4BBCB",
"-.	c #EEF4F8",
";.	c #BADBED",
">.	c #A2BDD0",
",.	c #E1E7EB",
"'.	c #C7C7C7",
").	c #EBEBEB",
"!.	c #E9F1F6",
"~.	c #B5D8EC",
"{.	c #A1BDD0",
"].	c #E1E7EC",
"^.	c #B2C5D2",
"/.	c #DBE7EE",
"(.	c #B0D5EB",
"_.	c #9EB9CB",
":.	c #EEF1F3",
"<.	c #A4A4A4",
"[.	c #CAD5DE",
"}.	c #C1D3DF",
"|.	c #A8CEE3",
"1.	c #EFEFEF",
"2.	c #E8EBED",
"3.	c #9EB6C8",
"4.	c #DCEAF3",
"5.	c #ABD3E9",
"6.	c #A0C0D5",
"7.	c #D4DFE6",
"8.	c #DFDFDF",
"9.	c #A3A3A3",
"0.	c #ACACAC",
"a.	c #C7D3DC",
"b.	c #B8CDDB",
"c.	c #A1C3D8",
"d.	c #ADC2D1",
"e.	c #FBFBFC",
"f.	c #C5C5C5",
"g.	c #EDEDED",
"h.	c #EEEEEF",
"i.	c #B8C9D5",
"j.	c #B2C9D8",
"k.	c #C5DCEA",
"l.	c #A1C1D6",
"m.	c #F3F6F8",
"n.	c #CACACA",
"o.	c #CFCFCF",
"p.	c #9B9B9B",
"q.	c #B1CBDC",
"r.	c #B9D6E8",
"s.	c #AED2E7",
"t.	c #A6C9DD",
"u.	c #9EBCCF",
"v.	c #C3D2DD",
"w.	c #F9FBFB",
"x.	c #989898",
"y.	c #C5D2DC",
"z.	c #AABFCE",
"A.	c #B9CAD7",
"B.	c #E4EAEE",
"C.	c #FDFDFD",
"D.	c #E3E3E3",
"E.	c #BDBDBD",
"F.	c #7A7A7A",
"G.	c #E7E7E7",
"H.	c #7C7C7C",
"I.	c #1F1F1F",
"J.	c #838383",
"K.	c #C9C9C9",
"L.	c #E6E6E6",
"M.	c #D3D3D3",
"N.	c #B0B0B0",
"O.	c #B2B2B2",
"P.	c #808080",
"Q.	c #8C8C8C",
"R.	c #ABABAB",
"S.	c #AEAEAE",
"T.	c #A1A1A1",
"U.	c #7E7E7E",
"V.	c #5C5C5C",
"W.	c #6F6F6F",
"X.	c #A6A6A6",
"Y.	c #303030",
"Z.	c #464646",
"`.	c #010101",
" +	c #111111",
".+	c #030303",
"++	c #0A0A0A",
"@+	c #696969",
"#+	c #020202",
"$+	c #414141",
"%+	c #080808",
"                  . . + @ . . .                                 ",
"              # $ % & * = - ; > , '                             ",
"          ) ! * ~ { ] ^ / = - ( _ : #                           ",
"        < [ } | 1 2 3 4 5 6 7 8 9 0 a b                         ",
"      c d | e f g h i j k l m n o p 0 q #                       ",
"      r ~ s t u v w j k l x y z A B C 0 D c                     ",
"    + E { F u v w j k l x y z G H I J K _ L                     ",
"    M N O P Q w j k l x y z G H R S T U 9 V W                   ",
"  X d & Y Z w j k l x y z G H R S `  ...- E +                   ",
"  W ; = 7 +.j k l x y z G H R S ` @.#.$.%.( ,                   ",
"  c &.*.=.-.k l x y z G H R S ` @.#.;.>.,.*.'.                  ",
"  < ).( ..!.l x y z G H R S ` @.#.;.~.{.].= '.                  ",
"  X a 9 ^./.x y z G H R S ` @.#.;.~.(._.:.& ,                   ",
"  <.: 0 [.}.y z G H R S ` @.#.;.~.(.|.o ] ( c                   ",
"    '.1.2.3.4.G H R S ` @.#.;.~.(.5.6.7.{ 8.9.                  ",
"    0.[ 1.a.b.H R S ` @.#.;.~.(.5.c.d.e.{ L                     ",
"      f.g.h.i.j.k.` @.#.;.~.(.5.l.o m.| 8.n.o.                  ",
"      p.o.E 1.8 B q.r.;.~.s.t.u.v.w.} g.+ ; V .                 ",
"        x.o.g._ 2.y.z.6 6 J A.B.~ C.D.E.% 0 V F.                ",
"          x.'.a _ 0 ( - = * N ] ( r E.G.} 0 W H.I.              ",
"            J.0.K.D L.9 - &.a M.E.N.V 0 } O.P.Q.H.I.            ",
"                  x.R.' . S.T.U.  9.V 0 0.V.W.P.Q.H.I.          ",
"                                    ) X.Y.Z.V.W.P.Q.H.I.        ",
"                                      `. +Y.Z.V.W.P.Q.H.I.      ",
"                                        `. +Y.Z.V.W.P.Q.H.I.    ",
"                                          `. +Y.Z.V.W.P.Q.H..+  ",
"                                            `. +Y.Z.V.W.P.P.++  ",
"                                              `. +Y.Z.V.@+#+    ",
"                                                `. +Y.$+#+      ",
"                                                  `.%+.+        ",
"                                                                ",
"                                                                "};
