/* XPM */
static char * lens_view_xpm[] = {
"16 15 31 1",
" 	c None",
".	c #C0C0C0",
"+	c #5A89A6",
"@	c #6B97B6",
"#	c #6792AE",
"$	c #5F8FB0",
"%	c #538BB1",
"&	c #4B82A8",
"*	c #3A749C",
"=	c #8EA9BC",
"-	c #C3DDF1",
";	c #B6D5EE",
">	c #A5CCEA",
",	c #97C4E7",
"'	c #85BBE2",
")	c #619BC4",
"!	c #71A8D1",
"~	c #D1E5F5",
"{	c #69A1CF",
"]	c #FFFFFF",
"^	c #000000",
"/	c #7FA6C0",
"(	c #E2EFF8",
"_	c #F4F9FD",
":	c #C00000",
"<	c #FAFCFE",
"[	c #F7FBFD",
"}	c #749BB5",
"|	c #EFF6FC",
"1	c #FDFDFE",
"2	c #84A5BB",
"..++@#$%&*=.....",
"..+--;>,')!)....",
"..+~~-;>,{],@...",
"..=---^^^/]],@..",
"..=('^]]]^#@$%..",
"..=(^_]]]]^,'%..",
"..=(^]]]]]^',%..",
"..=(^]]]]]^;>$..",
"..=('^]]]:^~-@..",
"..=(<[^^^::^~}..",
"..=('''''|::^}..",
"..=(]1<[_<<::^..",
"..=(''''''''::^.",
"..=(]]]1<<<]]::.",
"..==========2=.."};
