/* XPM */
static char * zoom_in_xpm[] = {
"16 16 149 2",
"  	c None",
". 	c #949699",
"+ 	c #929396",
"@ 	c #919395",
"# 	c #919295",
"$ 	c #909294",
"% 	c #B9B8B8",
"& 	c #FCF8F5",
"* 	c #FFFFFF",
"= 	c #FCF7F5",
"- 	c #B9B7B8",
"; 	c #909194",
"> 	c #8E9092",
", 	c #CFCDCD",
"' 	c #FAFDFF",
") 	c #8ABCE7",
"! 	c #519DDA",
"~ 	c #57A3DD",
"{ 	c #5BA6DE",
"] 	c #96C8EC",
"^ 	c #FCFFFF",
"/ 	c #CECCCC",
"( 	c #8E8F92",
"_ 	c #8E9093",
": 	c #B2B2B3",
"< 	c #F5FAFE",
"[ 	c #58A0DB",
"} 	c #A3CCEC",
"| 	c #DFEFFB",
"1 	c #D6ECFA",
"2 	c #BEE0F4",
"3 	c #95CAEC",
"4 	c #72B9E7",
"5 	c #F9FDFF",
"6 	c #B2B1B2",
"7 	c #898A8D",
"8 	c #F1EDEA",
"9 	c #88BAE6",
"0 	c #A3CCED",
"a 	c #E7F4FB",
"b 	c #D5EEFC",
"c 	c #1F5989",
"d 	c #B4E1F8",
"e 	c #9AD2F1",
"f 	c #7BC3EB",
"g 	c #A1D3F0",
"h 	c #F0EBE9",
"i 	c #888A8C",
"j 	c #86888A",
"k 	c #FFFFFD",
"l 	c #539FDC",
"m 	c #D7EAF9",
"n 	c #D6EFFC",
"o 	c #CBEFFF",
"p 	c #296190",
"q 	c #AFE9FF",
"r 	c #95DAF7",
"s 	c #8BD2F2",
"t 	c #7CC8EF",
"u 	c #FFFDFB",
"v 	c #86878A",
"w 	c #848588",
"x 	c #FFFCF7",
"y 	c #59A5DF",
"z 	c #D7EDFA",
"A 	c #205989",
"B 	c #306694",
"C 	c #2D618F",
"D 	c #265988",
"E 	c #98DFF9",
"F 	c #87D2F4",
"G 	c #FFF9F5",
"H 	c #828485",
"I 	c #FCF8F4",
"J 	c #5EA9E1",
"K 	c #BADEF5",
"L 	c #B5E1F8",
"M 	c #ACF5FF",
"N 	c #A9F2FF",
"O 	c #9FE5FB",
"P 	c #8CD9F8",
"Q 	c #FAF4F3",
"R 	c #828385",
"S 	c #818284",
"T 	c #E1DFDC",
"U 	c #8FC2E6",
"V 	c #8BC5EB",
"W 	c #99D3F0",
"X 	c #ABF4FF",
"Y 	c #9EE8FD",
"Z 	c #AEE2F5",
"` 	c #DEDCDB",
" .	c #7D8085",
"..	c #6E7072",
"+.	c #A2A1A2",
"@.	c #E2E6EB",
"#.	c #75BBE9",
"$.	c #7DC4ED",
"%.	c #8CD2F3",
"&.	c #9FE6FB",
"*.	c #9BE3FB",
"=.	c #E3E8EB",
"-.	c #9C9CA0",
";.	c #A5875B",
">.	c #7C7D7E",
",.	c #B6B3B4",
"'.	c #DFE4E6",
").	c #9ACDE9",
"!.	c #7ECBF1",
"~.	c #89D4F5",
"{.	c #8DDBF9",
"].	c #ADE1F2",
"^.	c #E0E5E6",
"/.	c #B0AEB0",
"(.	c #8A8B90",
"_.	c #DBE3ED",
":.	c #CA8F36",
"<.	c #7A7C7D",
"[.	c #9D9D9C",
"}.	c #D5D3D1",
"|.	c #EAE5E3",
"1.	c #E9E4E2",
"2.	c #E9E4E3",
"3.	c #D3D1D1",
"4.	c #9A9A9C",
"5.	c #7D8083",
"6.	c #BDC2C6",
"7.	c #E4EBF4",
"8.	c #EADEBF",
"9.	c #CA923F",
"0.	c #68696B",
"a.	c #797A7C",
"b.	c #787A7B",
"c.	c #78797B",
"d.	c #777A7E",
"e.	c #977D5B",
"f.	c #929AA2",
"g.	c #9BA3AF",
"h.	c #D8C2A0",
"i.	c #FFECB0",
"j.	c #C6903F",
"k.	c #B3813E",
"l.	c #BF9D73",
"m.	c #FFAD1F",
"n.	c #E0B75F",
"o.	c #C69144",
"p.	c #AB8047",
"q.	c #AA7F48",
"r.	c #AC8148",
"      . + @ # # + .             ",
"    $ % & * * * = - ;           ",
"  > , ' ) ! ~ { ] ^ / (         ",
"_ : < [ } | 1 2 3 4 5 6 _       ",
"7 8 9 0 a b c d e f g h i       ",
"j k l m n o p q r s t u v       ",
"w x y z A p B C D E F G w       ",
"H I J K L q C M N O P Q R       ",
"S T U V W r D N X Y Z `  .      ",
"..+.@.#.$.%.E &.Y *.=.-.;.      ",
"  >.,.'.).!.~.{.].^./.(._.:.    ",
"    <.[.}.|.1.2.3.4.5.6.7.8.9.  ",
"      0.a.b.c.c.d.e.f.g.h.i.j.  ",
"                    k.l.m.n.o.  ",
"                      p.q.r.    ",
"                                "};
