/* XPM */
static char * zoom_out_xpm[] = {
"16 16 156 2",
"  	c None",
". 	c #949699",
"+ 	c #929396",
"@ 	c #919395",
"# 	c #919295",
"$ 	c #909294",
"% 	c #B9B8B8",
"& 	c #FCF8F5",
"* 	c #FFFFFF",
"= 	c #FCF7F5",
"- 	c #B9B7B8",
"; 	c #909194",
"> 	c #8E9092",
", 	c #CFCDCD",
"' 	c #FAFDFF",
") 	c #8ABCE7",
"! 	c #519CDA",
"~ 	c #56A2DD",
"{ 	c #5AA6DE",
"] 	c #96C8EC",
"^ 	c #FCFFFF",
"/ 	c #CECCCC",
"( 	c #8E8F92",
"_ 	c #8E9093",
": 	c #B2B2B3",
"< 	c #F5FAFE",
"[ 	c #58A0DB",
"} 	c #A2CBEC",
"| 	c #DCECF9",
"1 	c #D0E7F6",
"2 	c #BBDDF2",
"3 	c #95C9EC",
"4 	c #72B9E7",
"5 	c #F9FDFF",
"6 	c #B2B1B2",
"7 	c #898A8D",
"8 	c #F1EDEA",
"9 	c #88BAE6",
"0 	c #A3CCED",
"a 	c #E6F3FA",
"b 	c #CEE8F7",
"c 	c #BCE1F5",
"d 	c #ADDAF3",
"e 	c #98D1F0",
"f 	c #7BC3EB",
"g 	c #A1D3F0",
"h 	c #F0EBE9",
"i 	c #888A8C",
"j 	c #86888A",
"k 	c #FFFFFD",
"l 	c #539FDC",
"m 	c #D7EAF9",
"n 	c #D4EDFB",
"o 	c #C4E8FB",
"p 	c #B6E5FB",
"q 	c #A8E2F9",
"r 	c #93D9F6",
"s 	c #8BD2F2",
"t 	c #7CC8EF",
"u 	c #FFFDFB",
"v 	c #86878A",
"w 	c #848588",
"x 	c #FFFCF7",
"y 	c #59A5DF",
"z 	c #D7EDFA",
"A 	c #1F5888",
"B 	c #245C8B",
"C 	c #275D8C",
"D 	c #285C8B",
"E 	c #255888",
"F 	c #98DFF9",
"G 	c #87D2F4",
"H 	c #FFF9F5",
"I 	c #828485",
"J 	c #FCF8F4",
"K 	c #5EA9E1",
"L 	c #BADEF5",
"M 	c #B3E0F7",
"N 	c #A9E2F9",
"O 	c #9FE5FD",
"P 	c #A6EEFF",
"Q 	c #A8F1FF",
"R 	c #9FE5FB",
"S 	c #8CD9F8",
"T 	c #FAF4F3",
"U 	c #828385",
"V 	c #818284",
"W 	c #E1DFDC",
"X 	c #8FC2E6",
"Y 	c #8BC5EB",
"Z 	c #98D2EF",
"` 	c #8FD4F2",
" .	c #9ADFF7",
"..	c #A4EBFC",
"+.	c #AAF3FF",
"@.	c #9EE8FD",
"#.	c #AEE2F5",
"$.	c #DEDCDB",
"%.	c #7D8085",
"&.	c #6E7072",
"*.	c #A2A1A2",
"=.	c #E2E6EB",
"-.	c #75BBE9",
";.	c #7CC4EC",
">.	c #89D0F1",
",.	c #94DAF5",
"'.	c #9CE3FA",
").	c #9BE3FB",
"!.	c #E3E8EB",
"~.	c #9C9CA0",
"{.	c #A5875B",
"].	c #7C7D7E",
"^.	c #B6B3B4",
"/.	c #DFE4E6",
"(.	c #9ACDE9",
"_.	c #7ECAF1",
":.	c #88D3F5",
"<.	c #8DDAF9",
"[.	c #ADE1F2",
"}.	c #E0E5E6",
"|.	c #B0AEB0",
"1.	c #8A8B90",
"2.	c #DBE3ED",
"3.	c #CA8F36",
"4.	c #7A7C7D",
"5.	c #9D9D9C",
"6.	c #D5D3D1",
"7.	c #EAE5E3",
"8.	c #E9E4E2",
"9.	c #E9E4E3",
"0.	c #D3D1D1",
"a.	c #9A9A9C",
"b.	c #7D8083",
"c.	c #BDC2C6",
"d.	c #E4EBF4",
"e.	c #EADEBF",
"f.	c #CA923F",
"g.	c #68696B",
"h.	c #797A7C",
"i.	c #787A7B",
"j.	c #78797B",
"k.	c #777A7E",
"l.	c #977D5B",
"m.	c #929AA2",
"n.	c #9BA3AF",
"o.	c #D8C2A0",
"p.	c #FFECB0",
"q.	c #C6903F",
"r.	c #B3813E",
"s.	c #BF9D73",
"t.	c #FFAD1F",
"u.	c #E0B75F",
"v.	c #C69144",
"w.	c #AB8047",
"x.	c #AA7F48",
"y.	c #AC8148",
"      . + @ # # + .             ",
"    $ % & * * * = - ;           ",
"  > , ' ) ! ~ { ] ^ / (         ",
"_ : < [ } | 1 2 3 4 5 6 _       ",
"7 8 9 0 a b c d e f g h i       ",
"j k l m n o p q r s t u v       ",
"w x y z A B C D E F G H w       ",
"I J K L M N O P Q R S T U       ",
"V W X Y Z `  ...+.@.#.$.%.      ",
"&.*.=.-.;.>.,.'.@.).!.~.{.      ",
"  ].^./.(._.:.<.[.}.|.1.2.3.    ",
"    4.5.6.7.8.9.0.a.b.c.d.e.f.  ",
"      g.h.i.j.j.k.l.m.n.o.p.q.  ",
"                    r.s.t.u.v.  ",
"                      w.x.y.    ",
"                                "};
