/* XPM */
static char *add_existing_item_xpm[] = {
/* columns rows colors chars-per-pixel */
"16 16 169 2",
"   c #376B19",
".  c #376B1F",
"X  c #376B21",
"o  c #3A6F22",
"O  c #4C7B31",
"+  c #356941",
"@  c #336862",
"#  c #447A7A",
"$  c #538C28",
"%  c #578F2D",
"&  c #5D884A",
"*  c #618A4A",
"=  c #668E4F",
"-  c #739860",
";  c #81AB61",
":  c #87B960",
">  c #87BA60",
",  c #8BBA62",
"<  c #8DBA64",
"1  c #8CBC65",
"2  c #8FBC67",
"3  c #8FBB6A",
"4  c #2E65B9",
"5  c #2F65BA",
"6  c #3065BA",
"7  c #3066BA",
"8  c #3166BB",
"9  c #3369BC",
"0  c #3871BF",
"q  c #4279BF",
"w  c #3B76C4",
"e  c #3C78C1",
"r  c #457EC2",
"t  c #407CC4",
"y  c #4280C5",
"u  c #4280C6",
"i  c #4582C5",
"p  c #4682C4",
"a  c #4582C6",
"s  c #4683C6",
"d  c #4784C6",
"f  c #4985C4",
"g  c #4B88C5",
"h  c #4B89C5",
"j  c #4988C6",
"k  c #4A88C6",
"l  c #4B89C6",
"z  c #4C89C6",
"x  c #4F8BC7",
"c  c #4D8BC8",
"v  c #4F8CC8",
"b  c #4F8DC8",
"n  c #4F8CC9",
"m  c #6492DB",
"M  c #6594DB",
"N  c #52B3F7",
"B  c #54B5F7",
"V  c #56B4F7",
"C  c #53B2F8",
"Z  c #53B4F8",
"A  c #55B4F8",
"S  c #7DB0E1",
"D  c #7DB2E2",
"F  c #65BEFB",
"G  c #62BDFC",
"H  c #67BDFC",
"J  c #64BEFC",
"K  c #68BFFD",
"L  c #6EC2FD",
"P  c #8EAD86",
"I  c #9BB8A6",
"U  c #9FBCAD",
"Y  c #B1D390",
"T  c #B1D692",
"R  c #B2D295",
"E  c #B4D495",
"W  c #B6D49C",
"Q  c #D0E6BA",
"!  c #84B6E2",
"~  c #96D6FF",
"^  c #98D7FF",
"/  c #9BD6FF",
"(  c #9ED7FF",
")  c #A0D8FF",
"_  c #B3D2F1",
"`  c #B5D4F3",
"'  c #B8D6F4",
"]  c #BAD6F5",
"[  c #BBD6F5",
"{  c #B4D8F6",
"}  c #BBD8F6",
"|  c #BCD9F6",
" . c #BDDAF6",
".. c #C1DBF8",
"X. c #C2DCF8",
"o. c #C3DDF9",
"O. c #C4DDF9",
"+. c #C5DFF9",
"@. c #C6DFFA",
"#. c #C7DFFA",
"$. c #C7E0FA",
"%. c #C8E0F9",
"&. c #C8E0FA",
"*. c #C8E0FB",
"=. c #C9E1FB",
"-. c #CAE1FA",
";. c #C9E2FB",
":. c #CBE2FB",
">. c #CCE1FB",
",. c #CCE3FB",
"<. c #CDE3FB",
"1. c #CEE3FB",
"2. c #C9E5FA",
"3. c #CDE3FC",
"4. c #CFE3FC",
"5. c #CFE4FC",
"6. c #CDE6FC",
"7. c #D7E6F2",
"8. c #DFE9F4",
"9. c #DFEBF5",
"0. c #DCEAF6",
"q. c #DEEAF6",
"w. c #DEEBF6",
"e. c #DFECF7",
"r. c #D0E4FB",
"t. c #D1E4FC",
"y. c #D3E5FC",
"u. c #D3E5FD",
"i. c #D2E6FC",
"p. c #D3E6FC",
"a. c #D3E7FD",
"s. c #D4E6FC",
"d. c #D4E6FD",
"f. c #D5E6FD",
"g. c #D5E7FD",
"h. c #D6E7FD",
"j. c #D5E5FE",
"k. c #D6E7FE",
"l. c #D7E7FE",
"z. c #D6E8FE",
"x. c #D7E8FE",
"c. c #D8E8FE",
"v. c #E3EDF7",
"b. c #E9EFF5",
"n. c #E6F0F7",
"m. c #ECF2F7",
"M. c #E8F1F8",
"N. c #EAF1F8",
"B. c #EBF2F8",
"V. c #EAF2FA",
"C. c #EBF3FA",
"Z. c #ECF2F8",
"A. c #EDF3F8",
"S. c #ECF3F9",
"D. c #EDF4F8",
"F. c #EDF4F9",
"G. c #EEF4F8",
"H. c #EFF4F9",
"J. c #EDF4FA",
"K. c #EFF4FA",
"L. c #F0F4F8",
"P. c #F0F4F9",
"I. c #F1F5F9",
"U. c #F2F6FA",
"Y. c #F3F7FB",
"T. c #F8FBFD",
"R. c #F8FBFF",
"E. c gray100",
"W. c None",
/* pixels */
"W.W.c v v v v b v x h w W.W.W.W.",
"W.f m.G.G.S.S.S.S.m.7.D M W.W.W.",
"W.g U.$.-.;.-.@...' R.{ D m W.W.",
"W.g U.3.1.3.-.#...[ R.6.2.! q W.",
"W.g U.3.1.r.3.-.@. .8.S.Y.b.r W.",
"W.g U.a.y.a.r.3.@...[ ` _ L.p W.",
"W.j G.x.y.x.y.a.#.#.o. .| J.p W.",
"W.g G.x.c.c.x.y.r.1.@.o.o.J.p W.",
"W.s S.x.c.x.x.y.j.r.1.@.@.V.t W.",
"W.p S.y.x.y.x.a.j.r.U - = * # W.",
"W.u M.a.a.a.x.a.r.I ; E Q 3 %   ",
"W.t b.V V N B A N & Y T E.2 2   ",
"W.0 b.L ) ( / ^ ~ O W E.E.E.R   ",
"W.w e.H H G L V G o , : E.: 2   ",
"W.9 V.e.e.8.0.8.V.P $ < R < $   ",
"W.W.4 4 8 5 4 7 7 4 @ X   . + W."
};
