/* XPM */
static char *aspect_transformation_xpm[] = {
/* columns rows colors chars-per-pixel */
"16 16 169 2",
"   c #2C6D27",
".  c #33762D",
"X  c #3A7F35",
"o  c #002A68",
"O  c #002E72",
"+  c #9D0E14",
"@  c #9C0E16",
"#  c #BE0000",
"$  c #B70B0F",
"%  c #A30D13",
"&  c #A50D15",
"*  c #AF0C10",
"=  c #B20710",
"-  c #B20C11",
";  c #B40C10",
":  c #BA0C10",
">  c #C80000",
",  c #D00000",
"<  c #DE0000",
"1  c #F7080D",
"2  c #FF1F1F",
"3  c #FF2424",
"4  c #FF3434",
"5  c #802F57",
"6  c #C03054",
"7  c #FF4444",
"8  c #F34F56",
"9  c #EB535D",
"0  c #FE5757",
"q  c #FF6B6B",
"w  c #FB7274",
"e  c #42833D",
"r  c #41883A",
"t  c #43893C",
"y  c #448B3D",
"u  c #5BA851",
"i  c #60A05A",
"p  c #6AAB63",
"a  c #6AAC63",
"s  c #7ABA74",
"d  c #7DC377",
"f  c #82C27A",
"g  c #83C479",
"h  c #84C07D",
"j  c #003482",
"k  c #003687",
"l  c #003C96",
"z  c #003E9B",
"x  c #365D95",
"c  c #004AB9",
"v  c #0057DA",
"b  c #2D6AC3",
"n  c #1F6EE3",
"m  c #0F69F0",
"M  c #1C74F8",
"N  c #257AF8",
"B  c #4273C5",
"V  c #4474C5",
"C  c #4575C6",
"Z  c #4575C7",
"A  c #4779C7",
"S  c #487DC3",
"D  c #4575C8",
"F  c #4675C8",
"G  c #537FCA",
"H  c #B25582",
"J  c #B05785",
"K  c #B76790",
"L  c #F37F85",
"P  c #79BC80",
"I  c #5083CA",
"U  c #5383CA",
"Y  c #5480CA",
"T  c #5485CA",
"R  c #5585CB",
"E  c #5586CB",
"W  c #5686CB",
"Q  c #5787CB",
"!  c #5583CC",
"~  c #5681CE",
"^  c #5586CC",
"/  c #5686CC",
"(  c #5787CC",
")  c #5585CF",
"_  c #5887CC",
"`  c #5688CB",
"'  c #5688CC",
"]  c #5788CC",
"[  c #5F96CC",
"{  c #6595CD",
"}  c #7192C2",
"|  c #7398CD",
" . c #6895D7",
".. c #6D9ED0",
"X. c #6CA0D1",
"o. c #418BF9",
"O. c #5597FA",
"+. c #7CA9EA",
"@. c #65A1FA",
"#. c #72A9FA",
"$. c #75AAFA",
"%. c #F98184",
"&. c #FF9999",
"*. c #DF94A6",
"=. c #FFB6B6",
"-. c #FBB9BB",
";. c #FFBBBB",
":. c #8DC485",
">. c #8EC988",
",. c #8FCB88",
"<. c #93CA8A",
"1. c #92CB8A",
"2. c #94CB8C",
"3. c #95CC8E",
"4. c #97CD8F",
"5. c #9DCF94",
"6. c #9AD191",
"7. c #9ED196",
"8. c #A5D49C",
"9. c #88BBEA",
"0. c #91BBE4",
"q. c #92BBE4",
"w. c #93BBE4",
"e. c #96BEE5",
"r. c #96BFE6",
"t. c #9FBCE4",
"y. c #82B2F9",
"u. c #90BBFA",
"i. c #93C1EC",
"p. c #9DC3EA",
"a. c #9DC3FB",
"s. c #A1C0EB",
"d. c #BACFE9",
"f. c #B6D1F7",
"g. c #B2D0FD",
"h. c #E5CAD7",
"j. c #ECCBD5",
"k. c #FCCFD0",
"l. c #D9D2E5",
"z. c #C5DBFD",
"x. c #C8DFFA",
"c. c #EFD8E1",
"v. c #EFDBE4",
"b. c #C4E2FA",
"n. c #CCE0FD",
"m. c #DDE9F5",
"M. c #D1E1F9",
"N. c #D9E9FF",
"B. c #DBEAFF",
"V. c #E3E1F1",
"C. c #E3EFFA",
"Z. c #E7F0FA",
"A. c #E7F2FA",
"S. c #E8F1FA",
"D. c #E9F1FB",
"F. c #EBF3FA",
"G. c #E8F2FC",
"H. c #E9F3FD",
"J. c #EAF3FD",
"K. c #ECF3FC",
"L. c #EDF5FE",
"P. c #F0F6FE",
"I. c #F1F7FE",
"U. c #F0F7FF",
"Y. c #F2F7FF",
"T. c #F3F8FB",
"R. c #F3F9FE",
"E. c #FEFFFF",
"W. c None",
/* pixels */
"A ^ ] ` ' Q I W.W.W.W.W.W.W.W.W.",
"T h.8 J K l.A.9.) W.W.W.W.W.W.W.",
"W -.4 q < j.R.b.i.S W.W.W.W.W.W.",
"E %.7 ;.# 9 m.F.T.{ W.W.W.W.W.W.",
"E 1 0 =.> 5 p.r.q.q.X...[ W.W.W.",
"*., &.=.2 @ e.E.H.J.G.C.A.9.) W.",
"6 # L w 3 + w.L.x.x.z.g.n.R.9.S ",
"H $ * : : ; q.P.x.x.$.O.@.x.R.U ",
"- # k.v.c.% q.I.x.x.@.u.N M.I._ ",
"& = V.B.N.y 0.Y.x.a.#.n.m +.I.( ",
"2.i S.Z.D.d y U.x.o.y.x.n b I./ ",
",.:.D Z u g P y c M f.x. .z d.R ",
"s f 1.4.7.8.6.P y m s.t.| k } ! ",
"e p h >.3.5.<.y v c l j O o x ~ ",
"W.  . X r a y K.S.I.I.I.I.I.I.Y ",
"W.W.W.W.W.t B C D Z D Z Z F V G "
};
