/* XPM */
static char *aspect_xpm[] = {
/* columns rows colors chars-per-pixel */
"16 16 73 1",
"  c #371212",
". c #461717",
"X c #521B1B",
"o c #7C1616",
"O c #612020",
"+ c #732626",
"@ c #364A64",
"# c #374B65",
"$ c #812B2B",
"% c #8E2F2F",
"& c #933030",
"* c #943131",
"= c #9C3333",
"- c #A83838",
"; c #C04343",
": c #C65555",
"> c #C75757",
", c #C75858",
"< c #CC6565",
"1 c #D07373",
"2 c #D27878",
"3 c #93A2B7",
"4 c #95A4B9",
"5 c #9AA9BE",
"6 c #D48181",
"7 c #DA9090",
"8 c #DE9C9C",
"9 c #DE9D9D",
"0 c #E4B1B1",
"q c #E6B4B4",
"w c #9CABC0",
"e c #9EAEC3",
"r c #A8B3C2",
"t c #A3B2C8",
"y c #A4B3C9",
"u c #A7B6CC",
"i c #A9B9CF",
"p c #ABBBD1",
"a c #AFBFD5",
"s c #BAC5D4",
"d c #B2C2D8",
"f c #AFC3ED",
"g c #B2C5EE",
"h c #B6C8EF",
"j c #B7C9EF",
"k c #BDCEF0",
"l c #EBC3C3",
"z c #EECCCC",
"x c #F3DBDB",
"c c #F4DFDF",
"v c #CED6E2",
"b c #C2D1F1",
"n c #C9D7F3",
"m c #CBDDF1",
"M c #CCDEF2",
"N c #D1DDF4",
"B c #D0E0F2",
"V c #D6E4F4",
"C c #DFEAF7",
"Z c #F5E2E2",
"A c #F6E4E4",
"S c #F8EAEA",
"D c #E4EDF8",
"F c #E7EFF9",
"G c #EAF1FA",
"H c #FAF0F0",
"J c #FBF4F4",
"K c #F2F7FC",
"L c #FDF8F8",
"P c #FAFCFE",
"I c #FEFDFD",
"U c gray100",
"Y c None",
/* pixels */
"YYYYYYYYYYYYYYYY",
"YddddddaiyvYYYYY",
"YdUUUUUUUw@rYYYY",
"YaUUUUUUU4s@rYYY",
"YpUIIlqzI4##@YYY",
"YuUII2,<JHNn#YYY",
"YtULz<7-zSKb@YYY",
"YeUJ91z%1ZGk@YYY",
"Y5PA;6A*&xDj@YYY",
"Y4K8=qc>X0Ch@YYY",
"Y3G,%%%..:Vg@YYY",
"Y3F+Occc $Bg@YYY",
"Y3CooCCC.omg@YYY",
"Y3VVVBBMmmmf@YYY",
"Y3nbjjgfffff@YYY",
"Y3@@@@@@@@@@@YYY"
};
