/* XPM */
static char *aspect_project_xpm[] = {
/* columns rows colors chars-per-pixel */
"16 16 65 1",
"  c #2B4DC3",
". c #2B50C4",
"X c #3155C6",
"o c #3361CC",
"O c #3763CC",
"+ c #3766CC",
"@ c #3767CD",
"# c #3569CF",
"$ c #3868CE",
"% c #3968CE",
"& c #3A6ACF",
"* c #3A6DCF",
"= c #3A6CD1",
"- c #3A73D3",
"; c #3F74D3",
": c #3E77D3",
"> c #4271D0",
", c #447AD5",
"< c #457AD5",
"1 c #427ED6",
"2 c #437ED6",
"3 c #4D7CD5",
"4 c #517ED6",
"5 c #4280D7",
"6 c #4084D8",
"7 c #4184D8",
"8 c #4A83D8",
"9 c #4389D9",
"0 c #438BD8",
"q c #4788DA",
"w c #498EDA",
"e c #5083D7",
"r c #5386D8",
"t c #5686D9",
"y c #528BDA",
"u c #5A89DA",
"i c #588CDA",
"p c #5D8FDA",
"a c #5696DD",
"s c #5E93DB",
"d c #5E96DC",
"f c #608FDB",
"g c #6090DB",
"h c #6B96DC",
"j c #639BDE",
"k c #689DDF",
"l c #6A9FDF",
"z c #77A0DF",
"x c #6CA7E2",
"c c #71A4E1",
"v c #71A4E2",
"b c #70A6E2",
"n c #75A4E1",
"m c #79A6E1",
"M c #7AA6E1",
"N c #79A7E2",
"B c #73A8E1",
"V c #73A9E3",
"C c #7CA9E2",
"Z c #81A8E3",
"A c #82AEE4",
"S c #8BB7E7",
"D c #8FBAE7",
"F c #91BCE9",
"G c None",
/* pixels */
"GGGGGGGGGGGGGGGG",
"GGGGGGGGGGGGGGGG",
"GGGGGGG0w967-GGG",
"GGGGGGGxFDSv1GGG",
"GGGGGGGaVBc:GGGG",
"GGGGGGGbq2A*GGGG",
"GGGGGGjdG#C=GGGG",
"GGGGG5lGGom,GGGG",
"GGGGGkyGG@MrGGGG",
"GGGGsN8&%<ZtGGGG",
"GGG;C+GGGOzuGGGG",
"GGGniGGGGGhfGGGG",
"G$pge.GG >43XGGG",
"GGGGGGGGGGGGGGGG",
"GGGGGGGGGGGGGGGG",
"GGGGGGGGGGGGGGGG"
};
