/* XPM */
static char *break_xpm[] = {
/* columns rows colors chars-per-pixel */
"16 16 87 1",
"  c #251901",
". c #271901",
"X c #2A1B01",
"o c #2E1E01",
"O c #2F1F01",
"+ c #322101",
"@ c #372401",
"# c #382501",
"$ c #3A2601",
"% c #3B2701",
"& c #402901",
"* c #412A01",
"= c #462D01",
"- c #492F01",
"; c #4C3101",
": c #4D3201",
"> c #503401",
", c #533601",
"< c #553701",
"1 c #563801",
"2 c #5C3B01",
"3 c #5F3D01",
"4 c #603E01",
"5 c #634001",
"6 c #654101",
"7 c #664201",
"8 c #6B4501",
"9 c #6E4701",
"0 c #6F4801",
"q c #714901",
"w c #724A01",
"e c #744A01",
"r c #754B01",
"t c #784D01",
"y c #7A4E01",
"u c #7B4F01",
"i c #7D5001",
"p c #805201",
"a c #815301",
"s c #855601",
"d c #875701",
"f c #885801",
"g c #8B5A01",
"h c #8E5B01",
"j c #915D01",
"k c #966001",
"l c #996201",
"z c #9D6501",
"x c #A06701",
"c c #A26801",
"v c #A66A01",
"b c #AF7001",
"n c #B07101",
"m c #B27201",
"M c #B57401",
"N c #B67501",
"B c #B87601",
"V c #C17B01",
"C c #C27C01",
"Z c #C47D01",
"A c #C57E01",
"S c #C88001",
"D c #CA8101",
"F c #CB8201",
"G c #D18601",
"H c #D48801",
"J c #D78A01",
"K c #DA8B01",
"L c #DB8C01",
"P c #DD8D01",
"I c #E08F01",
"U c #E49201",
"Y c #E99501",
"T c #EC9701",
"R c #F09A01",
"E c #F29B01",
"W c #F59C01",
"Q c #F69D01",
"! c #F89E01",
"~ c #F99F01",
"^ c #FFA200",
"/ c #FEA201",
"( c #FFA404",
") c #FFAA13",
"_ c #FFAD1D",
"` c #FFAE20",
"' c None",
/* pixels */
"''''''''''''''''",
"'''`_)(''WYKA'''",
"''')^~!''THVM'''",
"'''/QRT''PAnx'''",
"'''ETUL''FNxh'''",
"'''UIJD''Bvja'''",
"'''HGSM''ckdq'''",
"'''CZBz''ggi5'''",
"'''bmvs''ypw1'''",
"'''lxkr''8e7;'''",
"'''ajf6''272*'''",
"'''0su1'':2,#'''",
"'''4t9-''*>-O'''",
"'''<83%''@=&X'''",
"'''-&$+''oX. '''",
"''''''''''''''''"
};
