/* XPM */
static char *build_workspace_xpm[] = {
/* columns rows colors chars-per-pixel */
"16 16 61 1",
"  c #5171A9",
". c #5172A9",
"X c #5676AD",
"o c #5779AE",
"O c #587BB1",
"+ c #5C7EB4",
"@ c #5E81B7",
"# c #5F83B9",
"$ c #6085BA",
"% c #6185BB",
"& c #6387BD",
"* c #6488BE",
"= c #668BC0",
"- c #688EC3",
"; c #6F90C1",
": c #6C92C8",
"> c #6E97CC",
", c #799AC4",
"< c #7099CE",
"1 c #729ACF",
"2 c #739DD2",
"3 c #759ED4",
"4 c #76A0D5",
"5 c #77A2D7",
"6 c #78A2D8",
"7 c #79A2D8",
"8 c #79A3D9",
"9 c #7AA4DA",
"0 c #7AA4DB",
"q c #7AA6DC",
"w c #7BA7DC",
"e c #80A4D4",
"r c #81A7D6",
"t c #83A9D9",
"y c #86ABDC",
"u c #85ACDD",
"i c #86ADDD",
"p c #87ADDE",
"a c #87AFDF",
"s c #88B0DF",
"d c #8DB1DD",
"f c #91B4DE",
"g c #B1BFD8",
"h c #8DB4E3",
"j c #91B4E0",
"k c #9CBBE1",
"l c #92B9E8",
"z c #B4C2DA",
"x c #9DC0EA",
"c c #EEF1F7",
"v c #EEF2F7",
"b c #EFF2F7",
"n c #EFF2F8",
"m c #F0F3F8",
"M c #F0F3F9",
"N c #F3F6F9",
"B c #FEFEFE",
"V c #FEFEFF",
"C c #FEFFFF",
"Z c gray100",
"A c None",
/* pixels */
"Adwq94321<,AAAAA",
"ullllllllll;AAAA",
"wwwwwwwwwww=AAAA",
"0ZZZZZZZZZZ&AAAA",
"8Zzksapytre>,AAA",
"7Zjxxxxxxxxhl;AA",
":Zsssssssss5w=AA",
" -6MmnbbbvcNZ&AA",
"AA8Zgfwq97421<,A",
"AA7Zillllllllll;",
"AA:Zwwwwwwwwwww=",
"AA -0ZZZZZZZZZZ&",
"AAAA8ZZZZZZCVBZ$",
"AAAA7ZZZZZZZCVZ@",
"AAAA:ZZZZZZZZZZ.",
"AAAA -=*%#+OoX  "
};
