/* XPM */
static char *build_xpm[] = {
/* columns rows colors chars-per-pixel */
"16 16 114 2",
"   c #30712B",
".  c #32742C",
"X  c #357930",
"o  c #377540",
"O  c #3D7752",
"+  c #42843B",
"@  c #448B3D",
"#  c #539E4B",
"$  c #569850",
"%  c #589A52",
"&  c #5B9F53",
"*  c #5C9E55",
"=  c #549959",
"-  c #5CA852",
";  c #5EAB54",
":  c #61AB57",
">  c #61B057",
",  c #65B45B",
"<  c #67B65C",
"1  c #6BAC63",
"2  c #6CBC60",
"3  c #70B06A",
"4  c #73B46A",
"5  c #5071A4",
"6  c #5171A9",
"7  c #5373AA",
"8  c #5475AC",
"9  c #587AB0",
"0  c #5A7DB0",
"q  c #5A7CB2",
"w  c #5C7EB4",
"e  c #5C7EB5",
"r  c #5E81B7",
"t  c #5F83B9",
"y  c #6085BA",
"u  c #6185BB",
"i  c #6387BD",
"p  c #6488BE",
"a  c #668BC0",
"s  c #688EC3",
"d  c #6F90C1",
"f  c #6C92C8",
"g  c #6C94C9",
"h  c #6E94CA",
"j  c #6F96CB",
"k  c #6F97CC",
"l  c #7A9AC4",
"z  c #7099CE",
"x  c #729ACF",
"c  c #739CD1",
"v  c #739DD2",
"b  c #759ED4",
"n  c #76A0D5",
"m  c #79A2D8",
"M  c #79A3D9",
"N  c #7AA4DA",
"B  c #7AA4DB",
"V  c #7AA6DC",
"C  c #7BA7DC",
"Z  c #8AC682",
"A  c #8BC584",
"S  c #90C988",
"D  c #91CB8A",
"F  c #97CE90",
"G  c #99CF91",
"H  c #9FD296",
"J  c #A2D399",
"K  c #A6D69D",
"L  c #85ACDD",
"P  c #8DB1DD",
"I  c #92B9E8",
"U  c #D6E6D4",
"Y  c #DEE7F2",
"T  c #E4EAF3",
"R  c #E7EBF5",
"E  c #E8ECF6",
"W  c #EAEFF6",
"Q  c #EAF0F7",
"!  c #EBF2F7",
"~  c #EDF3F7",
"^  c #ECF2F8",
"/  c #EFF3FA",
"(  c #EEF4F8",
")  c #F0F5F9",
"_  c #F2F5FB",
"`  c #F1F6FB",
"'  c #F2F7FA",
"]  c #F2F7FB",
"[  c #F3F7FB",
"{  c #F4F7FB",
"}  c #F4F8FB",
"|  c #F5F8FB",
" . c #F5F9FB",
".. c #F7F9FB",
"X. c #F6FAFB",
"o. c #F7FBFC",
"O. c #F8FBFC",
"+. c #F9FBFC",
"@. c #F8FCFC",
"#. c #F9FCFC",
"$. c #F8FDFD",
"%. c #F9FDFD",
"&. c #FAFCFC",
"*. c #FAFDFD",
"=. c #FBFDFD",
"-. c #FBFEFE",
";. c #FCFDFD",
":. c #FCFEFE",
">. c #FDFEFE",
",. c #FCFFFF",
"<. c #FDFFFF",
"1. c #FEFFFF",
"2. c gray100",
"3. c None",
/* pixels */
"3.3.3.3.3.3.3.3.3.3.3.3.3.3.3.3.",
"3.P V V B B n b v x x j j l 3.3.",
"L I I I I I I I I I I I I I d 3.",
"C C C C C C C B C C C C C V a 3.",
"B 2.2.2.2.2.2.2.2.2.2.2.2.2.i 3.",
"M 2.+.+...{ } ( ~ W T T Y 2.y 3.",
"M 2.*.+.+.....} ` ( ^ Q E 2.r 3.",
"n 2.2.#.*.#...} ..` { ^ ^ 2.e 3.",
"b 2.*.*.2.*.*.*..... .] ` 2.q 3.",
"v 2.2.2.*.*.*.*.$.2 < ; - 2.9 3.",
"k 2.*.*.2.*.*.*.*., K H # 2.8 3.",
"g 2.2.2.2.2.*.2.*.; H H & U 7 3.",
"f 2.2.2.2.2.2.Z : 3 F D 3 + O 3.",
"7 s a i y y e 0 = 1 D Z % o 5 3.",
"3.3.3.3.3.3.3.3.3.@ * $ . 3.3.3.",
"3.3.3.3.3.3.3.3.3.3.X   3.3.3.3."
};
