/* XPM */
static char * buildlog_delete_xpm[] = {
"16 16 70 1",
" 	c None",
".	c #68BCEA",
"+	c #69BCEA",
"@	c #68BBEA",
"#	c #6EBFEB",
"$	c #70C2EF",
"%	c #61B5E5",
"&	c #ECF6FB",
"*	c #68B8E6",
"=	c #6DC1EE",
"-	c #60B2E1",
";	c #FFFFFF",
">	c #80C2E8",
",	c #FBFDFE",
"'	c #6FC5EA",
")	c #58AADC",
"!	c #E8F4FB",
"~	c #77BBE3",
"{	c #7EC5E7",
"]	c #50A3D7",
"^	c #E7F2F9",
"/	c #3D96CE",
"(	c #58A5D5",
"_	c #76B8E1",
":	c #499CD1",
"<	c #E5F1F9",
"[	c #F0F7FB",
"}	c #449AD1",
"|	c #4195CC",
"1	c #E5F0F8",
"2	c #FEFFFF",
"3	c #4A9ACE",
"4	c #3A8EC7",
"5	c #E3F0F7",
"6	c #4998CC",
"7	c #3288C1",
"8	c #DFEDF6",
"9	c #005A9F",
"0	c #E6F1F8",
"a	c #4091C6",
"b	c #E51616",
"c	c #EDA5A5",
"d	c #2A81BC",
"e	c #D7E9F4",
"f	c #F8FDFE",
"g	c #F3FAFD",
"h	c #F7FCFE",
"i	c #DEEEF7",
"j	c #398AC1",
"k	c #CFE5F3",
"l	c #EFF9FE",
"m	c #D6EAF6",
"n	c #3183BC",
"o	c #E3F3FC",
"p	c #E7F5FD",
"q	c #CEE6F4",
"r	c #2A7CB7",
"s	c #DFF2FC",
"t	c #C6E2F3",
"u	c #2276B2",
"v	c #DBF1FD",
"w	c #DFF4FF",
"x	c #C5E3F4",
"y	c #1B70AD",
"z	c #97C3E2",
"A	c #AFD5EC",
"B	c #B2D7ED",
"C	c #9DC9E5",
"D	c #1167A8",
"E	c #00529A",
"  .+@.++#$      ",
"  %&&&&&&*=     ",
"  -&;;;;;>,'    ",
"  )!;;;;;~,,{   ",
"  ]^;;;;;/((__  ",
"  :<;;;;;;;;[}  ",
"  |1;;;2;;;;[3  ",
"  45;;;;;;22[6  ",
"  78;999999;0a  ",
"bcdefcbgggghij  ",
"cbckcbc9999lmn  ",
" cbcbcooooopqr  ",
"  cbc999999stu  ",
" cbcbcvvvvvwxy  ",
"cbczcbcAAAABCD  ",
"bcEEEcbEEEEEE9  "};
