/* XPM */
static char *buildlog_enable_xpm[] = {
/* columns rows colors chars-per-pixel */
"16 16 82 1",
"  c #00529A",
". c #005A9F",
"X c #005CA1",
"o c #0B65A7",
"O c #1167A8",
"+ c #136CAC",
"@ c #1B70AD",
"# c #1A72B1",
"$ c #2276B2",
"% c #2279B7",
"& c #2A7CB7",
"* c #2A81BC",
"= c #3183BC",
"- c #3288C1",
"; c #398AC1",
": c #3A8EC7",
"> c #3D96CE",
", c #4091C6",
"< c #4195CC",
"1 c #4998CC",
"2 c #4A9ACE",
"3 c #449AD1",
"4 c #499CD1",
"5 c #50A3D7",
"6 c #58A5D5",
"7 c #58AADC",
"8 c #60B2E1",
"9 c #61B5E5",
"0 c #68B8E6",
"q c #68BBEA",
"w c #68BCEA",
"e c #69BCEA",
"r c #6EBFEB",
"t c #76B8E1",
"y c #77BBE3",
"u c #6FC5EA",
"i c #6DC1EE",
"p c #7EC5E7",
"a c #70C2EF",
"s c #80C2E8",
"d c #97C3E2",
"f c #9DC9E5",
"g c #AFD4EC",
"h c #AFD5EC",
"j c #B2D7ED",
"k c #B3D7EE",
"l c #BFDDF0",
"z c #BEDEF1",
"x c #C7E1F2",
"c c #C6E2F3",
"v c #C5E3F4",
"b c #CFE5F3",
"n c #CEE6F4",
"m c #D7E9F4",
"M c #D6EAF6",
"N c #DFEDF6",
"B c #DEEEF7",
"V c #DBF1FD",
"C c #DFF2FC",
"Z c #DFF4FF",
"A c #E3F0F7",
"S c #E5F0F8",
"D c #E5F1F9",
"F c #E6F1F8",
"G c #E7F2F9",
"H c #E0F3FD",
"J c #E3F3FC",
"K c #E0F4FF",
"L c #E7F5FD",
"P c #E8F4FB",
"I c #ECF6FB",
"U c #E8F6FE",
"Y c #EFF9FE",
"T c #F0F7FB",
"R c #F3FAFD",
"E c #F0FAFF",
"W c #F7FCFE",
"Q c #F8FDFE",
"! c #FBFDFE",
"~ c #FEFFFF",
"^ c #FFFFFF",
"/ c None",
/* pixels */
"//wwwwwwaa//////",
"//9IIPIII0i/////",
"//8I^^^^^s!u////",
"//7P^^^^^y!!p///",
"//5G^^^^^>66yt//",
"//4S^^^^^^^^T3//",
"//<S^^^^^^^^R1//",
"//:A^^^^^^^^I1//",
"//-N^......^S,//",
"//*M!RRRRRRWB;//",
"//%nY......YM=//",
"//@cUJJJJJJLn&//",
"//+lK......Cc$//",
"//ozKVVVVVVZv@//",
"//XdkgggggjjfO//",
"//           .//"
};
