/* XPM */
static char * buildlog_disable_xpm[] = {
"16 16 68 1",
" 	g None",
".	g #ADADAD",
"+	g #AEAEAE",
"@	g #B1B1B1",
"#	g #B4B4B4",
"$	g #A7A7A7",
"%	g #F4F4F4",
"&	g #AAAAAA",
"*	g #B2B2B2",
"=	g #A4A4A4",
"-	g #FFFFFF",
";	g #B7B7B7",
">	g #FDFDFD",
",	g #B5B5B5",
"'	g #9C9C9C",
")	g #F2F2F2",
"!	g #AFAFAF",
"~	g #B8B8B8",
"{	g #959595",
"]	g #F0F0F0",
"^	g #878787",
"/	g #989898",
"(	g #8E8E8E",
"_	g #EFEFEF",
":	g #F6F6F6",
"<	g #8C8C8C",
"[	g #EEEEEE",
"}	g #8D8D8D",
"|	g #808080",
"1	g #8B8B8B",
"2	g #7A7A7A",
"3	g #EBEBEB",
"4	g #4C4C4C",
"5	g #848484",
"6	g #737373",
"7	g #E6E6E6",
"8	g #FCFCFC",
"9	g #F9F9F9",
"0	g #FBFBFB",
"a	g #7D7D7D",
"b	g #6B6B6B",
"c	g #E1E1E1",
"d	g #F8F8F8",
"e	g #F7F7F7",
"f	g #E7E7E7",
"g	g #767676",
"h	g #646464",
"i	g #DDDDDD",
"j	g #F3F3F3",
"k	g #E2E2E2",
"l	g #6F6F6F",
"m	g #5E5E5E",
"n	g #D8D8D8",
"o	g #686868",
"p	g #575757",
"q	g #D9D9D9",
"r	g #F1F1F1",
"s	g #EDEDED",
"t	g #DEDEDE",
"u	g #626262",
"v	g #4D4D4D",
"w	g #BCBCBC",
"x	g #D1D1D1",
"y	g #CECECE",
"z	g #CFCFCF",
"A	g #C2C2C2",
"B	g #595959",
"C	g #464646",
"  .+..++@#      ",
"  $%%%%%%&*     ",
"  =%-----;>,    ",
"  ')-----!>>~   ",
"  {]-----^//..  ",
"  (_--------:<  ",
"  ^[--------:}  ",
"  |[--------:1  ",
"  23-444444-_5  ",
"  67899999903a  ",
"  bcd444444efg  ",
"  hi%]]]]]]jkl  ",
"  mn]444444_io  ",
"  pqrssssss]tu  ",
"  vwxyzzzzzxAB  ",
"  CCCCCCCCCCC4  "};
