/* XPM */
static char *clean_workspace_xpm[] = {
/* columns rows colors chars-per-pixel */
"16 16 131 2",
"   c #D79D22",
".  c #DBA625",
"X  c #DFAF31",
"o  c #DEAD3B",
"O  c #E2B73C",
"+  c #E2B73D",
"@  c #E3B938",
"#  c #AF9553",
"$  c #BCA14E",
"%  c #E3B543",
"&  c #E2B244",
"*  c #E5B752",
"=  c #E6BA51",
"-  c #E8BC58",
";  c #EBCC47",
":  c #E4C24E",
">  c #EAC949",
",  c #F2CF47",
"<  c #E7C753",
"1  c #E8C250",
"2  c #E9C352",
"3  c #E8CA55",
"4  c #EACE57",
"5  c #E3C258",
"6  c #EBD159",
"7  c #ECD45D",
"8  c #F4D85F",
"9  c #EDCF66",
"0  c #ECC76D",
"q  c #ECD163",
"w  c #EFD368",
"e  c #F2D260",
"r  c #F1D96B",
"t  c #F0D86E",
"y  c #E4C173",
"u  c #F1CF7D",
"i  c #F3DE74",
"p  c #F1D378",
"a  c #F0D07D",
"s  c #F2D67D",
"d  c #5171A9",
"f  c #5172A9",
"g  c #5373A9",
"h  c #5373AA",
"j  c #5475AB",
"k  c #5475AC",
"l  c #5676AD",
"z  c #5779AE",
"x  c #587AB0",
"c  c #5A7CB2",
"v  c #5C7EB5",
"b  c #607DA8",
"n  c #5E81B7",
"m  c #6085BA",
"M  c #6185BB",
"N  c #6387BD",
"B  c #6488BE",
"V  c #668BC0",
"C  c #688EC3",
"Z  c #6F90C1",
"A  c #6C92C8",
"S  c #6C94C9",
"D  c #6E94CA",
"F  c #6F96CB",
"G  c #6F97CC",
"H  c #7A9AC4",
"J  c #7099CE",
"K  c #729ACF",
"L  c #739CD1",
"P  c #739DD2",
"I  c #759ED4",
"U  c #76A0D5",
"Y  c #79A2D8",
"T  c #79A3D9",
"R  c #7AA4DA",
"E  c #7AA4DB",
"W  c #7AA6DC",
"Q  c #7BA7DC",
"!  c #E7CA82",
"~  c #EACF86",
"^  c #E9CF8B",
"/  c #EED68C",
"(  c #F4D784",
")  c #F4D981",
"_  c #F3D984",
"`  c #F5DE85",
"'  c #F4D788",
"]  c #F4DC89",
"[  c #E6CC90",
"{  c #EFDA92",
"}  c #F0DB90",
"|  c #F6E389",
" . c #F1E08D",
".. c #F7E38D",
"X. c #F6E090",
"o. c #F8E690",
"O. c #F8E793",
"+. c #F8E796",
"@. c #F2E29A",
"#. c #E9D3A5",
"$. c #ECDBA4",
"%. c #E7DAAE",
"&. c #EBDBAA",
"*. c #F0D9AB",
"=. c #F4E3A4",
"-. c #85ACDD",
";. c #8DB1DD",
":. c #92B9E8",
">. c #DEE1DC",
",. c #F4EECA",
"<. c #F5EFDF",
"1. c #F8F3D4",
"2. c #FAF3E5",
"3. c #F9F7E5",
"4. c #E8ECF4",
"5. c #ECF2F8",
"6. c #EFF3FA",
"7. c #FDFBF3",
"8. c #FDFAF5",
"9. c #F2F5FB",
"0. c #F2F7FB",
"q. c #F4F8FB",
"w. c #FAFBFA",
"e. c #FCFDFA",
"r. c #F8FBFC",
"t. c #F9FBFC",
"y. c #F9FCFC",
"u. c #FAFDFD",
"i. c #FCFDFD",
"p. c gray100",
"a. c None",
/* pixels */
"a.a.a.a.a.a.a.a.a.a.a.a.a.a.a.a.",
"a.;.Q W R Y U I P K J F S H a.a.",
"-.:.:.:.:.:.:.:.:.:.:.:.:.:.Z a.",
"Q Q Q Q Q Q Q Q Q Q Q Q Q Q V a.",
"E p.p.p.p.p.p.p.p.p.p.p.p.p.N a.",
"T p.t.r.,.7 6 4 3 < : 5 >.p.m a.",
"Y p.u.w. .i | ` ) p 1 %.4.p.n a.",
"U p.i.3.; O.8 X.s 2 &.6.5.p.v a.",
"I p.e.@.r +., ] @ $.q.0.9.p.c a.",
"L p.1.> o...e ( O ~ ^ ! [ 2.x a.",
"G p.q t w 9 _ ' u - *   #.8.k a.",
"D p.=.} { / + a 0 & y <.y.p.h a.",
"A p.p.p.p.7.X = o *.p.p.p.p.f a.",
"d C V B M $ % # b z l j g d d a.",
"a.a.a.a.a.. a.a.a.a.a.a.a.a.a.a.",
"a.a.a.a.a.a.a.a.a.a.a.a.a.a.a.a."
};
