/* XPM */
static char *debug_executable_xpm[] = {
/* columns rows colors chars-per-pixel */
"16 16 121 2",
"   c #414243",
".  c #464646",
"X  c #484848",
"o  c gray29",
"O  c #4C4C4C",
"+  c gray30",
"@  c #515151",
"#  c #525B6A",
"$  c #555E6D",
"%  c #646464",
"&  c #656565",
"*  c #676767",
"=  c #67696C",
"-  c gray42",
";  c #717171",
":  c gray45",
">  c gray47",
",  c #797979",
"<  c #7B7B7B",
"1  c #4D6382",
"2  c #607390",
"3  c #5171A9",
"4  c #5A7CB2",
"5  c #5C7EB5",
"6  c #5E81B7",
"7  c #6085BA",
"8  c #6387BD",
"9  c #668BC0",
"0  c #688EC3",
"q  c #6F90C1",
"w  c #6C92C8",
"e  c #6C94C9",
"r  c #6E94CA",
"t  c #6F96CB",
"y  c #6F97CC",
"u  c #7A9AC4",
"i  c #7099CE",
"p  c #729ACF",
"a  c #739CD1",
"s  c #739DD2",
"d  c #759ED4",
"f  c #76A0D5",
"g  c #79A2D8",
"h  c #79A3D9",
"j  c #7AA4DA",
"k  c #7AA4DB",
"l  c #7AA6DC",
"z  c #7BA7DC",
"x  c gray51",
"c  c #868686",
"v  c #878888",
"b  c #888888",
"n  c #8B8B8B",
"m  c #8C8D8D",
"M  c #8D8D8D",
"N  c #909090",
"B  c gray57",
"V  c #929292",
"C  c #979797",
"Z  c #999A9A",
"A  c #9D9E9E",
"S  c gray62",
"D  c #AAAAAA",
"F  c gray68",
"G  c #AEAEAE",
"H  c #B8BABA",
"J  c gray74",
"K  c #85ACDD",
"L  c #8DB1DD",
"P  c #92B9E8",
"I  c #BFC0C0",
"U  c #C1C1C1",
"Y  c gray76",
"T  c gray77",
"R  c #CECECE",
"E  c #CED3D3",
"W  c #DADADA",
"Q  c #DBDCDC",
"!  c #DDDDDD",
"~  c #DEE7F2",
"^  c gray91",
"/  c #EAEDEE",
"(  c #E4EAF3",
")  c #E7EBF5",
"_  c #E8ECF6",
"`  c #EAEFF6",
"'  c #EAF0F7",
"]  c #EBF2F7",
"[  c #EDF3F7",
"{  c #ECF2F8",
"}  c #EFF3FA",
"|  c #EEF4F8",
" . c #F4F6F6",
".. c #F0F5F9",
"X. c #F2F5FB",
"o. c #F1F6FB",
"O. c #F2F7FA",
"+. c #F2F7FB",
"@. c #F3F7FB",
"#. c #F4F7FB",
"$. c #F4F8FB",
"%. c #F5F8FB",
"&. c #F5F9FB",
"*. c #F7F9FB",
"=. c #F6FAFB",
"-. c #F7FBFC",
";. c #F8F8F8",
":. c #F8FAFA",
">. c #F8FBFC",
",. c #F9FBFC",
"<. c #F8FCFC",
"1. c #F9FCFC",
"2. c #F9FDFD",
"3. c #FAFCFC",
"4. c #FAFDFD",
"5. c #FBFDFD",
"6. c #FCFDFD",
"7. c #FCFEFE",
"8. c #FCFFFF",
"9. c gray100",
"0. c None",
/* pixels */
"0.0.0.0.0.0.0.0.0.0.0.0.0.0.0.0.",
"0.L z l j g f d s p i t e u 0.0.",
"K P P P P P P P P P P P P P q 0.",
"z z z z z z z z z z z z z z 9 0.",
"k 9.9.9.9.9.9.9.9.9.9.9.9.9.8 0.",
"h 9.,.>.*.#.O...[ ` ) ( ~ 9.7 0.",
"g 9.4.3.,.=.%.#.o.| ] ' _ 9.6 0.",
"f 9.6.5.4.1.-.&.$.@.X.} { 9.5 0.",
"d 9.7.5.6.5.2.<.*.&.$.+.X.9.4 0.",
"a 9.7.7. .H M S n Q / m S M 2 0.",
"y 9.8.:.A B ^ ! U B Z W ! T B O ",
"r 9.9.I < E v + & V , & + b T : ",
"w 9.9.N c E ;.X J R Y F X ;.T x ",
"3 0 9 1 = E $   . @ @ .   # T * ",
"0.0.0.0.+ M D G C ; > C G D M + ",
"0.0.0.0.0.o % - - 0.0.- - % o 0."
};
