/* XPM */
static char *debug_external_script_xpm[] = {
/* columns rows colors chars-per-pixel */
"16 16 147 2",
"   c #1F591C",
".  c #215E1E",
"X  c #1F7B00",
"o  c #1E7B03",
"O  c #1F7D00",
"+  c #217D00",
"@  c #217C01",
"#  c #257F00",
"$  c #22611F",
"%  c #3B5925",
"&  c #266C22",
"*  c #277023",
"=  c #237420",
"-  c #2B7326",
";  c #297424",
":  c #2A7926",
">  c #2E792A",
",  c #2E7B2A",
"<  c #2F7F2A",
"1  c #445026",
"2  c #58713B",
"3  c #667F46",
"4  c #2B8301",
"5  c #358707",
"6  c #3B8B0F",
"7  c #2E8329",
"8  c #2E852A",
"9  c #2D8929",
"0  c #2D8F28",
"q  c #33872F",
"w  c #30892B",
"e  c #318D2C",
"r  c #328C2D",
"t  c #379532",
"y  c #3A9235",
"u  c #389C33",
"i  c #3A9D33",
"p  c #389E33",
"a  c #3E9738",
"s  c #38A133",
"d  c #39A134",
"f  c #39A434",
"g  c #39A534",
"h  c #3AA634",
"j  c #3AA735",
"k  c #3AA835",
"l  c #3BAA36",
"z  c #3CAB36",
"x  c #3CAC36",
"c  c #3CAD37",
"v  c #3DAF37",
"b  c #3EA538",
"n  c #3FA539",
"m  c #3EA938",
"M  c #3DAC38",
"N  c #3DB138",
"B  c #3EB138",
"V  c #3EB238",
"C  c #3EB338",
"Z  c #3FB73A",
"A  c #438F15",
"S  c #458F17",
"D  c #49911B",
"F  c #519721",
"G  c #579828",
"H  c #5B9B29",
"J  c #50863A",
"K  c #5E9F3A",
"L  c #619D2F",
"P  c #639F31",
"I  c #639F32",
"U  c #659F31",
"Y  c #5CA03C",
"T  c #40B73A",
"R  c #67A133",
"E  c #6BA337",
"W  c #6BA338",
"Q  c #6DA338",
"!  c #6FA53D",
"~  c #5C9F42",
"^  c #549E4D",
"/  c #788C5F",
"(  c #4BAC45",
")  c #5DA141",
"_  c #5FA143",
"`  c #5DA342",
"'  c #5DA044",
"]  c #54A24C",
"[  c #57A64E",
"{  c #5FB74F",
"}  c #56AD50",
"|  c #59AA51",
" . c #59A952",
".. c #62A346",
"X. c #68A546",
"o. c #66A548",
"O. c #70AA4D",
"+. c #74AB4F",
"@. c #72AC4E",
"#. c #73AD4F",
"$. c #62A457",
"%. c #6DA351",
"&. c #7CAF55",
"*. c #7BB258",
"=. c #7EB45C",
"-. c #68AD62",
";. c #76B260",
":. c #7EC272",
">. c #81B35A",
",. c #80B55E",
"<. c #80B361",
"1. c #82B567",
"2. c #85B666",
"3. c #84B962",
"4. c #85B66A",
"5. c #89B86B",
"6. c #8EBA6F",
"7. c #8CBC6D",
"8. c #82B577",
"9. c #90BC74",
"0. c #91BE77",
"q. c #96BF83",
"w. c #95BF8E",
"e. c #8EC385",
"r. c #96C180",
"t. c #97C282",
"y. c #98C283",
"u. c #98C185",
"i. c #9EC588",
"p. c #9DC094",
"a. c #A1C68A",
"s. c #A1C78A",
"d. c #A5C88D",
"f. c #A5CC8D",
"g. c #A9CA90",
"h. c #A8CB90",
"j. c #AACB91",
"k. c #A8CE90",
"l. c #AAC897",
"z. c #ADCD94",
"x. c #ACCF94",
"c. c #A9CB9A",
"v. c #B0CE96",
"b. c #ADD49E",
"n. c #B8D7A4",
"m. c #C2E3AF",
"M. c None",
/* pixels */
"M.M.M.M.M.M.M.Z M.M.M.x M.M.M.M.",
"M.M.M.M.M.M.M.C x M.M.g M.M.M.M.",
"M.M.M.T M.M.M.x x / J s 2 M.M.M.",
"M.M.M.C C M.M l f d ;.m./ M.M.M.",
"M.M.M.M.x m ( b.n.e.0 { l.e w 8 ",
"C M.M.M.f b k.3.*.;.a 9 $.1 M.M.",
"x l f b } f.,.#.` | c.w.8 % M.M.",
"M.f d p x.=.#.` [ u.E U < : M.M.",
"M.M.u | 6.O.~ ] q.%.U >.G ; * & ",
"M.M.t -.0.~ ! Q R L &.z.+.S M.M.",
"M.M.y e 8.^ E z.z.j.j.9.s.X.5 M.",
"M.M.M.q = p.P z.6.5.2.;.2.y.Y # ",
"M.M.M.M., , H j.d.s.i.4.t.o.@ M.",
"M.M.M.M.M.- F D A 6 K t...O M.M.",
"M.M.M.M.M.M.M.M.&   4 _ X M.M.M.",
"M.M.M.M.M.M.M.M.M.  @ X M.M.M.M."
};
