/* XPM */
static char *debug_attach_xpm[] = {
/* columns rows colors chars-per-pixel */
"16 16 134 2",
"   c #3F3F3F",
".  c #414141",
"X  c #444444",
"o  c #444445",
"O  c #464646",
"+  c gray29",
"@  c #4B4B4B",
"#  c #4C4C4C",
"$  c gray30",
"%  c gray31",
"&  c #515151",
"*  c gray32",
"=  c #585858",
"-  c #5F5F5F",
";  c #646464",
":  c #656565",
">  c #676767",
",  c gray42",
"<  c #717171",
"1  c gray45",
"2  c #727375",
"3  c #757677",
"4  c gray47",
"5  c #797979",
"6  c #7B7B7B",
"7  c #7C7C7C",
"8  c #7E7E7E",
"9  c #428B42",
"0  c #56A950",
"q  c #758074",
"w  c gray51",
"e  c #848484",
"r  c gray52",
"t  c #878789",
"y  c #888889",
"u  c gray54",
"i  c #8A8A8B",
"p  c #8B8B8B",
"a  c gray55",
"s  c #8D8D8D",
"d  c gray56",
"f  c #8F8F90",
"g  c gray57",
"h  c #919192",
"j  c #929292",
"k  c #939394",
"l  c #959596",
"z  c #979797",
"x  c #959699",
"c  c #979798",
"v  c #989898",
"b  c #9B9B9B",
"n  c gray62",
"m  c #A2A2A2",
"M  c #A5A5A5",
"N  c gray65",
"B  c gray66",
"V  c #AAAAAA",
"C  c gray67",
"Z  c gray68",
"A  c #AEAEAE",
"S  c #AFAFAF",
"D  c #AFB1B9",
"F  c gray69",
"G  c gray70",
"H  c gray71",
"J  c #B6B6B6",
"K  c #BBBBBB",
"L  c gray74",
"P  c #A4C8A0",
"I  c #B8B9C0",
"U  c #B9BAC1",
"Y  c #B9BBC1",
"T  c #BABBC2",
"R  c #BBBCC3",
"E  c #BBBDC3",
"W  c #BCBEC4",
"Q  c #BEBFC5",
"!  c #BEBFC6",
"~  c #BFC1C6",
"^  c #C0C0C0",
"/  c #C1C1C1",
"(  c gray76",
")  c #C0C1C7",
"_  c #C1C1C7",
"`  c gray77",
"'  c #C6C6C6",
"]  c #C1C2C8",
"[  c #C1C3C8",
"{  c #C2C3C8",
"}  c #C3C4CA",
"|  c #C4C6CB",
" . c #C5C6CB",
".. c #C7C7CC",
"X. c gray79",
"o. c #CBCBCB",
"O. c #C9CACF",
"+. c gray80",
"@. c #CDCDCD",
"#. c #CECECE",
"$. c #CECED0",
"%. c #CED3D3",
"&. c #D1D3D7",
"*. c #D3D3D7",
"=. c gray84",
"-. c #D4D5D9",
";. c #D5D6DA",
":. c #D6D7DB",
">. c #D8D8D9",
",. c gray85",
"<. c #D9D9DA",
"1. c #D8D9DC",
"2. c #DBDBDE",
"3. c #DBDCDF",
"4. c gainsboro",
"5. c #DCDCDD",
"6. c #DDDDDD",
"7. c #DCDCDF",
"8. c gray87",
"9. c #DFDFDF",
"0. c #DCDEE1",
"q. c gray88",
"w. c #E1E1E1",
"e. c #E1E1E2",
"r. c #E3E3E6",
"t. c gray91",
"y. c #E9E9E9",
"u. c #EAEAEA",
"i. c gray92",
"p. c #ECECEC",
"a. c #ECECEE",
"s. c #EFEFEF",
"d. c gray94",
"f. c None",
/* pixels */
"f.f.f.f.f.f.f.f.f.f.f.f.f.f.f.f.",
"f.f.f.f.@.X.` ^ K J F C f.f.f.f.",
"f.f.f.+.4.r.0.7.3.2.a.M f.f.f.f.",
"f.f.o.9.u.O. .} [ _ 1.n f.f.f.f.",
"f.o.y.y.e.| c l k h :.v f.f.f.f.",
"f.' s.w.6.{ ] ~ Q E ;.g f.f.f.f.",
"f.^ p.q.5.) h d s u -.p f.f.f.f.",
"f.K p.9.<.! W R Y I *.e f.f.f.f.",
"f.H p.8.>.E T U P 0 &.8 f.f.f.f.",
"f.S i.6.$.x y n q 9 ..6 n r f.f.",
"f.B u.,.i g t.6./ t f =.6.` g # ",
"f.m d.V 5 %.2 # : j 5 : @ = ` 1 ",
"f.b G 7 r %.D o L #.( Z   f.` w ",
"f.f.f.- , %.3 X O & & O . * ` > ",
"f.f.f.f.% a N A z < 4 z A V s $ ",
"f.f.f.f.f.+ ; , , f.f., , ; + f."
};
