/* XPM */
static char *debug_script_console_xpm[] = {
/* columns rows colors chars-per-pixel */
"16 16 148 2",
"   c #323232",
".  c #225B1F",
"X  c #2E572C",
"o  c #3B5925",
"O  c #3E403E",
"+  c #345832",
"@  c #256323",
"#  c #266C22",
"$  c #277023",
"%  c #287324",
"&  c #2A7726",
"*  c #2A7926",
"=  c #2D7E2A",
"-  c #326730",
";  c #445026",
":  c #58713B",
">  c #414141",
",  c #404240",
"<  c #414441",
"1  c #464646",
"2  c gray29",
"3  c #4B4B4A",
"4  c #4B4C4B",
"5  c #4C4C4C",
"6  c gray30",
"7  c #465945",
"8  c #505A4F",
"9  c #515151",
"0  c gray32",
"q  c #667F46",
"w  c #64715E",
"e  c #646464",
"r  c #656565",
"t  c #676767",
"y  c gray42",
"u  c #657C60",
"i  c #6E736E",
"p  c #6B7B6A",
"a  c #717171",
"s  c gray45",
"d  c gray47",
"f  c #797979",
"g  c #2E8329",
"h  c #2E852A",
"j  c #2D8929",
"k  c #2D8F28",
"l  c #30892B",
"z  c #328A2D",
"x  c #318D2C",
"c  c #379532",
"v  c #3A9235",
"b  c #389C33",
"n  c #3A9D33",
"m  c #389E33",
"M  c #3E9738",
"N  c #38A133",
"B  c #39A134",
"V  c #39A434",
"C  c #39A534",
"Z  c #3AA634",
"A  c #3AA735",
"S  c #3AA835",
"D  c #3BAA36",
"F  c #3CAB36",
"G  c #3CAC36",
"H  c #3CAD37",
"J  c #3DAF37",
"K  c #3EA538",
"L  c #3FA539",
"P  c #3EA938",
"I  c #3DAC38",
"U  c #3DB138",
"Y  c #3EB138",
"T  c #3EB238",
"R  c #3EB338",
"E  c #3FB73A",
"W  c #50863A",
"Q  c #40B73A",
"!  c #5C9F42",
"~  c #639D47",
"^  c #64924F",
"/  c #638755",
"(  c #788C5F",
")  c #4BAC45",
"_  c #5DA141",
"`  c #5DA342",
"'  c #54A24C",
"]  c #57A64E",
"[  c #5FB74F",
"{  c #56AD50",
"}  c #59AA51",
"|  c #59A952",
" . c #70AA4D",
".. c #72AC4E",
"X. c #73AD4F",
"o. c #62A457",
"O. c #6DA351",
"+. c #73A857",
"@. c #7BB258",
"#. c #7EB45C",
"$. c #6E9E67",
"%. c #7A8077",
"&. c #7A817A",
"*. c #68AD62",
"=. c #76B260",
"-. c #7EC272",
";. c #80B55E",
":. c #81877F",
">. c #84B962",
",. c #8CBC6D",
"<. c #83AB71",
"1. c #8DB875",
"2. c #808280",
"3. c gray51",
"4. c #828781",
"5. c gray52",
"6. c #8D8D8D",
"7. c gray57",
"8. c #929292",
"9. c #979797",
"0. c gray62",
"q. c #96BF83",
"w. c #99BE86",
"e. c #95BF8E",
"r. c #99BE89",
"t. c #AAAAAA",
"y. c gray68",
"u. c #AEAEAE",
"i. c gray74",
"p. c #8EC385",
"a. c #98C185",
"s. c #A5CC8D",
"d. c #A8CE90",
"f. c #AAC897",
"g. c #ACCF94",
"h. c #A9CB9A",
"j. c #ADD49E",
"k. c #B8D7A4",
"l. c #C2E3AF",
"z. c #C1C1C1",
"x. c gray76",
"c. c gray77",
"v. c #CECECE",
"b. c #CED3D3",
"n. c #D4D6D4",
"m. c #DDDDDD",
"M. c gray91",
"N. c None",
/* pixels */
"N.N.N.N.N.N.N.E N.N.N.G N.N.N.N.",
"N.N.N.N.N.N.N.R G N.N.V N.N.N.N.",
"N.N.N.Q N.N.N.G G / W m : N.N.N.",
"N.N.N.R R N.I D V B >.l.( N.N.N.",
"N.N.N.N.G P ) j.k.p.k [ h.x l h ",
"R N.N.N.V K d.>.@.=.M j o.; N.N.",
"G D V K { s.;.X.` } h.e.g o N.N.",
"N.V B m g.#.X.` ] a.+.w.= * N.N.",
"N.N.b } ,. ._ ' q.O.~ r.& % $ # ",
"N.N.c *.1./ 4.0.%.^ <.&.0.5.N.@ ",
"N.N.v z u 7.M.m.z.:.p n.m.c.8.5 ",
"N.N.N.- i b.w 4 r 8.f r 3 8 c.s ",
"N.N.N.  3.b.$.< i.v.z.u.O . c.3.",
"N.N.N.N.r b.7 > 1 0 0 1 > 0 c.r ",
"N.N.N.N.6 6.u.u.9.y f 9.u.t.6.6 ",
"N.N.N.N.N.3 e y y + X y y r 3 N."
};
