/* XPM */
static char *generic_file_xpm[] = {
/* columns rows colors chars-per-pixel */
"16 16 67 1",
"  c #364A64",
". c #374B65",
"X c #93A2B7",
"o c #95A4B9",
"O c #96A5BA",
"+ c #9AA9BE",
"@ c #9CABC0",
"# c #9EAEC3",
"$ c #A8B3C2",
"% c #A3B2C8",
"& c #A4B3C9",
"* c #A7B6CC",
"= c #A9B9CF",
"- c #ABBBD1",
"; c #AEBED4",
": c #AFBFD5",
"> c #BAC5D4",
", c #B2C2D8",
"< c #AFC3ED",
"1 c #B1C4ED",
"2 c #B2C5EE",
"3 c #B3C6EE",
"4 c #B6C8EF",
"5 c #B7C9EF",
"6 c #BACBF0",
"7 c #BCCDF0",
"8 c #BDCEF0",
"9 c #CED6E2",
"0 c #C2D1F1",
"q c #C9D6F3",
"w c #C9D7F3",
"e c #CBDDF1",
"r c #CCDEF2",
"t c #CEDFF2",
"y c #D1DDF4",
"u c #D0E0F2",
"i c #D1E1F3",
"p c #D3E2F3",
"a c #D4E3F4",
"s c #D6E4F4",
"d c #D7E5F5",
"f c #D9E6F5",
"g c #DBE7F5",
"h c #DCE8F6",
"j c #DEE9F6",
"k c #DFEAF7",
"l c #E1EBF7",
"z c #E3ECF7",
"x c #E4EDF8",
"c c #E6EEF8",
"v c #E7EFF9",
"b c #E9F0F9",
"n c #EAF1FA",
"m c #ECF2FA",
"M c #EEF3FA",
"N c #EFF4FB",
"B c #F1F5FB",
"V c #F2F7FC",
"C c #F4F8FC",
"Z c #F6F9FC",
"A c #F7FAFD",
"S c #F9FBFD",
"D c #FAFCFE",
"F c #FCFDFE",
"G c #FDFEFF",
"H c gray100",
"J c None",
/* pixels */
"JJJJJJJJJJJJJJJJ",
"J,,,,,,:=&9JJJJJ",
"J,HHHHHHH@ $JJJJ",
"J:HHHHHHHo> $JJJ",
"J-HHHHHHHX.. JJJ",
"J*HHHHHHHDyw.JJJ",
"J%HHHHDSZVV0 JJJ",
"J#HDDSZZBMn8 JJJ",
"J+SZZBBnnvz6 JJJ",
"JoCBMnbxzkk5 JJJ",
"JXnnvxkkgdd2 JJJ",
"JXvzkhgdapt2 JJJ",
"JXkgdapptee2 JJJ",
"JXdpppteeee< JJJ",
"JXw0852<<<<< JJJ",
"JX           JJJ"
};
