/* XPM */
static char *go_xpm[] = {
/* columns rows colors chars-per-pixel */
"16 16 82 1",
"  c #144104",
". c #174C03",
"X c #164806",
"o c #164D04",
"O c #175005",
"+ c #185406",
"@ c #1A5B07",
"# c #185108",
"$ c #1B5A0A",
"% c #1C6301",
"& c #1C6401",
"* c #1D6601",
"= c #1E6B01",
"- c #1C6409",
"; c #1E660C",
": c #1F7001",
"> c #1F710A",
", c #206F00",
"< c #207000",
"1 c #207100",
"2 c #217400",
"3 c #227900",
"4 c #237B00",
"5 c #237D02",
"6 c #247E00",
"7 c #217510",
"8 c #47663C",
"9 c #48683F",
"0 c #487B3D",
"q c #496A40",
"w c #4A6E41",
"e c #4B7242",
"r c #4D7843",
"t c #258200",
"y c #268700",
"u c #278900",
"i c #288C00",
"p c #25840E",
"a c #299000",
"s c #2A9202",
"d c #2A9400",
"f c #2B9700",
"g c #2D9903",
"h c #319B07",
"j c #379E0F",
"k c #2C841B",
"l c #319819",
"z c #3CA015",
"x c #3E9330",
"c c #40A219",
"v c #40A11C",
"b c #4AA725",
"n c #4DA929",
"m c #4EA92A",
"M c #4BA737",
"N c #59AE37",
"B c #59AE39",
"V c #5BAF3A",
"C c #4B8742",
"Z c #55994D",
"A c #50A045",
"S c #5AA951",
"D c #5FAD56",
"F c #65B446",
"G c #66B547",
"H c #62B551",
"J c #6EB953",
"K c #70BA53",
"L c #77BD5C",
"P c #6BB664",
"I c #6BB665",
"U c #74BF66",
"Y c #75BD70",
"T c #7CC064",
"R c #7DC378",
"E c #7DC478",
"W c #7EC87A",
"Q c #82C87E",
"! c #83CA80",
"~ c #8CCC88",
"^ c #96D193",
"/ c None",
/* pixels */
"////////////////",
"////!W^/////////",
"////QTU~////////",
"////ELJHR///////",
"////YKFBMP//////",
"////IGVmvlS/////",
"////DNnchspZ////",
"////Abzgay5>C///",
"////xjfit3:-0///",
"////kdu62=@r////",
"////7y41*+e/////",
"////;4,%Ow//////",
"////$<%oq///////",
"////#&.9////////",
"////X 8/////////",
"////////////////"
};
