/* XPM */
static char *open_xpm[] = {
/* columns rows colors chars-per-pixel */
"16 16 175 2",
"   c #D8862C",
".  c #D8872D",
"X  c #D8882D",
"o  c #D98E33",
"O  c #DA9435",
"+  c #DA9A36",
"@  c #DAA136",
"#  c #DAA637",
"$  c #DAAB35",
"%  c #DAAA36",
"&  c #DAAF35",
"*  c #DAB336",
"=  c #D9B434",
"-  c #E0A54D",
";  c #E2AA55",
":  c #E9BC64",
">  c #E7BC70",
",  c #F2D140",
"<  c #F3D44D",
"1  c #F3D54F",
"2  c #E1C25E",
"3  c #E2C35F",
"4  c #F4D85B",
"5  c #F4D95E",
"6  c #E2C360",
"7  c #F5DB67",
"8  c #F6DC6C",
"9  c #F2D370",
"0  c #F3D574",
"q  c #F6DE71",
"w  c #F6DE77",
"e  c #F3D77A",
"r  c #F7DF7A",
"t  c #F7E17F",
"y  c #4474C5",
"u  c #487DC3",
"i  c #537FCA",
"p  c #5383CA",
"a  c #5480CA",
"s  c #5284CA",
"d  c #5585CB",
"f  c #5583CC",
"g  c #5681CE",
"h  c #5686CC",
"j  c #5787CC",
"k  c #5585CF",
"l  c #5887CC",
"z  c #5F96CC",
"x  c #6D9ED0",
"c  c #6CA0D1",
"v  c #C6C186",
"b  c #CFC88C",
"n  c #D7CE90",
"m  c #DCD293",
"M  c #F4D980",
"N  c #F4DA85",
"B  c #F5DC89",
"V  c #F5DE8E",
"C  c #EBC991",
"Z  c #E3D793",
"A  c #E9DB93",
"S  c #F5DE91",
"D  c #F4DC93",
"F  c #F6DF92",
"G  c #F5DE94",
"H  c #F7E182",
"J  c #F7E286",
"K  c #F8E389",
"L  c #F8E38B",
"P  c #F8E48E",
"I  c #F8E48F",
"U  c #F6E095",
"Y  c #F8E590",
"T  c #F8E591",
"R  c #F8E592",
"E  c #F8E593",
"W  c #F8E594",
"Q  c #F8E694",
"!  c #F6E198",
"~  c #F4E49A",
"^  c #F7E69A",
"/  c #F6E69B",
"(  c #F5E09F",
")  c #F5E59D",
"_  c #F5E59E",
"`  c #F4E59F",
"'  c #F6E1AC",
"]  c #88BBEA",
"[  c #91BAE4",
"{  c #91BBE4",
"}  c #92BBE4",
"|  c #93BBE4",
" . c #96BEE5",
".. c #96BFE6",
"X. c #93C1EC",
"o. c #9DC3EA",
"O. c #AFD1F3",
"+. c #B4D3F5",
"@. c #BBD7F6",
"#. c #BCD9F7",
"$. c #D6D8C9",
"%. c #F8EAC2",
"&. c #FBF2CA",
"*. c #FBF2CC",
"=. c #F8F3DA",
"-. c #FAF0DC",
";. c #C2DCF9",
":. c #C2DCFA",
">. c #C4DDF9",
",. c #C4DEF9",
"<. c #C5DEFC",
"1. c #C8DFFA",
"2. c #C7E0FB",
"3. c #C4E2FA",
"4. c #CAE0FA",
"5. c #CBE3FB",
"6. c #CCE2FB",
"7. c #CBE2FF",
"8. c #CDE2FC",
"9. c #CDE3FC",
"0. c #DDE9F5",
"q. c #D0E4FC",
"w. c #D1E4FC",
"e. c #D1E5FD",
"r. c #D2E5FC",
"t. c #D2E5FF",
"y. c #D4E6FD",
"u. c #D6E7FD",
"i. c #D5E7FE",
"p. c #D5E7FF",
"a. c #D7E7FF",
"s. c #D9E9FF",
"d. c #DBEAFF",
"f. c #E8F2EF",
"g. c #FBF6E8",
"h. c #FEFAEF",
"j. c #E3EFFA",
"k. c #E4EFFA",
"l. c #E7F2FA",
"z. c #E7F2FD",
"x. c #EBF3FA",
"c. c #EFF3FA",
"v. c #EFF6FB",
"b. c #E8F2FC",
"n. c #E9F3FD",
"m. c #EAF3FD",
"M. c #E8F3FE",
"N. c #EEF4FD",
"B. c #EDF5FE",
"V. c #FDFAF1",
"C. c #FDFAF2",
"Z. c #FEFCF3",
"A. c #FFFCF5",
"S. c #FEFCF6",
"D. c #FFFDF6",
"F. c #FEFCF7",
"G. c #F0F6FE",
"H. c #F1F7FE",
"J. c #F0F7FF",
"K. c #F1F7FF",
"L. c #F2F7FF",
"P. c #F3F8FB",
"I. c #F3F9FE",
"U. c #FFFDF8",
"Y. c #FBFCFE",
"T. c #FDFEFD",
"R. c #FEFEFD",
"E. c #FFFEFD",
"W. c #FCFDFE",
"Q. c #FCFDFF",
"!. c #FDFEFE",
"~. c #FFFEFE",
"^. c #FFFFFE",
"/. c #FEFFFF",
"(. c None",
/* pixels */
"(.(.(.(.(.(.o.X.| } x x z (.(.(.",
"(.(.(.(.(.(. .R.m.x.x.j.l.] k (.",
"(.(.(.(.(.(.} B.<.2.;.+.P.2.X.u ",
"(.(.(.(.(.(.} K.8.8.1.#.0.x.P.s ",
"(.(.(.(.(.(.} K.q.q.8.<.#.O.z.h ",
"= 2 6 6 6 6 } K.u.p.q.4.;.#.z.j ",
"* R.R.R.R.R.} K.p.u.e.e.7.;.M.h ",
"& F.I S ( ' s K.s.d.s.p.e.7.P.d ",
"% Z.S D : O O O O O O O O O B.s ",
"% g.> ; - C c.T.R.R.F.F.Y.O f.h ",
"# R.T.Z.Z.Z./ / / ) ) ' =.O B.a ",
"@ A.W W T T A Z m n b v $.O y i ",
"+ Z.W R T K J H w 8 5 1 *.O (.(.",
"O h.R I K H r q 7 5 < , &.O (.(.",
"o -.G U U V B N e e 0 9 %.O (.(.",
". X . X X X X X X X X . . . (.(."
};
