/* XPM */
static char *project_add_xpm[] = {
/* columns rows colors chars-per-pixel */
"16 16 93 2",
"   c #376B19",
".  c #3A6C20",
"X  c #4C7B31",
"o  c #517971",
"O  c #538C28",
"+  c #578F2D",
"@  c #608949",
"#  c #628B4A",
"$  c #668E4F",
"%  c #72965D",
"&  c #81AB61",
"*  c #87B960",
"=  c #87BA60",
"-  c #8BBA62",
";  c #8DBA64",
":  c #8CBC65",
">  c #8FBC67",
",  c #8FBB6A",
"<  c #5171A9",
"1  c #587BB1",
"2  c #5A7CB2",
"3  c #5C7EB4",
"4  c #5C7EB5",
"5  c #5E81B7",
"6  c #5F83B9",
"7  c #6085BA",
"8  c #6185BB",
"9  c #6387BD",
"0  c #6488BE",
"q  c #5883D2",
"w  c #668BC0",
"e  c #688EC3",
"r  c #6F90C1",
"t  c #6C92C8",
"y  c #6C94C9",
"u  c #6E94CA",
"i  c #6F96CB",
"p  c #6F97CC",
"a  c #7A9AC4",
"s  c #7099CE",
"d  c #729ACF",
"f  c #739CD1",
"g  c #739DD2",
"h  c #759ED4",
"j  c #76A0D5",
"k  c #79A2D8",
"l  c #79A3D9",
"z  c #7AA4DA",
"x  c #7AA4DB",
"c  c #7AA6DC",
"v  c #7BA7DC",
"b  c #9AAC8F",
"n  c #B1D390",
"m  c #B1D692",
"M  c #B2D295",
"N  c #B4D495",
"B  c #B6D49C",
"V  c #B3C7A8",
"C  c #D0E6BA",
"Z  c #85ACDD",
"A  c #8DB1DD",
"S  c #92B9E8",
"D  c #C3C3C3",
"F  c gray90",
"G  c #E6E5E5",
"H  c #E5E5E6",
"J  c #E7E7E7",
"K  c #E7E7E8",
"L  c #E9E9E9",
"P  c #ECEBEC",
"I  c #EBECEC",
"U  c #ECECEC",
"Y  c #EEEEEE",
"T  c #EFEEEE",
"R  c #EEEFEE",
"E  c #EFEFEE",
"W  c #EEEEEF",
"Q  c #EFEFEF",
"!  c #F1F1F0",
"~  c #F1F0F1",
"^  c #F0F1F1",
"/  c #F1F1F1",
"(  c gray95",
")  c #F3F2F2",
"_  c #F3F3F3",
"`  c #F4F4F4",
"'  c #F5F4F4",
"]  c #F4F5F4",
"[  c #F4F5F5",
"{  c gray96",
"}  c #F6F6F6",
"|  c gray100",
" . c None",
/* pixels */
" . . . . . . . . . . . . . . . .",
" .A c c x k j h g d d p y a  . .",
"Z S S S S S S S S S S S S S r  .",
"v v v v v v v x v v v v v c w  .",
"x } } } } } } } } } } } } } 9  .",
"l } } ' ^ } D D D D D D D } 7  .",
"k ^ q q q ' D | | | | | | ' 5  .",
"j ^ ^ ^ ^ ^ D | | | | | | ^ 4  .",
"h Y Q Y Y Y Y Y Y Y Y Y Y Y 2  .",
"f Y I I I P D D D D b % $ # o  .",
"p L q q q L D | | V & M C , +   ",
"y F K L F K D | | # n m | > >   ",
"t K F F F F F F K X B | | | M   ",
"< e w 0 9 6 4 2 2   - * | * >   ",
" . . . . . . . . .  O ; M ; O   ",
" . . . . . . . . . .           ."
};
