/* XPM */
static char *project_xpm[] = {
/* columns rows colors chars-per-pixel */
"16 16 80 1",
"  c #5171A9",
". c #5172A9",
"X c #5373A9",
"o c #5373AA",
"O c #5475AB",
"+ c #5475AC",
"@ c #5676AD",
"# c #5779AE",
"$ c #587AB0",
"% c #587BB1",
"& c #5A7CB2",
"* c #5C7EB4",
"= c #5C7EB5",
"- c #5E81B7",
"; c #5F83B9",
": c #6085BA",
"> c #6185BB",
", c #6387BD",
"< c #6488BE",
"1 c #5883D2",
"2 c #668BC0",
"3 c #688EC3",
"4 c #6F90C1",
"5 c #6C92C8",
"6 c #6C94C9",
"7 c #6E94CA",
"8 c #6F96CB",
"9 c #6F97CC",
"0 c #7A9AC4",
"q c #7099CE",
"w c #729ACF",
"e c #739CD1",
"r c #739DD2",
"t c #759ED4",
"y c #76A0D5",
"u c #79A2D8",
"i c #79A3D9",
"p c #7AA4DA",
"a c #7AA4DB",
"s c #7AA6DC",
"d c #7BA7DC",
"f c #85ACDD",
"g c #8DB1DD",
"h c #92B9E8",
"j c #C3C3C3",
"k c gray90",
"l c #E6E5E5",
"z c #E5E6E5",
"x c #E6E6E5",
"c c #E5E5E6",
"v c #E6E5E6",
"b c #E6E6E6",
"n c #E7E7E7",
"m c #E7E7E8",
"M c #E9E9E9",
"N c #EAEAE9",
"B c #ECEBEC",
"V c #EBECEC",
"C c #ECECEC",
"Z c #EEEEEE",
"A c #EFEEEE",
"S c #EEEFEE",
"D c #EFEFEE",
"F c #EEEEEF",
"G c #EFEFEF",
"H c #F1F1F0",
"J c #F1F0F1",
"K c #F0F1F1",
"L c #F1F1F1",
"P c gray95",
"I c #F3F2F2",
"U c #F3F3F3",
"Y c #F4F4F4",
"T c #F5F4F4",
"R c #F4F5F4",
"E c #F4F5F5",
"W c gray96",
"Q c #F6F6F6",
"! c gray100",
"~ c None",
/* pixels */
"~~~~~~~~~~~~~~~~",
"~gssauytrww960~~",
"fhhhhhhhhhhhhh4~",
"dddddddaddddds2~",
"aQQQQQQQQQQQQQ,~",
"iQQTKQjjjjjjjQ:~",
"uK111Tj!!!!!!T-~",
"yKKKKKj!!!!!!K=~",
"tZFZFZZZZZZZZZ&~",
"eZVVBNjjjjjjjV&~",
"9N111Nj!!!!!!No~",
"6nmnnmj!!!!!!no~",
"5cccnnknknnnnn ~",
" 32,:;&&$#+Oo o~",
"~~~~~~~~~~~~~~~~",
"~~~~~~~~~~~~~~~~"
};
