/* XPM */
static char *run_external_script_xpm[] = {
/* columns rows colors chars-per-pixel */
"16 16 182 2",
"   c #1E7B03",
".  c #257F00",
"X  c #227B0E",
"o  c #237A1D",
"O  c #35870A",
"+  c #3B8B11",
"@  c #3A8C15",
"#  c #438F17",
"$  c #48911B",
"%  c #49911D",
"&  c #46942E",
"*  c #519723",
"=  c #579828",
"-  c #5B9B29",
";  c #4A9432",
":  c #5E9F3A",
">  c #639F31",
",  c #639E32",
"<  c #659F31",
"1  c #5CA03C",
"2  c #69A236",
"3  c #6BA337",
"4  c #6FA43A",
"5  c #6FA53D",
"6  c #5FA143",
"7  c #62A346",
"8  c #6BA441",
"9  c #68A546",
"0  c #66A548",
"q  c #72A846",
"w  c #74AB4F",
"e  c #7CAF55",
"r  c #81B35A",
"t  c #80B361",
"y  c #82B567",
"u  c #85B666",
"i  c #85B66A",
"p  c #89B86B",
"a  c #8EBA6F",
"s  c #90BC74",
"d  c #2A60B7",
"f  c #2C62B7",
"g  c #2C65B4",
"h  c #2E64B6",
"j  c #2E65B9",
"k  c #2F65BA",
"l  c #3065BA",
"z  c #3066BA",
"x  c #3166BB",
"c  c #3369BC",
"v  c #3871BF",
"b  c #4279BF",
"n  c #3B76C4",
"m  c #3C78C1",
"M  c #3F7CC4",
"N  c #457EC2",
"B  c #407CC4",
"V  c #4280C5",
"C  c #4280C6",
"Z  c #4582C5",
"A  c #4682C4",
"S  c #4582C6",
"D  c #4683C6",
"F  c #4784C6",
"G  c #4985C4",
"H  c #4B88C5",
"J  c #4B89C5",
"K  c #4988C6",
"L  c #4A88C6",
"P  c #4B89C6",
"I  c #4C89C6",
"U  c #4F8BC7",
"Y  c #4D8BC8",
"T  c #4F8CC8",
"R  c #4F8DC8",
"E  c #4F8CC9",
"W  c #6492DB",
"Q  c #6594DB",
"!  c #54B5F7",
"~  c #56B4F7",
"^  c #55B4F8",
"/  c #7DB0E1",
"(  c #7DB2E2",
")  c #65BEFB",
"_  c #67BDFC",
"`  c #68BFFD",
"'  c #6EC2FD",
"]  c #96C180",
"[  c #97C282",
"{  c #98C283",
"}  c #9EC588",
"|  c #A1C68A",
" . c #A1C78A",
".. c #A5C88D",
"X. c #A9CA90",
"o. c #A8CB90",
"O. c #AACB91",
"+. c #ADCD94",
"@. c #B0CE96",
"#. c #84B6E2",
"$. c #9ED7FF",
"%. c #A0D8FF",
"&. c #B3D2F1",
"*. c #B5D4F3",
"=. c #B8D6F4",
"-. c #BAD6F5",
";. c #BBD6F5",
":. c #B4D8F6",
">. c #BBD8F6",
",. c #BCD9F6",
"<. c #BDDAF6",
"1. c #C1DBF8",
"2. c #C2DCF8",
"3. c #C4DDF9",
"4. c #C5DFF9",
"5. c #C7DFFA",
"6. c #C7E0FA",
"7. c #C8E0F9",
"8. c #C8E0FA",
"9. c #C8E0FB",
"0. c #C9E1FB",
"q. c #CAE1FA",
"w. c #C9E2FB",
"e. c #CBE2FB",
"r. c #CCE1FB",
"t. c #CDE3FB",
"y. c #CEE3FB",
"u. c #C9E5FA",
"i. c #CDE3FC",
"p. c #CFE3FC",
"a. c #CFE4FC",
"s. c #CDE6FC",
"d. c #D7E6F2",
"f. c #DFE9F4",
"g. c #DFEBF5",
"h. c #DCEAF6",
"j. c #DEEAF6",
"k. c #DEEBF6",
"l. c #DFECF7",
"z. c #D0E4FB",
"x. c #D1E4FC",
"c. c #D3E5FD",
"v. c #D2E6FC",
"b. c #D3E6FC",
"n. c #D3E7FD",
"m. c #D4E6FC",
"M. c #D4E6FD",
"N. c #D5E7FD",
"B. c #D6E7FD",
"V. c #D5E5FE",
"C. c #D6E7FE",
"Z. c #D7E7FE",
"A. c #D6E8FE",
"S. c #D7E8FE",
"D. c #D8E8FE",
"F. c #E3EDF7",
"G. c #E9EFF5",
"H. c #E6F0F7",
"J. c #ECF2F7",
"K. c #E8F1F8",
"L. c #EAF1F8",
"P. c #EBF2F8",
"I. c #EAF2FA",
"U. c #EBF3FA",
"Y. c #ECF2F8",
"T. c #EDF3F8",
"R. c #ECF3F9",
"E. c #EDF4F8",
"W. c #EDF4F9",
"Q. c #EEF4F8",
"!. c #EFF4F9",
"~. c #EDF4FA",
"^. c #EFF4FA",
"/. c #F0F4F8",
"(. c #F0F4F9",
"). c #F1F5F9",
"_. c #F2F6FA",
"`. c #F3F7FB",
"'. c #F8FBF8",
"]. c #F8FBFD",
"[. c #F8FBFF",
"{. c None",
/* pixels */
"{.{.Y T T T T T T T H n {.{.{.{.",
"{.G J.Q.Q.Q.Q.P.P.J.d.( Q {.{.{.",
"{.H _.6.9.9.9.5.1.;.[.:./ Q {.{.",
"{.H _.i.y.y.i.5.1.;.[.s.s.#.b {.",
"{.H _.i.y.z.i.5.1.,.f.J._.J.N {.",
"{.H _.n.m.n.n.i.9.2.;.*.&.Q.A {.",
"{.K Q.S.m.m.m.m.y.5.1.<.>.~.A {.",
"{.H Q.S.D.D.m.m.z.y.q 2 1.~.A {.",
"{.F ~.m.D.D.D.m.n.y.8 r - P.B {.",
"{.A U.m.m.m.5 4 2 , e X.w $ M {.",
"{.C P.m.m.m.2 @.+.X.X.s  .0 O {.",
"{.B H.^ ^ ^ , +.a p u t y { 1 . ",
"{.m F.` %.$.- X... .} i { 0 o {.",
"{.n F.` ) ) * % # + : ] 7 & g {.",
"{.c G.k.k.k.h.h.P.P.@ 7 ; '.d {.",
"{.{.x x x k x k k k X   g f {.{."
};
