/* XPM */
static char *run_to_cursor_xpm[] = {
/* columns rows colors chars-per-pixel */
"16 16 104 2",
"   c #5B3401",
".  c #623904",
"X  c #643B06",
"o  c #663D08",
"O  c #6B420D",
"+  c #724914",
"@  c #784F1A",
"#  c #71541C",
"$  c #755820",
"%  c #795D25",
"&  c #7E6229",
"*  c #805722",
"=  c #89602B",
"-  c #83682E",
";  c #886E34",
":  c #906732",
">  c #976E39",
",  c #8E743A",
"<  c #9C733E",
"1  c #9D743F",
"2  c #9F7641",
"3  c #957B41",
"4  c #A37A45",
"5  c #1E9200",
"6  c #1F9500",
"7  c #209800",
"8  c #2B960F",
"9  c #309F12",
"0  c #30A113",
"q  c #3BA61F",
"w  c #3DA722",
"e  c #3FA724",
"r  c #48AC2E",
"t  c #50A639",
"y  c #5FB548",
"u  c #68B554",
"i  c #6DB55A",
"p  c #9B8248",
"a  c #A0874D",
"s  c #AC834E",
"d  c #AD844F",
"f  c #08409C",
"g  c #0B439F",
"h  c #0E46A2",
"j  c #124AA6",
"k  c #164EAA",
"l  c #1951AD",
"z  c #1E56B2",
"x  c #2159B5",
"c  c #265EBA",
"v  c #2E66C2",
"b  c #3067C1",
"n  c #366ECA",
"m  c #3971CD",
"M  c #3F75CF",
"N  c #3E78C9",
"B  c #3C74D0",
"V  c #3E76D1",
"C  c #4379D2",
"Z  c #447AD3",
"A  c #4179D4",
"S  c #427AD5",
"D  c #447CD7",
"F  c #467ED9",
"G  c #477FDB",
"H  c #4883D4",
"J  c #4981DD",
"K  c #4B83DF",
"L  c #4D85E1",
"P  c #4F87E3",
"I  c #5189E5",
"U  c #528AE6",
"Y  c #538BE7",
"T  c #548CE8",
"R  c #558DE9",
"E  c #90CC80",
"W  c #A6BADC",
"Q  c #A7BCDD",
"!  c #AABEE0",
"~  c #ABBFE0",
"^  c #B4C8DD",
"/  c #B1C4E5",
"(  c #B7CAEA",
")  c #B7CBEC",
"_  c #BED1F1",
"`  c #BED2F3",
"'  c #D8EDD2",
"]  c #E4EFD9",
"[  c #E7EADE",
"{  c #C0D4F5",
"}  c #C1D6F7",
"|  c #C2D6F7",
" . c #C6DAFB",
".. c #C6DBFC",
"X. c #C7DBFC",
"o. c #EFF7ED",
"O. c #F4FAF3",
"+. c #F5FAF4",
"@. c #F7FBF6",
"#. c #FCFEFC",
"$. c #FDFEFE",
"%. c #FEFEFE",
"&. c gray100",
"*. c None",
/* pixels */
"*.*.*.R R R T Y U I P L K J G *.",
"*.*.H G F D S A Z C V B M M m n ",
"*.*.N &.&.&.&.&.&.&.&.&.&.&.&.v ",
"*.*.*.&.X... .&.s d +.] 2 < &.b ",
"&.&.&.&.&.&.&.&.&.&.4 a &.&.&.c ",
"&.e &.&.| } { ` _ &.1 p &.&.&.x ",
"&.w &.&.&.&.&.&.&.&.> 3 &.&.&.z ",
"&.q &.&.E #.$.) ( &.: , &.&.&.l ",
"&.r &.&.0 y O.&.&.&.= ; &.&.&.k ",
"&.' 9 7 6 5 u &./ &.* - &.&.&.j ",
"*.&.&.&.8 t o.&.&.&.@ & &.&.&.h ",
"*.*.*.&.i @.%.! ~ &.+ % &.&.&.g ",
"*.*.*.&.#.&.&.&.&.&.O $ &.&.&.f ",
"*.*.*.&.^ Q W &.&.&.o # &.&.&.f ",
"*.*.*.&.&.&.&.&.X . [ [     &.*.",
"*.*.*.*.*.*.*.&.&.&.&.&.&.&.&.*."
};
