/* XPM */
static char *run_script_xpm[] = {
/* columns rows colors chars-per-pixel */
"16 16 70 1",
"  c #1B3D0E",
". c #1B3F0E",
"X c #1E3012",
"o c #19460B",
"O c #1B410D",
"+ c #1A430C",
"@ c #19450C",
"# c #155706",
"$ c #155B05",
"% c #165B06",
"& c #145D04",
"* c #145E04",
"= c #155F05",
"- c #1F4212",
"; c #116B00",
": c #116C00",
"> c #126D00",
", c #126E00",
"< c #127000",
"1 c #127100",
"2 c #137300",
"3 c #147500",
"4 c #147600",
"5 c #147700",
"6 c #157900",
"7 c #157A00",
"8 c #157B00",
"9 c #157C00",
"0 c #167D00",
"q c #1C730B",
"w c #2E6B1F",
"e c #334329",
"r c #3B4931",
"t c #3E4D35",
"y c #405036",
"u c #425039",
"i c #46543D",
"p c #48553F",
"a c #4A5940",
"s c #4C5943",
"d c #505E47",
"f c #5F7456",
"g c #697362",
"h c #3B8A2C",
"j c #459235",
"k c #529A43",
"l c #559C47",
"z c #559549",
"x c #66A05B",
"c c #7E8778",
"v c #7F867A",
"b c #78AB6E",
"n c #83957C",
"m c #86A67F",
"M c #858B81",
"N c #878D83",
"B c #8C9487",
"V c #8D9289",
"C c #92978F",
"Z c #989C95",
"A c #8EBA85",
"S c #92B18B",
"D c #9AA994",
"F c #9CA099",
"G c #A3A7A1",
"H c #A6ACA3",
"J c #ABADA9",
"K c #B3B5B2",
"L c #B4B6B3",
"P c None",
/* pixels */
"PPPPPPPPPPPPPPPP",
"PPgJPPPPPPPPPPPP",
"PPafBLPPPPPPPPPP",
"PPdxmDHLPPPPPPPP",
"PPyzbASncGPPPPPP",
"PPXqhkljw-tVPPPP",
"PPX146964,$+rNPP",
"PPX1699941;;&@pP",
"PPX,66664,*oecPP",
"PPX,1464&+rNPPPP",
"PPX;,,$OtVPPPPPP",
"PPX;#.uCPPPPPPPP",
"PPX.iZPPPPPPPPPP",
"PPsZPPPPPPPPPPPP",
"PPPPPPPPPPPPPPPP",
"PPPPPPPPPPPPPPPP"
};
