/* XPM */
static char *save_xpm[] = {
/* columns rows colors chars-per-pixel */
"16 16 153 2",
"   c #88C062",
".  c #3160A6",
"X  c #3160A7",
"o  c #3160A8",
"O  c #3161A8",
"+  c #3261A8",
"@  c #3261A9",
"#  c #3261AA",
"$  c #3262AA",
"%  c #3262AB",
"&  c #3263AC",
"*  c #3363AD",
"=  c #3364AE",
"-  c #3364AF",
";  c #3365B0",
":  c #3465B1",
">  c #3466B2",
",  c #3466B3",
"<  c #3467B4",
"1  c #3568B5",
"2  c #3568B6",
"3  c #3568B7",
"4  c #3569B7",
"5  c #3569B8",
"6  c #3569B9",
"7  c #356ABA",
"8  c #366ABA",
"9  c #376BBA",
"0  c #366ABB",
"q  c #366BBB",
"w  c #366BBC",
"e  c #386BBB",
"r  c #386CBB",
"t  c #3A6DBB",
"y  c #396CBC",
"u  c #3B6EBD",
"i  c #3E70BB",
"p  c #5E89C9",
"a  c #648CC8",
"s  c #658CC8",
"d  c #658DC9",
"f  c #668DC9",
"g  c #678EC9",
"h  c #658DCA",
"j  c #6990CA",
"k  c #6C92CB",
"l  c #6D92CB",
"z  c #6890CD",
"x  c #6A93CF",
"c  c #7998C7",
"v  c #7C9AC8",
"b  c #7C9BC9",
"n  c #6D96D3",
"m  c #7099D6",
"M  c #7199D8",
"N  c #729BD9",
"B  c #739BD9",
"V  c #739BDA",
"C  c #729CDB",
"Z  c #749CDA",
"A  c #749DDC",
"S  c #749EDD",
"D  c #769FDD",
"F  c #759EDE",
"G  c #769FDE",
"H  c #779FDE",
"J  c #77A0DE",
"K  c #77A0DF",
"L  c #78A1E0",
"P  c #78A2E0",
"I  c #79A2E1",
"U  c #7AA2E0",
"Y  c #7AA2E1",
"T  c #7AA3E1",
"R  c #7BA3E1",
"E  c #7AA2E2",
"W  c #7AA3E2",
"Q  c #7BA3E2",
"!  c #7AA3E3",
"~  c #7BA4E2",
"^  c #7AA4E3",
"/  c #7BA4E3",
"(  c #7DA6E6",
")  c #7DA7E7",
"_  c #7EA8E7",
"`  c #7EA8E8",
"'  c #C2DCBF",
"]  c #819ECC",
"[  c #84A3CE",
"{  c #8AA7D2",
"}  c #8EABD5",
"|  c #95B0DA",
" . c #9AB5DD",
".. c #80AAE9",
"X. c #9FBAE1",
"o. c #A4BEE4",
"O. c #A9C2E7",
"+. c #ADC5EA",
"@. c #ADC6EB",
"#. c #B3CAED",
"$. c #B6CCEE",
"%. c #B8CEEF",
"&. c #BAD0EE",
"*. c #BBD0EF",
"=. c #BDD0EC",
"-. c #BED2F0",
";. c #C3D5EF",
":. c #C2D5F2",
">. c #C5D8F2",
",. c #C7D9F4",
"<. c #C9DCF4",
"1. c #CCDDF5",
"2. c #D0DFF6",
"3. c #D1DFF6",
"4. c #D1E0F6",
"5. c #D1E0F7",
"6. c #D8E5F6",
"7. c #D9E5F7",
"8. c #DBE6F7",
"9. c #DBE7F7",
"0. c #DBE7F8",
"q. c #DDE8F8",
"w. c #DFE9F8",
"e. c #DFE9F9",
"r. c #E1ECF9",
"t. c #E2ECF9",
"y. c #E3EDF9",
"u. c #E5EDFA",
"i. c #E8F0FA",
"p. c #E9F0FA",
"a. c #E9F1FA",
"s. c #EAF0FA",
"d. c #EAF1FB",
"f. c #EBF1FB",
"g. c #EDF2FB",
"h. c #EEF3FB",
"j. c #EEF4FB",
"k. c #EEF4FC",
"l. c #EFF4FC",
"z. c #F0F5FC",
"x. c #F1F6FC",
"c. c #F2F6FC",
"v. c #F3F7FD",
"b. c #F3F8FD",
"n. c #F6F9FD",
"m. c #F6FAFD",
"M. c #F7FAFD",
"N. c #F6FAFE",
"B. c #F7FAFE",
"V. c #F7FBFE",
"C. c #F8FAFE",
"Z. c #F8FBFE",
"A. c None",
/* pixels */
"A.w w w q q q q q e t e e i A.A.",
"w 4.4.Z.N.N.x.i.h.N.N.h.r.%.a A.",
"w 2...N.N.s j.i.x.Z.x.r.8.%.%.i ",
"w 2.` x.x.s i.h.Z.n.p.8.8./ ;.2 ",
"w 1.` i.i.f i.N.Z.k.q.8.8.J O.1 ",
"w <.( r.y.y.j.Z.x.u.0.8.8.J o.1 ",
"q ,.( s f f k l k s a a s Z o.; ",
"q >./ ! ! W W W ! G G S V C  .; ",
"q >.! ! / / W J L G G S V V | - ",
"q =.! ! J ~ ~ ! G G Z V m m } - ",
"q %.! Z.Z.Z.Z.Z.Z.Z.Z.Z.Z.n { # ",
"e %.! Z.                N.x [ # ",
"e $.J Z.' ' ' ' ' ' ' ' N.z ] X ",
"e #./ Z.                n.s b X ",
"q +.+.Z.V.Z.Z.Z.Z.Z.Z.Z.Z.v c X ",
"q q 3 < 1 1 > = = # # # X X X # "
};
