/* XPM */
static char *script_xpm[] = {
/* columns rows colors chars-per-pixel */
"16 16 101 2",
"   c #002A68",
".  c #002E72",
"X  c #364A64",
"o  c #374B65",
"O  c #003482",
"+  c #003687",
"@  c #003C96",
"#  c #003E9B",
"$  c #365D95",
"%  c #004AB9",
"&  c #0057DA",
"*  c #2D6AC3",
"=  c #1F6EE3",
"-  c #0F69F0",
";  c #106DF8",
":  c #1C74F8",
">  c #257AF8",
",  c #7192C2",
"<  c #7398CD",
"1  c #6895D7",
"2  c #418BF9",
"3  c #5797F8",
"4  c #5597FA",
"5  c #7CA9EA",
"6  c #65A1FA",
"7  c #66A2FA",
"8  c #72A9FA",
"9  c #75AAFA",
"0  c #93A2B7",
"q  c #95A4B9",
"w  c #96A5BA",
"e  c #9AA9BE",
"r  c #9CABC0",
"t  c #9EAEC3",
"y  c #A8B3C2",
"u  c #A3B2C8",
"i  c #A4B3C9",
"p  c #A7B6CC",
"a  c #A9B9CF",
"s  c #ABBBD1",
"d  c #AEBED4",
"f  c #AFBFD5",
"g  c #9FBCE4",
"h  c #82B2F9",
"j  c #90BBFA",
"k  c #BAC5D4",
"l  c #B2C2D8",
"z  c #9EC3F9",
"x  c #9DC3FB",
"c  c #A1C0EB",
"v  c #AFC3ED",
"b  c #B1C4ED",
"n  c #B2C5EE",
"m  c #B3C6EE",
"M  c #B6C8EF",
"N  c #B7C9EF",
"B  c #BACFE9",
"V  c #BACBF0",
"C  c #BCCDF0",
"Z  c #BDCEF0",
"A  c #B6D1F7",
"S  c #B2D0FD",
"D  c #CED6E2",
"F  c #C2D1F1",
"G  c #C9D6F3",
"H  c #C9D7F3",
"J  c #CBDDF1",
"K  c #CCDEF2",
"L  c #CEDFF2",
"P  c #C5DBFD",
"I  c #CADEFB",
"U  c #CADFFD",
"Y  c #D1DDF4",
"T  c #CCE0FD",
"R  c #D0E0F2",
"E  c #D3E2F3",
"W  c #D4E3F4",
"Q  c #D6E4F4",
"!  c #D7E5F5",
"~  c #DCE8F6",
"^  c #DEE9F6",
"/  c #DFEAF7",
"(  c #D1E1F9",
")  c #E1EBF7",
"_  c #E4EDF8",
"`  c #E6EEF8",
"'  c #E7EFF9",
"]  c #E6EEFB",
"[  c #E9F0F9",
"{  c #EAF1FA",
"}  c #ECF2FA",
"|  c #EEF3FA",
" . c #F2F7FC",
".. c #F4F8FC",
"X. c #F7FAFD",
"o. c #F9FBFD",
"O. c #FAFCFE",
"+. c #FCFDFE",
"@. c #FDFEFF",
"#. c gray100",
"$. c None",
/* pixels */
"$.$.$.$.$.$.$.$.$.$.$.$.$.$.$.$.",
"$.l l l l l l f a i D $.$.$.$.$.",
"$.l #.#.#.#.#.#.#.r X y $.$.$.$.",
"$.f #.#.#.#.#.#.#.q k X y $.$.$.",
"$.s #.#.#.#.#.#.#.0 o o X $.$.$.",
"$.p #.#.#.P S T #.O.Y H o $.$.$.",
"$.u #.#.#.9 4 6 X. . .F X $.$.$.",
"$.t #.O.T 6 j > ( | { Z X $.$.$.",
"$.e O.X.x 8 T - 5 ' _ N X $.$.$.",
"$.q  .] 2 h [ = * / / M X $.$.$.",
"$.0 { z : A _ 1 # B Q n X $.$.$.",
"$.0 ' 4 - c g < + , R n X $.$.$.",
"$.0 / & % @ O .   $ J n X $.$.$.",
"$.0 Q Q Q R R K J J J v X $.$.$.",
"$.0 H F N N n v v v v v X $.$.$.",
"$.0 X X X X X X X X X X X $.$.$."
};
