/* XPM */
static char *selective_step_in_xpm[] = {
/* columns rows colors chars-per-pixel */
"16 16 120 2",
"   c #2A2C59",
".  c #2B2D5B",
"X  c #2C2E5D",
"o  c #2D395A",
"O  c #2E3061",
"+  c #383961",
"@  c #323468",
"#  c #33356B",
"$  c #36386D",
"%  c #3A3C6A",
"&  c #383A6E",
"*  c #393B6F",
"=  c #3E3F6D",
"-  c #3C3E6F",
";  c #3F4174",
":  c #434577",
">  c #484A7B",
",  c #4C4E7D",
"<  c #4F517E",
"1  c #595B7B",
"2  c #67697F",
"3  c #20C500",
"4  c #22C501",
"5  c #23C602",
"6  c #21C304",
"7  c #25C605",
"8  c #24C008",
"9  c #24C20C",
"0  c #28C709",
"q  c #2DC80F",
"w  c #44CE29",
"e  c #4ED128",
"r  c #54D22C",
"t  c #4BD031",
"y  c #1B9345",
"u  c #45A640",
"i  c #6CD94E",
"p  c #013285",
"a  c #013791",
"s  c #023C91",
"d  c #053D90",
"f  c #043C98",
"g  c #1F5281",
"h  c #0A429E",
"j  c #124A9C",
"k  c #125595",
"l  c #0F47A3",
"z  c #1048A4",
"x  c #164EAA",
"c  c #1F59AA",
"v  c #1D55B1",
"b  c #1E56B2",
"n  c #2159B5",
"m  c #255DB9",
"M  c #2860BC",
"N  c #2E68B9",
"B  c #3270BB",
"V  c #555784",
"C  c #575986",
"Z  c #585A86",
"A  c #595B87",
"S  c #5B5C87",
"D  c #5D5F86",
"F  c #5B5D88",
"G  c #686A8B",
"H  c #707290",
"J  c #707297",
"K  c #757698",
"L  c #4A76AB",
"P  c #2D65C1",
"I  c #2F67C3",
"U  c #336BC7",
"Y  c #366ECA",
"T  c #376FCB",
"R  c #3B73CF",
"E  c #4078D4",
"W  c #457DD9",
"Q  c #6185BF",
"!  c #4B83DF",
"~  c #4E88D8",
"^  c #4F87E3",
"/  c #5088E4",
"(  c #538BE7",
")  c #568EEA",
"_  c #5892E3",
"`  c #5991ED",
"'  c #5D95F1",
"]  c #6199F5",
"[  c #649CF8",
"{  c #669EFA",
"}  c #679FFB",
"|  c #68A0FC",
" . c #69A1FD",
".. c #6AA2FE",
"X. c #9495AD",
"o. c #9B9BA8",
"O. c #9D9DB8",
"+. c #96E386",
"@. c #81A6E4",
"#. c #BDCEEB",
"$. c #DAF5D5",
"%. c #DADBE4",
"&. c #D1DEF2",
"*. c #FFFFE6",
"=. c #FFFFE7",
"-. c #FFFFEB",
";. c #F0F0F4",
":. c #F1F1F4",
">. c #F5F5F7",
",. c #F2FCF0",
"<. c #F7FDF6",
"1. c #FFFFF6",
"2. c #FFFFF7",
"3. c #F5F5F8",
"4. c #F9F9FA",
"5. c #FDFDFD",
"6. c #FCFEFC",
"7. c #FFFFFD",
"8. c gray100",
"9. c None",
/* pixels */
"F 8.9.9.9.9.9.9.9.9.9.9.9.9.9.9.",
"S 8.9.{ }  .....| [ ] ' ) / ! 9.",
"S 8._ ` ` ` ` ` ) ( ^ ! W E R Y ",
"A 8.~ 9.9.8.9.9.9.9.9.9.9.9.9.P ",
"C 8.9.9.8.O.5.@.E R T U I N 9.m ",
"V 8.8.8.8.> J 3.8.9.9.9.9.9.9.v ",
", Z * & $ # @ K #.M m n b c 9.x ",
": 8.8.8.8.- D ;.8.9.9.9.9.9.9.z ",
"; 8.9.9.$.u 3 3 3 3 y k l j 9.h ",
"; 8.9.9.w +.=.1.-.*.i t 9.9.9.f ",
"; 8.9.9.5 9.7.X.5.Q L 6 s d 9.a ",
"< 8.8.,.q 8.8.% G >.-.7 9.9.9.p ",
"%.= O o 8 2 X .   H &.9 B U 9.g ",
"8.8.8.<.0 6.8.+ 1 :.9.4 9.9.9.9.",
"9.9.9.9.3 r 2.o.4.-.e 3 9.9.9.9.",
"9.9.9.9.9.3 3 3 3 3 3 9.9.9.9.9."
};
