/* XPM */
static char *stage_result_xpm[] = {
/* columns rows colors chars-per-pixel */
"16 16 141 2",
"   c #2C6D27",
".  c #33762D",
"X  c #3A7F35",
"o  c #002A68",
"O  c #002E72",
"+  c #42833D",
"@  c #41883A",
"#  c #43893C",
"$  c #448B3D",
"%  c #4D9648",
"&  c #529D49",
"*  c #5BA851",
"=  c #5FA059",
"-  c #65A85D",
";  c #6AAB63",
":  c #6AAC63",
">  c #7ABA74",
",  c #7CC375",
"<  c #82C27A",
"1  c #83C479",
"2  c #84C07D",
"3  c #003482",
"4  c #003687",
"5  c #003C96",
"6  c #003E9B",
"7  c #365D95",
"8  c #004AB9",
"9  c #0F58C0",
"0  c #0057DA",
"q  c #2D6AC3",
"w  c #1F6EE3",
"e  c #0F69F0",
"r  c #1C74F8",
"t  c #257AF8",
"y  c #4474C5",
"u  c #4575C6",
"i  c #4575C7",
"p  c #4779C7",
"a  c #487DC3",
"s  c #4575C8",
"d  c #4675C8",
"f  c #537FCA",
"g  c #45808C",
"h  c #538F95",
"j  c #79BC80",
"k  c #5083CA",
"l  c #5383CA",
"z  c #5480CA",
"x  c #5385CB",
"c  c #5485CA",
"v  c #5585CB",
"b  c #5686CB",
"n  c #5787CB",
"m  c #5583CC",
"M  c #5681CE",
"N  c #5586CC",
"B  c #5686CC",
"V  c #5787CC",
"C  c #5585CF",
"Z  c #5887CC",
"A  c #5688CB",
"S  c #5688CC",
"D  c #5788CC",
"F  c #5F96CC",
"G  c #6595CD",
"H  c #7192C2",
"J  c #7398CD",
"K  c #6895D7",
"L  c #6D9ED0",
"P  c #6CA0D1",
"I  c #418BF9",
"U  c #5597FA",
"Y  c #7CA9EA",
"T  c #65A1FA",
"R  c #72A9FA",
"E  c #75AAFA",
"W  c #8DC485",
"Q  c #8FC08E",
"!  c #8EC988",
"~  c #8FCB88",
"^  c #93CA8A",
"/  c #92CB8A",
"(  c #94CB8C",
")  c #95CC8E",
"_  c #97CD8F",
"`  c #9DCF94",
"'  c #9AD191",
"]  c #9ED196",
"[  c #A5D49C",
"{  c #A0C9A6",
"}  c #B2D7B6",
"|  c #88BBEA",
" . c #91BBE4",
".. c #92BBE4",
"X. c #93BBE4",
"o. c #96BFE6",
"O. c #9FBCE4",
"+. c #82B2F9",
"@. c #90BBFA",
"#. c #93C1EC",
"$. c #9EC3F9",
"%. c #9DC3FB",
"&. c #A1C0EB",
"*. c #BACFE9",
"=. c #B6D1F7",
"-. c #B2D0FD",
";. c #C5DBFD",
":. c #C8DFFA",
">. c #D8E8E4",
",. c #C7E0FB",
"<. c #C4E2FA",
"1. c #CCE2FB",
"2. c #CCE0FD",
"3. c #CDE3FC",
"4. c #D1E1F9",
"5. c #D1E4FC",
"6. c #D2E5FC",
"7. c #D6E7FD",
"8. c #D5E7FE",
"9. c #D7E7FF",
"0. c #D9E9FF",
"q. c #DBEAFF",
"w. c #E3EFFA",
"e. c #E7F0FA",
"r. c #E7F2FA",
"t. c #E8F1FA",
"y. c #E9F1FB",
"u. c #EBF3FA",
"i. c #E8F2FC",
"p. c #E9F3FD",
"a. c #EAF3FD",
"s. c #EDF5FE",
"d. c #F0F6FE",
"f. c #F1F7FE",
"g. c #F0F7FF",
"h. c #F2F7FF",
"j. c #F3F8FB",
"k. c #F3F9FE",
"l. c #FEFFFF",
"z. c gray100",
"x. c None",
/* pixels */
"p N D A S n k x.x.x.x.x.x.x.x.x.",
"c z.w.a.w.w.r.| C x.x.x.x.x.x.x.",
"c z.8 a.8 w.r.<.#.a x.x.x.x.x.x.",
"b 8 e ,.e 9 k.u.j.G x.x.x.x.x.x.",
"8 e $.3.$.e 8 o.....P L F x.x.x.",
"e $.6.5.1.$.e l.p.a.i.w.r.| C x.",
"8 e $.8.$.e 8 s.:.:.;.-.2.k.| a ",
"x 8 e 7.e 8 X.d.:.:.E U T :.k.l ",
"h } 8 q.8 9...f.:.:.T @.t 4.f.Z ",
"% Q 0.q.0.$  .h.:.%.R 2.e Y f.V ",
"( = { e.y., $ g.:.I +.:.w q f.B ",
"~ W - & * 1 j $ $.r =.:.K 6 *.v ",
"> < / _ ] [ ' j $ e &.O.J 4 H m ",
"+ ; 2 ! ) ` ^ $ 0 8 5 3 O o 7 M ",
"x.  . X @ : $ >.t.f.f.f.f.f.f.z ",
"x.x.x.x.x.# g u s i s i i d y f "
};
