/* XPM */
static char *stage_source_xpm[] = {
/* columns rows colors chars-per-pixel */
"16 16 188 2",
"   c #2A60B7",
".  c #2C62B7",
"X  c #2D64B9",
"o  c #2E64B9",
"O  c #2E65B9",
"+  c #2F65BA",
"@  c #3065BA",
"#  c #3066BA",
"$  c #3166BB",
"%  c #3167BB",
"&  c #3369BC",
"*  c #366FBF",
"=  c #3871BF",
"-  c #4279BF",
";  c #3B76C1",
":  c #3B76C4",
">  c #3C78C1",
",  c #3E7AC5",
"<  c #3F7CC5",
"1  c #457EC2",
"2  c #3E80D7",
"3  c #4280C6",
"4  c #4682C4",
"5  c #4582C6",
"6  c #4683C6",
"7  c #4985C4",
"8  c #4B88C5",
"9  c #4B89C5",
"0  c #4B89C6",
"q  c #4C89C6",
"w  c #4F8BC7",
"e  c #4989C8",
"r  c #4D8BC8",
"t  c #4F8CC8",
"y  c #4F8DC8",
"u  c #4F8CC9",
"i  c #4897DE",
"p  c #6492DB",
"a  c #6594DB",
"s  c #4189E2",
"d  c #4C8CE0",
"f  c #4F96E2",
"g  c #5891E1",
"h  c #5F97E3",
"j  c #569BE3",
"k  c #559FE5",
"l  c #5D9BE3",
"z  c #589DE4",
"x  c #5C9DE5",
"c  c #6092E0",
"v  c #57A7E7",
"b  c #5DA0E5",
"n  c #58A4E5",
"m  c #5AA6E6",
"M  c #5CA7E8",
"N  c #5BABE9",
"B  c #5FAEE8",
"V  c #50ADF6",
"C  c #4FB2F7",
"Z  c #51B2F7",
"A  c #52B3F7",
"S  c #56B4F7",
"D  c #65A3E5",
"F  c #68A8E7",
"G  c #61A7E8",
"H  c #63A6E8",
"J  c #61ABE9",
"K  c #67ACEA",
"L  c #6AAAE8",
"P  c #65B2EC",
"I  c #65B6EC",
"U  c #6EB1E9",
"Y  c #69B2EC",
"T  c #7DB0E1",
"R  c #7DB2E2",
"E  c #75B2E9",
"W  c #71B5EA",
"Q  c #72B6EB",
"!  c #76BBEC",
"~  c #79B8EC",
"^  c #61BCFB",
"/  c #63BDFB",
"(  c #65BEFB",
")  c #62BCFC",
"_  c #62BDFC",
"`  c #60BEFC",
"'  c #67BDFC",
"]  c #64BEFC",
"[  c #68BFFD",
"{  c #6EC2FD",
"}  c #84B6E2",
"|  c #94B6EE",
" . c #93BAEF",
".. c #93D4FF",
"X. c #94D5FF",
"o. c #95D6FF",
"O. c #96D6FF",
"+. c #98D7FF",
"@. c #9BD6FF",
"#. c #9ED7FF",
"$. c #A0D8FF",
"%. c #B3D2F1",
"&. c #B5D4F3",
"*. c #B3D1F6",
"=. c #B8D6F4",
"-. c #BAD6F5",
";. c #BBD6F5",
":. c #B4D8F6",
">. c #BBD8F6",
",. c #BCD9F6",
"<. c #BDDAF6",
"1. c #C4D8F2",
"2. c #C3D8F9",
"3. c #C1DBF8",
"4. c #C1DAF9",
"5. c #C3DBF9",
"6. c #C4DAF9",
"7. c #C5DBFA",
"8. c #C2DCF8",
"9. c #C3DDF9",
"0. c #C4DDF9",
"q. c #C4DEF9",
"w. c #C5DFF9",
"e. c #C5DDFB",
"r. c #C6DFFA",
"t. c #C7DFFA",
"y. c #C7E0FA",
"u. c #C8E0F9",
"i. c #C8E0FA",
"p. c #C8E0FB",
"a. c #C9E0FB",
"s. c #C8E1FB",
"d. c #C9E1FB",
"f. c #CAE1FA",
"g. c #CBE1FB",
"h. c #C9E2FB",
"j. c #CBE2FB",
"k. c #CDE3FB",
"l. c #CEE3FB",
"z. c #C9E5FA",
"x. c #CCE2FC",
"c. c #CDE2FC",
"v. c #CDE3FC",
"b. c #CEE2FC",
"n. c #CFE3FC",
"m. c #CFE4FC",
"M. c #CDE6FC",
"N. c #D7E6F2",
"B. c #DFE9F4",
"V. c #DFEBF5",
"C. c #DCEAF6",
"Z. c #DEEAF6",
"A. c #DEEBF6",
"S. c #DFECF7",
"D. c #D0E4FB",
"F. c #D3E5FD",
"G. c #D4E6FC",
"H. c #D6E7FD",
"J. c #D6E8FE",
"K. c #D7E8FE",
"L. c #D8E8FE",
"P. c #E3EDF7",
"I. c #E9EFF5",
"U. c #E6EFF8",
"Y. c #ECF2F7",
"T. c #EAF1F8",
"R. c #EAF2FA",
"E. c #EBF3FA",
"W. c #ECF2F8",
"Q. c #EDF3F8",
"!. c #EDF4F8",
"~. c #EEF4F8",
"^. c #EDF4FA",
"/. c #EFF4FA",
"(. c #F0F4F8",
"). c #F1F5F9",
"_. c #F2F6FA",
"`. c #F2F7FB",
"'. c #F3F7FB",
"]. c #F4F7FB",
"[. c #F3F7FC",
"{. c #F4F8FC",
"}. c #F5F9FC",
"|. c #F7FAFD",
" X c #F8FBFD",
".X c #F8FBFF",
"XX c #FDFEFE",
"oX c None",
/* pixels */
"oXoXoXr t t t t y u w 9 : oXoXoX",
"oXoX7 Y.~.!.Q.Q.Q.W.Y.N.R a oXoX",
"oXoX8 _.y.d.h.p.w.3.=..X:.T p oX",
"oXoXq ).v.l.k.j.u.8.-. XM.z.} - ",
"oXoX0 U.n.D.m.v.f.0.,.B.Y.'.I.1 ",
"oXoXe U B G.I Y q.i.8.;.&.%.(.4 ",
"oXoXi Q G H.P ! K 4.t.8.<.>./.6 ",
"oXN W H 7.L.e.J W M  .y.9.8.^.5 ",
"v ~ n 1.J.K.H.*.m E z i.t.r.R.3 ",
"oXk L l 2.H.5.b L j | c.g.d.`.< ",
"oXoX2 D g F.x F h 6.b.x.a.s.|.; ",
"oXoX, c d S f s V A A Z C C }.* ",
"oXoX> P.{ $.#.@.+.O.o.X...( ].% ",
"oXoX= V.[ ' ( ] ] _ / ^ ` )  XX ",
"oXoX& T.S.A.Z.C.C.E.E.R.[.{.XX  ",
"oXoXoX@ $ # # # @ + O O o o . oX"
};
