/* XPM */
static char *step_in_xpm[] = {
/* columns rows colors chars-per-pixel */
"16 16 80 1",
"  c #2F315D",
". c #343657",
"X c #36375C",
"o c #38395C",
"O c #3B3D5E",
"+ c #2E2F60",
"@ c #2F3062",
"# c #2F3163",
"$ c #323362",
"% c #333565",
"& c #363867",
"* c #3C3D64",
"= c #383A6C",
"- c #3B3D6E",
"; c #3D3F6F",
": c #3F4171",
"> c #3E4073",
", c #414372",
"< c #434474",
"1 c #424476",
"2 c #454676",
"3 c #464876",
"4 c #474977",
"5 c #454678",
"6 c #5F6077",
"7 c #013285",
"8 c #013791",
"9 c #053D90",
"0 c #013995",
"q c #033B97",
"w c #043C98",
"e c #063E9A",
"r c #073F9B",
"t c #1F5281",
"y c #0A429E",
"u c #124A9C",
"i c #0D45A1",
"p c #0F47A3",
"a c #1048A4",
"s c #1149A5",
"d c #134BA7",
"f c #164EAA",
"g c #174FAB",
"h c #1951AD",
"j c #1F59AA",
"k c #1C54B0",
"l c #1D55B1",
"z c #1E56B2",
"x c #2159B5",
"c c #255DB9",
"v c #2860BC",
"b c #2A62BE",
"n c #2E68B9",
"m c #2D65C1",
"M c #2E66C2",
"N c #2F67C3",
"B c #336BC7",
"V c #366ECA",
"C c #376FCB",
"Z c #3B73CF",
"A c #4078D4",
"S c #437BD7",
"D c #457DD9",
"F c #4B83DF",
"G c #4E88D8",
"H c #4F87E3",
"J c #5088E4",
"K c #538BE7",
"L c #568EEA",
"P c #5892E3",
"I c #5991ED",
"U c #5D95F1",
"Y c #6199F5",
"T c #649CF8",
"R c #669EFA",
"E c #679FFB",
"W c #68A0FC",
"Q c #69A1FD",
"! c #6AA2FE",
"~ c None",
/* pixels */
"6451>~~~~~~~~~~~",
"3~~~~~~~~~~~~~~~",
"2~~REQ!!WTYULJF~",
"<~PIIIIILKHFDAZV",
",~G~~~~~~~~~~~~m",
":~~~~~~SAZCBNn~c",
";~~~~~~~~~~~~~~l",
"-~~~~~~Mbvcxzj~f",
"=~~O~~~~~~~~~~~a",
"&~~%*~~khgdspu~y",
"~$#@+o~~~~~~~~~w",
"~~~ X~~iyreq09~8",
"~~~.~~~~~~~~~~~7",
"~~~~~~~~~~~~~~~t",
"~~~~~~~~~~~~~~~~",
"~~~~~~~~~~~~~~~~"
};
