/* XPM */
static char *step_over_xpm[] = {
/* columns rows colors chars-per-pixel */
"16 16 79 1",
"  c #2F315E",
". c #343559",
"X c #30315C",
"o c #2E3060",
"O c #2F3162",
"+ c #2F3163",
"@ c #313361",
"# c #333562",
"$ c #323465",
"% c #353764",
"& c #393A60",
"* c #35376A",
"= c #383A6C",
"- c #3A3C6E",
"; c #3C3E6F",
": c #3D3F72",
"> c #3E4071",
", c #414372",
"< c #424473",
"1 c #404274",
"2 c #424476",
"3 c #444575",
"4 c #454676",
"5 c #454776",
"6 c #474977",
"7 c #474978",
"8 c #595A73",
"9 c #66677C",
"0 c #696A7D",
"q c #013791",
"w c #063E91",
"e c #023A96",
"r c #033B97",
"t c #053D99",
"y c #073F9B",
"u c #0A429E",
"i c #134B9E",
"p c #0C44A0",
"a c #0D45A1",
"s c #1048A4",
"d c #1149A5",
"f c #134BA7",
"g c #144CA8",
"h c #154DA9",
"j c #174FAB",
"k c #1A52AE",
"l c #1B53AF",
"z c #1D55B1",
"x c #245EAF",
"c c #2058B4",
"v c #245CB8",
"b c #2860BC",
"n c #2B63BF",
"m c #2E66C2",
"M c #2F67C3",
"N c #326AC6",
"B c #366ECA",
"V c #376FCB",
"C c #3B73CF",
"Z c #4179D5",
"A c #437BD7",
"S c #457DD9",
"D c #4B85D5",
"F c #4981DD",
"G c #4A82DE",
"H c #4E86E2",
"J c #4F87E3",
"K c #5189E5",
"L c #538BE7",
"P c #548CE8",
"I c #558DE9",
"U c #568EEA",
"Y c #5791E2",
"T c #5A92EE",
"R c #5E96F2",
"E c #6199F5",
"W c #649CF8",
"Q c #659DF9",
"! c None",
/* pixels */
"8421:!!!!!!!!!!!",
"6!!!!!!!!!!!!!!!",
"7!!QQQQWERTIJFA!",
"5!YUIPLKHGSZCBNM",
"3!D!!!!!!!!!!!!v",
"<!!!!!!VNmnbvx!l",
",!!!!!!!!!!!!!!f",
">!!!!!!czkjgdi!p",
";!!!!!!!!!!!!!!t",
"-!!!hfsauytrew!q",
"=!!!!!!!!!!!!!!!",
"*!!&!!!!!!!!!!!!",
"%!!$#9!!!!!!!!!!",
"!@+Oo !!!!!!!!!!",
"!!! X0!!!!!!!!!!",
"!!!.!!!!!!!!!!!!"
};
