/* XPM */
static char *step_out_xpm[] = {
/* columns rows colors chars-per-pixel */
"16 16 77 1",
"  c #2D2F5E",
". c #2D2F5F",
"X c #2E3060",
"o c #303160",
"O c #323465",
"+ c #333567",
"@ c #3C3D63",
"# c #343668",
"$ c #35376A",
"% c #363869",
"& c #37396B",
"* c #36386D",
"= c #3A3C6E",
"- c #3D3F6F",
"; c #3C3E71",
": c #41436E",
"> c #4E4F6D",
", c #50516B",
"< c #52526B",
"1 c #424472",
"2 c #404274",
"3 c #454775",
"4 c #4D4F71",
"5 c #013285",
"6 c #013791",
"7 c #053D90",
"8 c #013995",
"9 c #033B97",
"0 c #043C98",
"q c #063E9A",
"w c #073F9B",
"e c #0A429E",
"r c #124A9C",
"t c #0D45A1",
"y c #0F47A3",
"u c #1048A4",
"i c #1149A5",
"p c #134BA7",
"a c #164EAA",
"s c #174FAB",
"d c #1951AD",
"f c #1F59AA",
"g c #1C54B0",
"h c #1D55B1",
"j c #1E56B2",
"k c #2159B5",
"l c #255DB9",
"z c #2860BC",
"x c #2A62BE",
"c c #2E68B9",
"v c #2D65C1",
"b c #2E66C2",
"n c #2F67C3",
"m c #336BC7",
"M c #366ECA",
"N c #376FCB",
"B c #3B73CF",
"V c #4078D4",
"C c #437BD7",
"Z c #457DD9",
"A c #4B83DF",
"S c #4E88D8",
"D c #4F87E3",
"F c #5088E4",
"G c #538BE7",
"H c #568EEA",
"J c #5892E3",
"K c #5991ED",
"L c #5D95F1",
"P c #6199F5",
"I c #649CF8",
"U c #679FFA",
"Y c #689FFB",
"T c #68A0FC",
"R c #69A1FD",
"E c #6AA2FE",
"W c None",
/* pixels */
"WWW,WWWWWWWWWWWW",
"WWW34WWWWWWWWWWW",
"W12;*@WWWWWWWWWW",
":WW%>WWWWWWWWWWW",
"-WWWWWWWWWWWWWWW",
"=WWUYREETIPLHFAW",
"&WJKKKKKHGDAZVBM",
"$WSWWWWWWWWWWWWv",
"#WWWWWWCVBNmncWl",
"+WWWWWWWWWWWWWWh",
"OWWWWWWbxzlkjfWa",
"<oX. WWWWWWWWWWu",
"WWWWWWWgdspiyrWe",
"WWWWWWWWWWWWWWW0",
"WWWWWWWtewq987W6",
"WWWWWWWWWWWWWWW5"
};
