/* XPM */
static char *stop_debug_xpm[] = {
/* columns rows colors chars-per-pixel */
"16 16 113 2",
"   c #0B1122",
".  c #0C1224",
"X  c #0C1326",
"o  c #0E152B",
"O  c #0E162C",
"+  c #101932",
"@  c #121B35",
"#  c #131D3A",
"$  c #15203F",
"%  c #162142",
"&  c #142044",
"*  c #16234A",
"=  c #1A274E",
"-  c #1B284D",
";  c #172550",
":  c #192854",
">  c #1D2C57",
",  c #1B2B5A",
"<  c #1B2B5C",
"1  c #22315E",
"2  c #1D2F65",
"3  c #1E3065",
"4  c #213265",
"5  c #213570",
"6  c #223775",
"7  c #293B70",
"8  c #243A7B",
"9  c #243A7C",
"0  c #253B7E",
"q  c #283C78",
"w  c #273F85",
"e  c #284089",
"r  c #28418A",
"t  c #29428D",
"y  c #304582",
"u  c #31488D",
"i  c #2B4593",
"p  c #2C4797",
"a  c #2D4899",
"s  c #2D499B",
"d  c #385096",
"f  c #2F4CA1",
"g  c #304DA4",
"h  c #314EA6",
"j  c #3A54A3",
"k  c #3250AA",
"l  c #3352AE",
"z  c #3453B1",
"x  c #3454B2",
"c  c #3555B5",
"v  c #3758BB",
"b  c #385ABF",
"n  c #425DAE",
"m  c #4E67B0",
"M  c #6279BD",
"N  c #3A5CC3",
"B  c #3A5DC5",
"V  c #3B5FCA",
"C  c #3C60CC",
"Z  c #3E64D4",
"A  c #4C6AC5",
"S  c #4066D7",
"D  c #4167D8",
"F  c #496DD9",
"G  c #4B6FD9",
"H  c #4A6EDA",
"J  c #5E7BD0",
"K  c #5073DB",
"L  c #5476DB",
"P  c #5375DC",
"I  c #5678DC",
"U  c #5C7CDD",
"Y  c #5E7EDE",
"T  c #748ACA",
"R  c #6F89D5",
"E  c #6080DE",
"W  c #6382DE",
"Q  c #6382DF",
"!  c #6483DF",
"~  c #6886DF",
"^  c #7E95D9",
"/  c #6A88E0",
"(  c #6D8AE1",
")  c #708CE1",
"_  c #738FE2",
"`  c #7994E3",
"'  c #7B95E3",
"]  c #7C96E3",
"[  c #7F98E4",
"{  c #8498D4",
"}  c #8CA1DE",
"|  c #91A3DA",
" . c #8099E4",
".. c #839CE5",
"X. c #89A1E7",
"o. c #8AA1E7",
"O. c #8BA2E7",
"+. c #8CA3E7",
"@. c #96A9E2",
"#. c #9EAFE1",
"$. c #91A7E8",
"%. c #95AAE8",
"&. c #97ACE9",
"*. c #9FB0E3",
"=. c #9CB0EB",
"-. c #9FB2EB",
";. c #A7B7E5",
":. c #ACBBE7",
">. c #A2B5ED",
",. c #A8B8E8",
"<. c #B0BEE9",
"1. c #B0BFEA",
"2. c None",
/* pixels */
"2.2.2.2.2.2.2.2.2.2.2.2.2.2.2.2.",
"2.2.2.2.2.2.2.2.2.2.2.2.2.2.2.2.",
"2.2.1.<.1.:.,.*.@.} ^ R J 2.2.2.",
"2.2.;.>.-.=.%.+. ._ W P A 2.2.2.",
"2.2.#.&.%.$.o.[ _ ! P S n 2.2.2.",
"2.2.| O.X...' ) Q P D B d 2.2.2.",
"2.2.{ ] ` _ / Y K S B z y 2.2.2.",
"2.2.T ( ~ E I H Z N l s 7 2.2.2.",
"2.2.M U L G D V v k a e 1 2.2.2.",
"2.2.m F S C b z f i w 6 - 2.2.2.",
"2.2.j C b x g p e 8 5 3 $ 2.2.2.",
"2.2.u c h p r 9 5 2 < : @ 2.2.2.",
"2.2.q s t 0 5 3 , ; * & o 2.2.2.",
"2.2.4 > = % # + O X .     2.2.2.",
"2.2.2.2.2.2.2.2.2.2.2.2.2.2.2.2.",
"2.2.2.2.2.2.2.2.2.2.2.2.2.2.2.2."
};
