/* XPM */
static char *workspace_xpm[] = {
/* columns rows colors chars-per-pixel */
"16 16 176 2",
"   c #C38322",
".  c #C38423",
"X  c #C48524",
"o  c #C48625",
"O  c #C58726",
"+  c #C58928",
"@  c #C68A28",
"#  c #C78D2B",
"$  c #C88E2C",
"%  c #C88F2D",
"&  c #C9902E",
"*  c #C9922F",
"=  c #CB9532",
"-  c #CC9834",
";  c #C8943B",
":  c #CE9D39",
">  c #DE9F32",
",  c #D1A43F",
"<  c #E2AA37",
"1  c #E2A938",
"2  c #E3AB3A",
"3  c #E6B53A",
"4  c #E6B43D",
"5  c #E6B53F",
"6  c #ECB638",
"7  c #E9B53D",
"8  c #F0BD3B",
"9  c #C88E40",
"0  c #CA904A",
"q  c #D09753",
"w  c #D2A540",
"e  c #D3A842",
"r  c #D4AA44",
"t  c #D5AC45",
"y  c #D5AD47",
"u  c #D6B049",
"i  c #D7B04A",
"p  c #D7B24B",
"a  c #D8B24B",
"s  c #D8B44C",
"d  c #D8B44D",
"f  c #D9B54D",
"g  c #D9B54E",
"h  c #D9B74F",
"j  c #D5A651",
"k  c #DAAD50",
"l  c #D7A45F",
"z  c #DBB156",
"x  c #E1A740",
"c  c #E6B542",
"v  c #E4B145",
"b  c #E6B147",
"n  c #E7BA41",
"m  c #E9BD40",
"M  c #E8BE43",
"N  c #E9BD45",
"B  c #E4B14C",
"V  c #E9B44C",
"C  c #E8BF48",
"Z  c #E8BB4F",
"A  c #F5BD40",
"S  c #E5AF56",
"D  c #DBB262",
"F  c #DDB969",
"G  c #D6B870",
"H  c #DCBD77",
"J  c #E6B66B",
"K  c #E2B76F",
"L  c #E5BF6F",
"P  c #E4B374",
"I  c #EAC443",
"U  c #EAC146",
"Y  c #ECC547",
"T  c #EBC648",
"R  c #EFC748",
"E  c #F9C248",
"W  c #F9C448",
"Q  c #F1C156",
"!  c #F5C969",
"~  c #E1C072",
"^  c #E0C07D",
"/  c #E0C67E",
"(  c #F5CF7F",
")  c #FFD577",
"_  c #F5D078",
"`  c #F5D07F",
"'  c #FED678",
"]  c #FED97C",
"[  c #DBC389",
"{  c #DEC995",
"}  c #E5C482",
"|  c #EBC182",
" . c #ECC583",
".. c #EEC483",
"X. c #EDC687",
"o. c #ECCA84",
"O. c #EBCC84",
"+. c #E7CC88",
"@. c #EECA88",
"#. c #EFCA8A",
"$. c #EBCD8F",
"%. c #F1CF86",
"&. c #F0CE8A",
"*. c #FBDC84",
"=. c #F1D28B",
"-. c #F7D589",
";. c #F7D78B",
":. c #F0D08C",
">. c #FBDA8D",
",. c #FFDC8C",
"<. c #E5CF92",
"1. c #EDD292",
"2. c #EAD59C",
"3. c #F1D590",
"4. c #F5D790",
"5. c #F2D695",
"6. c #FBDB92",
"7. c #FEDF95",
"8. c #F8DB9D",
"9. c #FEE094",
"0. c #FEE194",
"q. c #FEE196",
"w. c #FFE19B",
"e. c #FFE39F",
"r. c #EDD9A5",
"t. c #F2DDAF",
"y. c #EDDEBE",
"u. c #FFE4A4",
"i. c #FFE4A5",
"p. c #FFE5A5",
"a. c #F9E1AA",
"s. c #FAE3AA",
"d. c #FFE7AD",
"f. c #FFE8A8",
"g. c #FFE8AB",
"h. c #F7E4B2",
"j. c #FAE4B0",
"k. c #FFEAB3",
"l. c #FFE9B6",
"z. c #FFEBB7",
"x. c #F6E5BF",
"c. c #FFEAB9",
"v. c #FFEBBA",
"b. c #FFEBBD",
"n. c #FFEDBE",
"m. c #FFEEC1",
"M. c #FFEFC1",
"N. c #FFEFC4",
"B. c #FCEEC7",
"V. c #FBEDCB",
"C. c #FFEFC8",
"Z. c #F9EBCD",
"A. c #FAECCE",
"S. c #FFF0C9",
"D. c #FFF2CC",
"F. c #FFF2CE",
"G. c #FFF4CC",
"H. c #F5EBD2",
"J. c #F7EED1",
"K. c #FFF3D4",
"L. c #FFF3D5",
"P. c #FFF4D7",
"I. c #FFF5D9",
"U. c #FFF4DA",
"Y. c #FFF6DB",
"T. c #FFF6DD",
"R. c #FCF6E2",
"E. c #FDF6E2",
"W. c #FEF6E3",
"Q. c #FEF8E1",
"!. c #FDF8E2",
"~. c #FCF8E6",
"^. c #FEFBE7",
"/. c #FFFEF0",
"(. c #FFFFF6",
"). c None",
/* pixels */
").).).).).).).a p ).).).).).).).",
").).).).).g p 2.+.r r ).).).).).",
").).).).g <.~.R.t.j.~ w ).).).).",
").).g / J.(./.V.k ;.a.5.D : ).).",
"g g r.H.y.{ [ G F 4.( 8.a.o.j = ",
"g Q.A.1.O.L z ; A.I.c.7.' p.*.* ",
"p R.K.s.&.` _ B j.l.w.' A 7 3.% ",
"p R.I.K.b.-.! V >.,.W 6 C Z :.# ",
"y R.P.D.N.c.6.Q E 8 R N c b #.+ ",
"r R.K.D.m.k.d.] R I M 4 1 x  .O ",
"e ~.T.M.l.g.u.q.T m 4 1 > J  .o ",
", H x.T.m.p.e.q.U 3 < S  .P 0   ",
").).: ^ B.D.p.q.n v #.| q . ).).",
").).).- = } G.N.:.&.l o o ).).).",
").).).).).* % $.K 9 o ).).).).).",
").).).).).).).+ O ).).).).).).)."
};
