/* XPM */
static char *exit_xpm[] = {
/* columns rows colors chars-per-pixel */
"16 16 168 2",
"   c #520505",
".  c #5C0404",
"X  c #540D0D",
"o  c #5F0808",
"O  c #610303",
"+  c #670606",
"@  c #680202",
"#  c #6F0101",
"$  c #690707",
"%  c #6A0606",
"&  c #6D0404",
"*  c #6E0505",
"=  c #6F0707",
"-  c #770101",
";  c #760505",
":  c #790000",
">  c #7A0000",
",  c #7C0000",
"<  c #7D0000",
"1  c #7D0101",
"2  c #7E0000",
"3  c #7E0404",
"4  c #820000",
"5  c #840000",
"6  c #850000",
"7  c #860000",
"8  c #860202",
"9  c #860303",
"0  c #860404",
"q  c #8B0303",
"w  c #8D0000",
"e  c #8E0202",
"r  c #880606",
"t  c #8C0404",
"y  c #940000",
"u  c #960101",
"i  c #920707",
"p  c #980000",
"a  c #9A0000",
"s  c #9B0303",
"d  c #9C0000",
"f  c #9E0000",
"g  c #960808",
"h  c #940C0C",
"j  c #980808",
"k  c #9E0A0A",
"l  c #A70000",
"z  c #AE0000",
"x  c #AF0000",
"c  c #A30B0B",
"v  c #A50C0C",
"b  c #AD0909",
"n  c #AA0E0E",
"m  c #B10E0E",
"M  c #BB0E0E",
"N  c #AA1010",
"B  c #AB1010",
"V  c #AC1212",
"C  c #A21919",
"Z  c #B71717",
"A  c #BD1010",
"S  c #B81919",
"D  c #B91A1A",
"F  c #922525",
"G  c #9A2121",
"H  c #9E2929",
"J  c #9B3D3D",
"K  c #A42121",
"L  c #A52323",
"P  c #BB2020",
"I  c #B22E2E",
"U  c #A43636",
"Y  c #AC3C3C",
"T  c #BE3636",
"R  c #CD0000",
"E  c #D20000",
"W  c #DE0000",
"Q  c #C71414",
"!  c #CA1515",
"~  c #D41B1B",
"^  c #D71E1E",
"/  c #E00000",
"(  c #FF1111",
")  c #FF1313",
"_  c #C42020",
"`  c #C52121",
"'  c #C52424",
"]  c #C72828",
"[  c #D02727",
"{  c #D12828",
"}  c #D12B2B",
"|  c #D02C2C",
" . c #DB2929",
".. c #DB2A2A",
"X. c #DC3434",
"o. c #DC3C3C",
"O. c #E12424",
"+. c #E02727",
"@. c #EB2929",
"#. c #EA2D2D",
"$. c #F42D2D",
"%. c #E43939",
"&. c #F23131",
"*. c #F73D3D",
"=. c #F73E3E",
"-. c #A85C5C",
";. c #B65757",
":. c #BC5454",
">. c #B25D5D",
",. c #BF5A5A",
"<. c #AC6666",
"1. c #BF6060",
"2. c #B66E6E",
"3. c #BE7272",
"4. c #BB7676",
"5. c #C94040",
"6. c #D34141",
"7. c #DE4D4D",
"8. c #C45353",
"9. c #CD5858",
"0. c #C85C5C",
"q. c #DC5353",
"w. c #E64141",
"e. c #E64545",
"r. c #ED4040",
"t. c #EC4141",
"y. c #EE4747",
"u. c #E44848",
"i. c #EE4848",
"p. c #ED4C4C",
"a. c #ED4D4D",
"s. c #F64040",
"d. c #F74040",
"f. c #F64141",
"g. c #F64242",
"h. c #F74242",
"j. c #F64343",
"k. c #EC5252",
"l. c #C86666",
"z. c #D16363",
"x. c #D16E6E",
"c. c #D86D6D",
"v. c #DA6C6C",
"b. c #D86F6F",
"n. c #CE7D7D",
"m. c #ED6161",
"M. c #E06B6B",
"N. c #E46969",
"B. c #E57373",
"V. c #EC7777",
"C. c #EC7E7E",
"Z. c #BF8888",
"A. c #C88181",
"S. c #D58282",
"D. c #C99393",
"F. c #DD9595",
"G. c #E18080",
"H. c #E18383",
"J. c #E78383",
"K. c #E78F8F",
"L. c #E99F9F",
"P. c #D5A4A4",
"I. c #D9A1A1",
"U. c #DFA6A6",
"Y. c #E5A5A5",
"T. c #E8A0A0",
"R. c #E6B1B1",
"E. c None",
/* pixels */
"E.E.E.E.E.E.E.E.E.E.E.E.E.E.E.E.",
"E.E.R / W W W W W W W W / E E.E.",
"E.p ( s.j.s.s.=.=.=.h.j.s.) z E.",
"E.d $.a.i.t.k.V.J.m.t.j.a.&.z E.",
"E.y @.e.%.J.Y.B.N.K.L.u.e.#.l E.",
"E.w O.X.H.H...u.M. .q.Y.o.O.d E.",
"E.7 ^ 6.F.| | v.R.[ [ c.c.~ y E.",
"E.2 ! 9.x.! ] l.Y.` I o.S.Q i E.",
"E.> A 8.l.D D 0.I.Z P T n.M 0 E.",
"E.& m I A.N N ,.P.n N :.1.b 3 E.",
"E.@ v k 3.;.p L Y p L D.C c ; E.",
"E.O j h i 2.4.U H >.Z.G i g = E.",
"E.. t r r 7 F -.<.J 0 7 r r % E.",
"E.  7 2 > 2 2 > > 2 > 2 2 4 o E.",
"E.E.+ = = & & = % = = & = % E.E.",
"E.E.E.X E.E.E.E.E.E.E.E.X E.E.E."
};
