/* XPM */
static char *keyboard_xpm[] = {
/* columns rows colors chars-per-pixel */
"16 16 107 2",
"   c #6890C4",
".  c #6990C4",
"X  c #6A92C5",
"o  c #6B93C6",
"O  c #6E95C7",
"+  c #6E96C8",
"@  c #7299CA",
"#  c #769CCD",
"$  c #779DCE",
"%  c #7BA0D0",
"&  c #7DA2D1",
"*  c #7FA5D3",
"=  c #AEAEAE",
"-  c #AEB1B3",
";  c #B7B7B7",
":  c #B6B9BB",
">  c #BCBCBC",
",  c #82A1CC",
"<  c #85A3CD",
"1  c #88A6CF",
"2  c #83A8D5",
"3  c #85A9D6",
"4  c #8CA8D0",
"5  c #8FABD1",
"6  c #8AAED9",
"7  c #94AED3",
"8  c #8FB2DD",
"9  c #97B0D5",
"0  c #97B1D5",
"q  c #9AB3D6",
"w  c #9CB4D6",
"e  c #9EB6D7",
"r  c #9EB6D8",
"t  c #9FB7D8",
"y  c #A1B8D9",
"u  c #A2B9D9",
"i  c #A3BAD9",
"p  c #A4BADA",
"a  c #A6BCDA",
"s  c #A6BCDB",
"d  c #A7BDDB",
"f  c #A9BEDC",
"g  c #AABFDC",
"h  c #ABBFDD",
"j  c #95B7E0",
"k  c #9ABCE3",
"l  c #ADC2DE",
"z  c #AEC2DE",
"x  c #AFC2DE",
"c  c #AFC3DE",
"v  c #B0C3DF",
"b  c #B0C4DF",
"n  c #B1C4DF",
"m  c #9FC0E7",
"M  c #A4C5EA",
"N  c #AAC9ED",
"B  c #ABCBEE",
"V  c #B3C5E0",
"C  c #B4C6E0",
"Z  c #B5C7E1",
"A  c #B6C8E1",
"S  c #B7C9E1",
"D  c #B7C9E2",
"F  c #B8C9E2",
"G  c #B9CAE3",
"H  c #BACBE3",
"J  c #BCCCE3",
"K  c #BCCCE4",
"L  c #BECEE5",
"P  c #AECEF0",
"I  c #B1D0F2",
"U  c #B3D2F3",
"Y  c #B6D4F5",
"T  c #B7D5F6",
"R  c #BBD8F8",
"E  c #BEDBFA",
"W  c #BFDCFA",
"Q  c #C0C0C0",
"!  c gray77",
"~  c #C8C8C8",
"^  c gray79",
"/  c gray81",
"(  c #D0D0D0",
")  c gray83",
"_  c #C1D0E5",
"`  c #C2D1E7",
"'  c #C3D2E7",
"]  c #C5D3E7",
"[  c #C5D4E8",
"{  c #C7D5E8",
"}  c #C8D5E8",
"|  c #CAD6E9",
" . c #CAD7EA",
".. c #CCD8EA",
"X. c #CEDAEB",
"o. c #D0DCEC",
"O. c #D1DCEC",
"+. c #D2DDED",
"@. c #D4DEED",
"#. c #D4DFEE",
"$. c #C1DEFC",
"%. c #D6E0EE",
"&. c #D7E1EE",
"*. c #D8E2EF",
"=. c #F0F3F7",
"-. c gray99",
";. c None",
/* pixels */
";.;.;.;.;.;.;.;.;.;.;.;.;.;.;.;.",
";.;.;.;.;.;.;.;.;.;.;.;.;.;.;.;.",
";.;.;.) / ^ Q ; = ;.;.;.;.;.;.;.",
";.;.( ^ ;.;.;.;.;.;.;.;.;.;.;.;.",
";.;.! > ;.;.;.;.;.;.;.;.;.;.;.;.",
"$.$.: - E R Y U P N M M k j 8 6 ",
"$.*.*.*.&.&.#.#.#.....} } [ ` 2 ",
"$.*.-.K -.S -.x -.f -.u -.=.K & ",
"$.#.H S V x x f a u e q } -.H $ ",
"R #.-.-.x -.a -.e -.9 -.-.-.S @ ",
"Y ..c l d u e e 9 7 5 4 1 < V O ",
"U ..-.p -.-.-.-.-.-.-.-., -.v X ",
"B ] ] ` ` K J S H V V b b x x   ",
"M M k 8 8 6 3 2 % $ @ + X X     ",
";.;.;.;.;.;.;.;.;.;.;.;.;.;.;.;.",
";.;.;.;.;.;.;.;.;.;.;.;.;.;.;.;."
};
