/* XPM */
static char *properties_xpm[] = {
/* columns rows colors chars-per-pixel */
"16 16 101 2",
"   c #4579D1",
".  c #477BD1",
"X  c #497DD1",
"o  c #4B7DD1",
"O  c #4D7FD3",
"+  c #4F81D3",
"@  c #5183D5",
"#  c #5787D5",
"$  c #5D89D2",
"%  c #6591D9",
"&  c #6F97DB",
"*  c #7B9BD2",
"=  c #7199DC",
"-  c #739CDE",
";  c #749CDE",
":  c #799FDD",
">  c #789EDE",
",  c #799FDE",
"<  c #7FA5DF",
"1  c #838383",
"2  c #848484",
"3  c gray52",
"4  c gray53",
"5  c #888888",
"6  c #898989",
"7  c gray54",
"8  c gray55",
"9  c #8D8D8D",
"0  c #8E8E8E",
"q  c gray56",
"w  c #929292",
"e  c #939393",
"r  c gray59",
"t  c #989898",
"y  c gray60",
"u  c #9B9B9B",
"i  c gray61",
"p  c #ACACAC",
"a  c gray71",
"s  c #B9B9B9",
"d  c gray73",
"f  c #BCBCBC",
"g  c #81A4DF",
"h  c #83A5DF",
"j  c #88A7DA",
"k  c #8CA9D8",
"l  c #85A7E1",
"z  c #87A9E1",
"x  c #89A9E1",
"c  c #8BADE3",
"v  c #8CAEE2",
"b  c #92B1E4",
"n  c #94B3E5",
"m  c #94B3E6",
"M  c #96B4E5",
"N  c #98B4E6",
"B  c #98B6E6",
"V  c #99B7E6",
"C  c #9AB6E6",
"Z  c #9BB7E6",
"A  c #9CB7E6",
"S  c #9BB8E7",
"D  c #9CB9E7",
"F  c #9DB9E7",
"G  c #A3BDE8",
"H  c #A5BEE9",
"J  c #A5BFE9",
"K  c #A7C0E9",
"L  c #A8C0EA",
"P  c #ABC2EA",
"I  c #ABC3EA",
"U  c #ACC3EA",
"Y  c #ADC4EA",
"T  c #AEC6EB",
"R  c #B3C8EC",
"E  c #B3C8ED",
"W  c #B7CCED",
"Q  c #B8CCEE",
"!  c #BACDEE",
"~  c #BACEEE",
"^  c #BBCEEE",
"/  c #BCCFEF",
"(  c #C0C0C0",
")  c gray76",
"_  c #C3C3C3",
"`  c gray77",
"'  c #C5C5C5",
"]  c #C6C6C6",
"[  c gray78",
"{  c #C8C8C8",
"}  c gray80",
"|  c gray81",
" . c #D2D2D2",
".. c gray83",
"X. c #D7D7D7",
"o. c #DDDDDD",
"O. c #E2E2E2",
"+. c #E4E4E4",
"@. c #E7E7E7",
"#. c #EEEEEE",
"$. c None",
/* pixels */
"$.$.$.$.$.$.$.$.$.$.i i u $.$.$.",
"$.$.$.$.$.$.$.$.$.u O.#.r $.$.$.",
"$.$.$.$.$.$.$.$.u O.@.s r $.$.$.",
"$.$.$.$.$.$.$.$.u O.| w $.8 8 7 ",
"$.$.$.$.$.$.$.$.r o.] w 8 p X.4 ",
"$.$.$.$.$.$.$.$.w X.] s s _ _ 4 ",
"$.$.$.$.$.c j w ] } ] ] _ _ 4 $.",
"$.$.$.$.x D B k  .a 7 4 1 1 $.$.",
"$.$.$.z S / ^ v * 4 $.$.$.$.$.$.",
"$.$.l B ^ K H E g $ $.$.$.$.$.$.",
"$.g M ^ H M D Y , @ $.$.$.$.$.$.",
"< M ^ H n S U , + $.$.$.$.$.$.$.",
", W G b B Y ; O $.$.$.$.$.$.$.$.",
"& E B B Y ; X $.$.$.$.$.$.$.$.$.",
"% g U J =   $.$.$.$.$.$.$.$.$.$.",
"$.# @ O   $.$.$.$.$.$.$.$.$.$.$."
};
