/* XPM */
static char *redo_xpm[] = {
/* columns rows colors chars-per-pixel */
"16 16 110 2",
"   c #215F1E",
".  c #236220",
"X  c #246220",
"o  c #266522",
"O  c #276623",
"+  c #296925",
"@  c #2A6B26",
"#  c #2C6C27",
"$  c #2D6E29",
"%  c #2F702A",
"&  c #31732C",
"*  c #32752D",
"=  c #34772F",
"-  c #367930",
";  c #387B32",
":  c #397E33",
">  c #3B8035",
",  c #3E8337",
"<  c #3E8438",
"1  c #3F8538",
"2  c #41883B",
"3  c #438A3C",
"4  c #458D3E",
"5  c #478F40",
"6  c #4A9242",
"7  c #4B9443",
"8  c #4C9444",
"9  c #4E9746",
"0  c #509947",
"q  c #519C49",
"w  c #549F4B",
"e  c #55A04C",
"r  c #57A34E",
"t  c #58A34F",
"y  c #58A44F",
"u  c #5AA651",
"i  c #5BA751",
"p  c #5EAC54",
"a  c #60A259",
"s  c #60A35A",
"d  c #61A35A",
"f  c #62A35B",
"g  c #64A65D",
"h  c #67A85F",
"j  c #62B057",
"k  c #62B158",
"l  c #65B45A",
"z  c #66B55B",
"x  c #68B85D",
"c  c #6ABA5F",
"v  c #6ABB5F",
"b  c #6FAF66",
"n  c #70B268",
"m  c #71B369",
"M  c #70B16A",
"N  c #76B56E",
"B  c #73B96D",
"V  c #76B86D",
"C  c #74BB70",
"Z  c #75BB70",
"A  c #77BC71",
"S  c #7AB972",
"D  c #78BD72",
"F  c #79BD74",
"G  c #7ABD74",
"H  c #7CBC75",
"J  c #7FBC76",
"K  c #7CBE76",
"L  c #7EBF77",
"P  c #7DBF78",
"I  c #7FC178",
"U  c #80C179",
"Y  c #84C57A",
"T  c #85C57B",
"R  c #82C27C",
"E  c #85C17E",
"W  c #87C27F",
"Q  c #86C47F",
"!  c #8BC785",
"~  c #8CC685",
"^  c #90CA87",
"/  c #90CA89",
"(  c #91CA8A",
")  c #93CB8B",
"_  c #92CC88",
"`  c #93CC8A",
"'  c #94CC8D",
"]  c #95CC8D",
"[  c #96CE8D",
"{  c #98CE90",
"}  c #99CE90",
"|  c #99CF91",
" . c #9ACE91",
".. c #9ACF92",
"X. c #9BCF93",
"o. c #9DD193",
"O. c #9DD094",
"+. c #9CD194",
"@. c #9ED195",
"#. c #9ED196",
"$. c #9FD297",
"%. c #A0D396",
"&. c #A1D398",
"*. c #A1D399",
"=. c #A2D499",
"-. c #A3D49B",
";. c #A5D59C",
":. c #A7D69E",
">. c #A9D7A0",
",. c None",
/* pixels */
",.,.,.,.,.,.,.,.,.,.,.,.,.,.,.,.",
",.,.,.,.,.,.,.,.,.,.,.,.,.,.,.,.",
",.,.,.,.,.,.,.,.,.,.,.i w ,.,.,.",
",.,.,.,.,.x z j p i e m b 8 ,.,.",
",.,.,.c Y [ *.:.&.&.X.} [ b 1 ,.",
",.,.c ` >.%.-.*.#.X.} [ / f 1 ,.",
",.,.Y :.:.} V e q 8 6 g s 1 ,.,.",
",.z ` o.} y e ,.,.,.,.2 , ,.,.,.",
",.k #.#.J w ,.,.,.,.,.,.,.,.,.,.",
",.p [ } S q ,.,.,.,.,.,.,.,.,.,.",
",.i W ^ ~ 8 5 ,.,.,.,.,.,.,.,.,.",
",.,.M ) / W u 2 , - - & $ @ ,.,.",
",.,.8 N ! I Q R U P G A Z O ,.,.",
",.,.,.5 s M K K K G A C B X ,.,.",
",.,.,.,.,.: - * % $ + O .   ,.,.",
",.,.,.,.,.,.,.,.,.,.,.,.,.,.,.,."
};
