/* XPM */
static char *error_xpm[] = {
/* columns rows colors chars-per-pixel */
"16 16 107 2",
"   c #BD4128",
".  c #BE4228",
"X  c #BF4329",
"o  c #C0442A",
"O  c #C0442B",
"+  c #C2462C",
"@  c #C4482F",
"#  c #C64A31",
"$  c #CA4F35",
"%  c #CC5238",
"&  c #CE533A",
"*  c #D2583E",
"=  c #D3593F",
"-  c #CE5D4C",
";  c #E15D52",
":  c #E25F53",
">  c #DA6046",
",  c #DE644A",
"<  c #D16150",
"1  c #D46452",
"2  c #DD705D",
"3  c #E36154",
"4  c #E56255",
"5  c #E66556",
"6  c #E76757",
"7  c #E46C52",
"8  c #E56D52",
"9  c #E3665B",
"0  c #E4675C",
"q  c #E76C5D",
"w  c #E86958",
"e  c #EA6C59",
"r  c #EB6E5A",
"t  c #E96F5F",
"y  c #E97157",
"u  c #EB7359",
"i  c #EC705B",
"p  c #ED765B",
"a  c #EE735C",
"s  c #EF765D",
"d  c #F0785F",
"f  c #F17A5F",
"g  c #DD7C6F",
"h  c #DD7D6F",
"j  c #E07360",
"k  c #E97D68",
"l  c #F37C60",
"z  c #F37C61",
"x  c #F37E61",
"c  c #F57E63",
"v  c #F67F65",
"b  c #EC816C",
"n  c #EE836E",
"m  c #F48062",
"M  c #F58162",
"N  c #F58263",
"B  c #F28065",
"V  c #F78065",
"C  c #F48467",
"Z  c #F88166",
"A  c #F98267",
"S  c #F98268",
"D  c #F6896B",
"F  c #E38475",
"G  c #EA877D",
"H  c #E68878",
"J  c #EA8D7B",
"K  c #EB897D",
"L  c #EC8B7F",
"P  c #EC927F",
"I  c #E58E83",
"U  c #E79084",
"Y  c #E79185",
"T  c #EC9288",
"R  c #ED9289",
"E  c #EC9889",
"W  c #F19382",
"Q  c #F09783",
"!  c #F19784",
"~  c #F49984",
"^  c #F09F8E",
"/  c #ED9F95",
"(  c #F19D90",
")  c #F8A188",
"_  c #F8A289",
"`  c #F8A38A",
"'  c #EEA095",
"]  c #F3A691",
"[  c #F4A692",
"{  c #F1A599",
"}  c #F1A89B",
"|  c #F1A89F",
" . c #F2A99F",
".. c #F4ACA1",
"X. c #F3AFA6",
"o. c #F7B3A0",
"O. c #F5B0A3",
"+. c #F7B3A4",
"@. c #F8B4A0",
"#. c #F8B6A1",
"$. c #F8B5A5",
"%. c #F9B9A6",
"&. c #FABCA8",
"*. c #FBBDA9",
"=. c #FAD9D3",
"-. c gray100",
";. c None",
/* pixels */
";.;.;.;.;.;.;.;.;.;.;.;.;.;.;.;.",
";.;.;.;.;.;.S Z v x ;.;.;.;.;.;.",
";.;.;.;.S b [ #.@.] k u ;.;.;.;.",
";.;.;.Z ! *.) D D ) *.P 7 ;.;.;.",
";.;.v Q *.N N -.-.z x %.J , ;.;.",
";.;.b *.N N x -.-.f f s $.2 ;.;.",
";.f ] ) x x f -.-.a a i W E * ;.",
";.p #.C x f f -.-.i e e t } & ;.",
";.y @.B f s i =.-.e 6 6 q { $ ;.",
";.7 ^ ~ i i i ( X.6 6 4 K Y # ;.",
";.;.j +.r r 6 -.-.4 3 : | < ;.;.",
";.;.> H O.6 6 T T : : | h O ;.;.",
";.;.;.= F ..L 0 9 G | h O ;.;.;.",
";.;.;.;.& 1 I ' / I -   ;.;.;.;.",
";.;.;.;.;.;.@ + o   ;.;.;.;.;.;.",
";.;.;.;.;.;.;.;.;.;.;.;.;.;.;.;."
};
