/* XPM */
static char *warning_xpm[] = {
/* columns rows colors chars-per-pixel */
"16 16 113 2",
"   c #BF6400",
".  c #C16803",
"X  c #C36C06",
"o  c #C67109",
"O  c #C9770D",
"+  c #C9790E",
"@  c #CC7E11",
"#  c #CF8516",
"$  c #D08717",
"%  c #D38C1B",
"&  c #D48E1D",
"*  c #D69320",
"=  c #D99823",
"-  c #D99924",
";  c #DA9B25",
":  c #DC9E27",
">  c #DDA129",
",  c #DEA32B",
"<  c #DFA42B",
"1  c #D5A13D",
"2  c #D5A23E",
"3  c #D6A33E",
"4  c #E0A72D",
"5  c #E1A92F",
"6  c #E2AA2F",
"7  c #E3AC31",
"8  c #E3AD31",
"9  c #E5B034",
"0  c #E5B134",
"q  c #E6B235",
"w  c #E6B336",
"e  c #E6B436",
"r  c #E8B738",
"t  c #E9B93A",
"y  c #E9BA3A",
"u  c #EABA3A",
"i  c #EBBC3C",
"p  c #D29344",
"a  c #DDB147",
"s  c #E8BF62",
"d  c #E5BB68",
"f  c #F4D74E",
"g  c #EBCB57",
"h  c #F4D650",
"j  c #F2D654",
"k  c #F2D655",
"l  c #F2D756",
"z  c #F2D757",
"x  c #F5D851",
"c  c #F5D852",
"v  c #F3D857",
"b  c #F5D954",
"n  c #F4D957",
"m  c #F2D658",
"M  c #F2D758",
"N  c #F5DA58",
"B  c #F4DA5B",
"V  c #F6DB5A",
"C  c #F4D95C",
"Z  c #F4DA5C",
"A  c #F5DB5C",
"S  c #F4DA5D",
"D  c #F6DC5C",
"F  c #F4DC5E",
"G  c #F6DA62",
"H  c #F6DF64",
"J  c #EDC871",
"K  c #E7C07D",
"L  c #E5BF88",
"P  c #F0D182",
"I  c #F1D485",
"U  c #F0D28C",
"Y  c #F0D38F",
"T  c #F2D894",
"R  c #F1D79D",
"E  c #F8E58B",
"W  c #F8E694",
"Q  c #F8E794",
"!  c #F9E994",
"~  c #FAEB9E",
"^  c #EBCEAB",
"/  c #F1D7A2",
"(  c #F4DFA9",
")  c #FAEFB5",
"_  c #F5E3BE",
"`  c #F4E3C0",
"'  c #F7EAC8",
"]  c #FBF2C3",
"[  c #FCF3C7",
"{  c #FAEFD5",
"}  c #FCF5D4",
"|  c #FCF6D8",
" . c #FDF8DE",
".. c #FBF4E3",
"X. c #FDF9E7",
"o. c #FDFAE6",
"O. c #FEFAE7",
"+. c #FEFBEA",
"@. c #FDF9ED",
"#. c #FEFAEC",
"$. c #FEFBEC",
"%. c #FEFBED",
"&. c #FEFBEE",
"*. c #FEFBEF",
"=. c #FEFCEF",
"-. c #FDFAF1",
";. c #FEFBF3",
":. c #FEFCF2",
">. c #FEFCF3",
",. c #FEFCF4",
"<. c #FFFDF9",
"1. c #FFFEF9",
"2. c None",
/* pixels */
"2.2.2.2.2.2.2.2.2.2.2.2.2.2.2.2.",
"2.2.2.2.2.2.2.i t 2.2.2.2.2.2.2.",
"2.2.2.2.2.2.i I P 2.2.2.2.2.2.2.",
"2.2.2.2.2.2.t -.} 9 2.2.2.2.2.2.",
"2.2.2.2.2.t T >.X.Y 8 2.2.2.2.2.",
"2.2.2.2.2.r 1.! ~ @.7 2.2.2.2.2.",
"2.2.2.2.r ( @.2 2 } / < 2.2.2.2.",
"2.2.2.2.J 1.F 2 2 C @.d 2.2.2.2.",
"2.2.2.e ' +.D 2 2 l [ ` - 2.2.2.",
"2.2.9 Y +.Q v a 2 l D  .d * 2.2.",
"2.2.0 -.] D C H g j h Q @.$ 2.2.",
"2.9 R X.E C C 2 2 j c h | L @ 2.",
"2.g <.) V n n v l n c f G @.p 2.",
"8 _ <.@.@.=.=.=.@.=.=.@.@.;.^ . ",
"7 5 , : : - - * % $ @ O o X .   ",
"2.2.2.2.2.2.2.2.2.2.2.2.2.2.2.2."
};
